<svg xmlns="http://www.w3.org/2000/svg" width="94" height="80" viewBox="0 0 94 80"><defs><linearGradient id="gkj3a" x1="47.11" x2="46.96" y1="80.07" y2="-.04" gradientUnits="userSpaceOnUse"><stop offset="0" stop-color="#c10029"/><stop offset="1" stop-color="#69002f"/></linearGradient><filter id="gkj3b" width="200%" height="200%" x="-50%" y="-50%"><feGaussianBlur in="SourceGraphic" result="FeGaussianBlur1184Out" stdDeviation="1.5 1.5"/></filter><mask id="gkj3c"><path fill="#fff" d="M45.96 79.563L.245 23.451a1.234 1.234 0 0 1-.286-.793c0-.401.193-.76.496-.998l10.784-9.011c.026-.024.053-.047.08-.068L26.033.287a1.406 1.406 0 0 1 .904-.324h41.368c.344 0 .674.122.928.343L83.786 13.05l.045.039 9.84 8.617c.118.102.212.22.283.348a1.241 1.241 0 0 1-.127 1.397L48.13 79.558c-.12.149-.272.27-.445.357a1.42 1.42 0 0 1-.641.152h-.014l-.026-.001a1.411 1.411 0 0 1-1.043-.503zm44-55.609H72.901l-20.51 46.13zm-63.945 0l19.662 47.912V23.954zm43.917 0h-21.52v48.401zm-65.82 0l38.22 46.91-19.252-46.91zm78.724-8.205l-7.076 5.613h13.486zM58.613 12.95l-8.32 8.41h18.145zm-22.406.17l-8.849 8.24h16.557zm-23.988 2.164l-7.273 6.077h15.201zM47.034 3.04l-8.874 8.263 8.911 9.525 9.511-9.615zm3.517-.484l7.903 6.765 6.692-6.765zM72.028 20.94l8.782-6.965-12.438-10.89-7.887 7.974zM14.3 13.545l9.626 7.377 10.462-9.743-7.57-8.093zM43.65 2.556H29.978l6.365 6.804z"/></mask></defs><g><g><path d="M45.96 79.563L.245 23.451a1.234 1.234 0 0 1-.286-.793c0-.401.193-.76.496-.998l10.784-9.011c.026-.024.053-.047.08-.068L26.033.287a1.406 1.406 0 0 1 .904-.324h41.368c.344 0 .674.122.928.343L83.786 13.05l.045.039 9.84 8.617c.118.102.212.22.283.348a1.241 1.241 0 0 1-.127 1.397L48.13 79.558c-.12.149-.272.27-.445.357a1.42 1.42 0 0 1-.641.152h-.014l-.026-.001a1.411 1.411 0 0 1-1.043-.503zm44-55.609H72.901l-20.51 46.13zm-63.945 0l19.662 47.912V23.954zm43.917 0h-21.52v48.401zm-65.82 0l38.22 46.91-19.252-46.91zm78.724-8.205l-7.076 5.613h13.486zM58.613 12.95l-8.32 8.41h18.145zm-22.406.17l-8.849 8.24h16.557zm-23.988 2.164l-7.273 6.077h15.201zM47.034 3.04l-8.874 8.263 8.911 9.525 9.511-9.615zm3.517-.484l7.903 6.765 6.692-6.765zM72.028 20.94l8.782-6.965-12.438-10.89-7.887 7.974zM14.3 13.545l9.626 7.377 10.462-9.743-7.57-8.093zM43.65 2.556H29.978l6.365 6.804z"/><path fill="url(#gkj3a)" d="M45.96 79.563L.245 23.451a1.234 1.234 0 0 1-.286-.793c0-.401.193-.76.496-.998l10.784-9.011c.026-.024.053-.047.08-.068L26.033.287a1.406 1.406 0 0 1 .904-.324h41.368c.344 0 .674.122.928.343L83.786 13.05l.045.039 9.84 8.617c.118.102.212.22.283.348a1.241 1.241 0 0 1-.127 1.397L48.13 79.558c-.12.149-.272.27-.445.357a1.42 1.42 0 0 1-.641.152h-.014l-.026-.001a1.411 1.411 0 0 1-1.043-.503zm44-55.609H72.901l-20.51 46.13zm-63.945 0l19.662 47.912V23.954zm43.917 0h-21.52v48.401zm-65.82 0l38.22 46.91-19.252-46.91zm78.724-8.205l-7.076 5.613h13.486zM58.613 12.95l-8.32 8.41h18.145zm-22.406.17l-8.849 8.24h16.557zm-23.988 2.164l-7.273 6.077h15.201zM47.034 3.04l-8.874 8.263 8.911 9.525 9.511-9.615zm3.517-.484l7.903 6.765 6.692-6.765zM72.028 20.94l8.782-6.965-12.438-10.89-7.887 7.974zM14.3 13.545l9.626 7.377 10.462-9.743-7.57-8.093zM43.65 2.556H29.978l6.365 6.804z"/><path fill="#fff" fill-opacity=".75" d="M-3 84V-3H98v87zm48.96-4.437a1.35 1.35 0 0 0 .31.276 1.411 1.411 0 0 0 .76.228h.014c.232 0 .45-.055.64-.152.174-.086.326-.208.446-.357L93.827 23.45a1.244 1.244 0 0 0 .127-1.397 1.308 1.308 0 0 0-.283-.348l-9.84-8.617a1.334 1.334 0 0 0-.045-.04L69.232.307a1.413 1.413 0 0 0-.928-.344H26.936a1.436 1.436 0 0 0-.728.2c-.061.036-.12.078-.176.125L11.32 12.58a1.347 1.347 0 0 0-.081.068L.454 21.659a1.269 1.269 0 0 0-.496.999 1.234 1.234 0 0 0 .286.793l45.717 56.112zm6.43-9.48l20.511-46.129H89.96zm-6.713-46.129v47.912L26.015 23.954zm2.734 48.401v-48.4h21.52zm-25.33-48.4l19.25 46.909-38.22-46.91zm66.165-2.593H75.76l7.076-5.613zm-20.808 0H50.294l8.319-8.41zm-24.523 0H27.358l8.849-8.24zm-23.768 0H4.946l7.273-6.077zm36.435-10.149l-9.51 9.615-8.912-9.525 8.874-8.263zm8.564-8.657l-6.692 6.765-7.903-6.765zm-4.661 8.503l7.887-7.974 12.438 10.89-8.782 6.965zM26.818 3.086l7.571 8.093-10.462 9.743-9.626-7.377zm9.525 6.274l-6.365-6.804h13.671z" filter="url(#gkj3b)" mask="url(&quot;#gkj3c&quot;)"/></g></g></svg>