<svg xmlns="http://www.w3.org/2000/svg" width="77" height="72" viewBox="0 0 77 72"><defs><linearGradient id="i1n2a" x1="38.22" x2="37.88" y1="71.94" y2=".2" gradientUnits="userSpaceOnUse"><stop offset="0" stop-color="#c10029"/><stop offset="1" stop-color="#69002f"/></linearGradient><filter id="i1n2b" width="200%" height="200%" x="-50%" y="-50%"><feGaussianBlur in="SourceGraphic" result="FeGaussianBlur1124Out" stdDeviation="1.5 1.5"/></filter><mask id="i1n2c"><path fill="#fff" d="M31.875 64.95c-.065 0-.13-.004-.19-.014H4.332c-2.454 0-4.449-1.911-4.449-4.26V4.464c0-2.35 1.995-4.261 4.45-4.261h27.542c2.541 0 4.796 1.42 6.178 3.594C39.435 1.623 41.69.204 44.233.204h27.54c2.455 0 4.45 1.91 4.45 4.26v56.211c0 2.35-1.995 4.261-4.45 4.261H44.421a1.15 1.15 0 0 1-.189.014c-2.612 0-4.738 2.405-4.738 5.363 0 .898-.642 1.624-1.434 1.624H38.047c-.793 0-1.436-.726-1.436-1.624 0-2.958-2.124-5.363-4.736-5.363zm0-61.496H4.332c-.95 0-1.58.608-1.58 1.01v56.211c0 .403.63 1.012 1.58 1.012h27.543c.072 0 .142.007.212.017 1.707.053 3.275.746 4.524 1.875V8.817c0-2.958-2.124-5.363-4.736-5.363zm12.147 58.25c.069-.01.139-.017.21-.017h27.541c.95 0 1.58-.61 1.58-1.012V4.465c0-.403-.63-1.01-1.58-1.01h-27.54c-2.613 0-4.739 2.404-4.739 5.362 0 .073-.004.145-.012.216V63.59c1.251-1.136 2.826-1.834 4.54-1.886zm-14.09-46.67h-20.5c-.794 0-1.435-.728-1.435-1.625 0-.896.64-1.624 1.434-1.624h20.501c.794 0 1.435.728 1.435 1.624 0 .897-.641 1.625-1.435 1.625zm0 8.928h-20.5c-.794 0-1.435-.728-1.435-1.624 0-.899.64-1.627 1.434-1.627h20.501c.794 0 1.435.728 1.435 1.627 0 .896-.641 1.624-1.435 1.624zm0 8.926h-20.5c-.794 0-1.435-.726-1.435-1.624 0-.897.64-1.624 1.434-1.624h20.501c.794 0 1.435.727 1.435 1.624 0 .898-.641 1.624-1.435 1.624zm0 8.928h-20.5c-.794 0-1.435-.727-1.435-1.624 0-.896.64-1.624 1.434-1.624h20.501c.794 0 1.435.728 1.435 1.624 0 .897-.641 1.624-1.435 1.624zm36.74-26.782H46.174c-.792 0-1.434-.728-1.434-1.625 0-.896.642-1.624 1.434-1.624h20.5c.793 0 1.436.728 1.436 1.624 0 .897-.643 1.625-1.436 1.625zm0 8.928H46.174c-.792 0-1.434-.728-1.434-1.624 0-.899.642-1.627 1.434-1.627h20.5c.793 0 1.436.728 1.436 1.627 0 .896-.643 1.624-1.436 1.624zm0 8.926H46.174c-.792 0-1.434-.726-1.434-1.624 0-.897.642-1.624 1.434-1.624h20.5c.793 0 1.436.727 1.436 1.624 0 .898-.643 1.624-1.436 1.624zm0 8.928H46.174c-.792 0-1.434-.727-1.434-1.624 0-.896.642-1.624 1.434-1.624h20.5c.793 0 1.436.728 1.436 1.624 0 .897-.643 1.624-1.436 1.624zm0 8.929H46.174c-.792 0-1.434-.728-1.434-1.627 0-.896.642-1.624 1.434-1.624h20.5c.793 0 1.436.728 1.436 1.624 0 .899-.643 1.627-1.436 1.627zm-36.74 0H9.431c-.793 0-1.434-.728-1.434-1.627 0-.896.64-1.624 1.434-1.624h20.501c.794 0 1.435.728 1.435 1.624 0 .899-.641 1.627-1.435 1.627z"/></mask></defs><g><g><path d="M31.875 64.95c-.065 0-.13-.004-.19-.014H4.332c-2.454 0-4.449-1.911-4.449-4.26V4.464c0-2.35 1.995-4.261 4.45-4.261h27.542c2.541 0 4.796 1.42 6.178 3.594C39.435 1.623 41.69.204 44.233.204h27.54c2.455 0 4.45 1.91 4.45 4.26v56.211c0 2.35-1.995 4.261-4.45 4.261H44.421a1.15 1.15 0 0 1-.189.014c-2.612 0-4.738 2.405-4.738 5.363 0 .898-.642 1.624-1.434 1.624H38.047c-.793 0-1.436-.726-1.436-1.624 0-2.958-2.124-5.363-4.736-5.363zm0-61.496H4.332c-.95 0-1.58.608-1.58 1.01v56.211c0 .403.63 1.012 1.58 1.012h27.543c.072 0 .142.007.212.017 1.707.053 3.275.746 4.524 1.875V8.817c0-2.958-2.124-5.363-4.736-5.363zm12.147 58.25c.069-.01.139-.017.21-.017h27.541c.95 0 1.58-.61 1.58-1.012V4.465c0-.403-.63-1.01-1.58-1.01h-27.54c-2.613 0-4.739 2.404-4.739 5.362 0 .073-.004.145-.012.216V63.59c1.251-1.136 2.826-1.834 4.54-1.886zm-14.09-46.67h-20.5c-.794 0-1.435-.728-1.435-1.625 0-.896.64-1.624 1.434-1.624h20.501c.794 0 1.435.728 1.435 1.624 0 .897-.641 1.625-1.435 1.625zm0 8.928h-20.5c-.794 0-1.435-.728-1.435-1.624 0-.899.64-1.627 1.434-1.627h20.501c.794 0 1.435.728 1.435 1.627 0 .896-.641 1.624-1.435 1.624zm0 8.926h-20.5c-.794 0-1.435-.726-1.435-1.624 0-.897.64-1.624 1.434-1.624h20.501c.794 0 1.435.727 1.435 1.624 0 .898-.641 1.624-1.435 1.624zm0 8.928h-20.5c-.794 0-1.435-.727-1.435-1.624 0-.896.64-1.624 1.434-1.624h20.501c.794 0 1.435.728 1.435 1.624 0 .897-.641 1.624-1.435 1.624zm36.74-26.782H46.174c-.792 0-1.434-.728-1.434-1.625 0-.896.642-1.624 1.434-1.624h20.5c.793 0 1.436.728 1.436 1.624 0 .897-.643 1.625-1.436 1.625zm0 8.928H46.174c-.792 0-1.434-.728-1.434-1.624 0-.899.642-1.627 1.434-1.627h20.5c.793 0 1.436.728 1.436 1.627 0 .896-.643 1.624-1.436 1.624zm0 8.926H46.174c-.792 0-1.434-.726-1.434-1.624 0-.897.642-1.624 1.434-1.624h20.5c.793 0 1.436.727 1.436 1.624 0 .898-.643 1.624-1.436 1.624zm0 8.928H46.174c-.792 0-1.434-.727-1.434-1.624 0-.896.642-1.624 1.434-1.624h20.5c.793 0 1.436.728 1.436 1.624 0 .897-.643 1.624-1.436 1.624zm0 8.929H46.174c-.792 0-1.434-.728-1.434-1.627 0-.896.642-1.624 1.434-1.624h20.5c.793 0 1.436.728 1.436 1.624 0 .899-.643 1.627-1.436 1.627zm-36.74 0H9.431c-.793 0-1.434-.728-1.434-1.627 0-.896.64-1.624 1.434-1.624h20.501c.794 0 1.435.728 1.435 1.624 0 .899-.641 1.627-1.435 1.627z"/><path fill="url(#i1n2a)" d="M31.875 64.95c-.065 0-.13-.004-.19-.014H4.332c-2.454 0-4.449-1.911-4.449-4.26V4.464c0-2.35 1.995-4.261 4.45-4.261h27.542c2.541 0 4.796 1.42 6.178 3.594C39.435 1.623 41.69.204 44.233.204h27.54c2.455 0 4.45 1.91 4.45 4.26v56.211c0 2.35-1.995 4.261-4.45 4.261H44.421a1.15 1.15 0 0 1-.189.014c-2.612 0-4.738 2.405-4.738 5.363 0 .898-.642 1.624-1.434 1.624H38.047c-.793 0-1.436-.726-1.436-1.624 0-2.958-2.124-5.363-4.736-5.363zm0-61.496H4.332c-.95 0-1.58.608-1.58 1.01v56.211c0 .403.63 1.012 1.58 1.012h27.543c.072 0 .142.007.212.017 1.707.053 3.275.746 4.524 1.875V8.817c0-2.958-2.124-5.363-4.736-5.363zm12.147 58.25c.069-.01.139-.017.21-.017h27.541c.95 0 1.58-.61 1.58-1.012V4.465c0-.403-.63-1.01-1.58-1.01h-27.54c-2.613 0-4.739 2.404-4.739 5.362 0 .073-.004.145-.012.216V63.59c1.251-1.136 2.826-1.834 4.54-1.886zm-14.09-46.67h-20.5c-.794 0-1.435-.728-1.435-1.625 0-.896.64-1.624 1.434-1.624h20.501c.794 0 1.435.728 1.435 1.624 0 .897-.641 1.625-1.435 1.625zm0 8.928h-20.5c-.794 0-1.435-.728-1.435-1.624 0-.899.64-1.627 1.434-1.627h20.501c.794 0 1.435.728 1.435 1.627 0 .896-.641 1.624-1.435 1.624zm0 8.926h-20.5c-.794 0-1.435-.726-1.435-1.624 0-.897.64-1.624 1.434-1.624h20.501c.794 0 1.435.727 1.435 1.624 0 .898-.641 1.624-1.435 1.624zm0 8.928h-20.5c-.794 0-1.435-.727-1.435-1.624 0-.896.64-1.624 1.434-1.624h20.501c.794 0 1.435.728 1.435 1.624 0 .897-.641 1.624-1.435 1.624zm36.74-26.782H46.174c-.792 0-1.434-.728-1.434-1.625 0-.896.642-1.624 1.434-1.624h20.5c.793 0 1.436.728 1.436 1.624 0 .897-.643 1.625-1.436 1.625zm0 8.928H46.174c-.792 0-1.434-.728-1.434-1.624 0-.899.642-1.627 1.434-1.627h20.5c.793 0 1.436.728 1.436 1.627 0 .896-.643 1.624-1.436 1.624zm0 8.926H46.174c-.792 0-1.434-.726-1.434-1.624 0-.897.642-1.624 1.434-1.624h20.5c.793 0 1.436.727 1.436 1.624 0 .898-.643 1.624-1.436 1.624zm0 8.928H46.174c-.792 0-1.434-.727-1.434-1.624 0-.896.642-1.624 1.434-1.624h20.5c.793 0 1.436.728 1.436 1.624 0 .897-.643 1.624-1.436 1.624zm0 8.929H46.174c-.792 0-1.434-.728-1.434-1.627 0-.896.642-1.624 1.434-1.624h20.5c.793 0 1.436.728 1.436 1.624 0 .899-.643 1.627-1.436 1.627zm-36.74 0H9.431c-.793 0-1.434-.728-1.434-1.627 0-.896.64-1.624 1.434-1.624h20.501c.794 0 1.435.728 1.435 1.624 0 .899-.641 1.627-1.435 1.627z"/><path fill="#fff" fill-opacity=".75" d="M-4 75V-3h84v78zm35.875-10.05c2.612 0 4.736 2.405 4.736 5.363 0 .898.643 1.624 1.436 1.624H38.06c.792 0 1.434-.726 1.434-1.624 0-2.958 2.126-5.363 4.738-5.363.065 0 .128-.004.189-.014h27.352c2.455 0 4.45-1.911 4.45-4.26V4.464c0-2.35-1.995-4.261-4.45-4.261h-27.54c-2.543 0-4.798 1.42-6.18 3.594C36.671 1.623 34.416.204 31.875.204H4.332c-2.454 0-4.449 1.91-4.449 4.26v56.211c0 2.35 1.995 4.261 4.45 4.261h27.352c.06.01.125.014.19.014zm4.736-56.133v54.762c-1.249-1.129-2.817-1.822-4.524-1.875-.07-.01-.14-.017-.212-.017H4.332c-.95 0-1.58-.61-1.58-1.012V4.465c0-.403.63-1.01 1.58-1.01h27.543c2.612 0 4.736 2.404 4.736 5.362zm7.411 52.887c-1.714.052-3.289.75-4.54 1.886V9.033c.008-.07.012-.143.012-.216 0-2.958 2.126-5.363 4.738-5.363h27.541c.95 0 1.58.608 1.58 1.01v56.211c0 .403-.63 1.012-1.58 1.012h-27.54c-.072 0-.142.007-.21.017zM31.367 13.409c0-.896-.641-1.624-1.435-1.624h-20.5c-.794 0-1.435.728-1.435 1.624 0 .897.64 1.625 1.434 1.625h20.501c.794 0 1.435-.728 1.435-1.625zm0 8.929c0-.899-.641-1.627-1.435-1.627h-20.5c-.794 0-1.435.728-1.435 1.627 0 .896.64 1.624 1.434 1.624h20.501c.794 0 1.435-.728 1.435-1.624zm0 8.926c0-.897-.641-1.624-1.435-1.624h-20.5c-.794 0-1.435.727-1.435 1.624 0 .898.64 1.624 1.434 1.624h20.501c.794 0 1.435-.726 1.435-1.624zm0 8.928c0-.896-.641-1.624-1.435-1.624h-20.5c-.794 0-1.435.728-1.435 1.624 0 .897.64 1.624 1.434 1.624h20.501c.794 0 1.435-.727 1.435-1.624zM68.109 13.41c0-.896-.643-1.624-1.436-1.624h-20.5c-.792 0-1.434.728-1.434 1.624 0 .897.642 1.625 1.434 1.625h20.5c.793 0 1.436-.728 1.436-1.625zm0 8.929c0-.899-.643-1.627-1.436-1.627h-20.5c-.792 0-1.434.728-1.434 1.627 0 .896.642 1.624 1.434 1.624h20.5c.793 0 1.436-.728 1.436-1.624zm0 8.926c0-.897-.643-1.624-1.436-1.624h-20.5c-.792 0-1.434.727-1.434 1.624 0 .898.642 1.624 1.434 1.624h20.5c.793 0 1.436-.726 1.436-1.624zm0 8.928c0-.896-.643-1.624-1.436-1.624h-20.5c-.792 0-1.434.728-1.434 1.624 0 .897.642 1.624 1.434 1.624h20.5c.793 0 1.436-.727 1.436-1.624zm0 8.926c0-.896-.643-1.624-1.436-1.624h-20.5c-.792 0-1.434.728-1.434 1.624 0 .899.642 1.627 1.434 1.627h20.5c.793 0 1.436-.728 1.436-1.627zm-36.742 0c0-.896-.641-1.624-1.435-1.624h-20.5c-.794 0-1.435.728-1.435 1.624 0 .899.64 1.627 1.434 1.627h20.501c.794 0 1.435-.728 1.435-1.627z" filter="url(#i1n2b)" mask="url(&quot;#i1n2c&quot;)"/></g></g></svg>