<svg xmlns="http://www.w3.org/2000/svg" width="99" height="97" viewBox="0 0 99 97"><defs><linearGradient id="i03ia" x1="49.85" x2="49.69" y1="96.76" y2=".21" gradientUnits="userSpaceOnUse"><stop offset="0" stop-color="#c10029"/><stop offset="1" stop-color="#69002f"/></linearGradient><filter id="i03ib" width="200%" height="200%" x="-50%" y="-50%"><feGaussianBlur in="SourceGraphic" result="FeGaussianBlur1034Out" stdDeviation="1.5 1.5"/></filter><mask id="i03ic"><path fill="#fff" d="M79.275 96.756c-.278 0-.556-.088-.791-.266L49.77 74.947 21.055 96.49a1.306 1.306 0 0 1-1.58 0 1.416 1.416 0 0 1-.489-1.551l10.97-34.859L1.241 38.535a1.409 1.409 0 0 1-.49-1.55 1.35 1.35 0 0 1 1.279-.96h35.493L48.49 1.166a1.35 1.35 0 0 1 1.28-.96 1.35 1.35 0 0 1 1.279.96l10.968 34.857h35.491a1.35 1.35 0 0 1 1.279.961 1.41 1.41 0 0 1-.488 1.55L69.586 60.08 80.553 94.94a1.413 1.413 0 0 1-.488 1.551 1.312 1.312 0 0 1-.79.266zM49.77 71.842c.276 0 .554.089.79.266l26.157 19.624-9.991-31.753a1.413 1.413 0 0 1 .487-1.551L93.37 38.8H61.039a1.35 1.35 0 0 1-1.278-.96L49.77 6.09l-9.992 31.753a1.35 1.35 0 0 1-1.279.959H6.17l26.156 19.627c.47.352.668.98.488 1.551l-9.99 31.753L48.98 72.108c.235-.177.513-.266.79-.266z"/></mask></defs><g><g><path d="M79.275 96.756c-.278 0-.556-.088-.791-.266L49.77 74.947 21.055 96.49a1.306 1.306 0 0 1-1.58 0 1.416 1.416 0 0 1-.489-1.551l10.97-34.859L1.241 38.535a1.409 1.409 0 0 1-.49-1.55 1.35 1.35 0 0 1 1.279-.96h35.493L48.49 1.166a1.35 1.35 0 0 1 1.28-.96 1.35 1.35 0 0 1 1.279.96l10.968 34.857h35.491a1.35 1.35 0 0 1 1.279.961 1.41 1.41 0 0 1-.488 1.55L69.586 60.08 80.553 94.94a1.413 1.413 0 0 1-.488 1.551 1.312 1.312 0 0 1-.79.266zM49.77 71.842c.276 0 .554.089.79.266l26.157 19.624-9.991-31.753a1.413 1.413 0 0 1 .487-1.551L93.37 38.8H61.039a1.35 1.35 0 0 1-1.278-.96L49.77 6.09l-9.992 31.753a1.35 1.35 0 0 1-1.279.959H6.17l26.156 19.627c.47.352.668.98.488 1.551l-9.99 31.753L48.98 72.108c.235-.177.513-.266.79-.266z"/><path fill="url(#i03ia)" d="M79.275 96.756c-.278 0-.556-.088-.791-.266L49.77 74.947 21.055 96.49a1.306 1.306 0 0 1-1.58 0 1.416 1.416 0 0 1-.489-1.551l10.97-34.859L1.241 38.535a1.409 1.409 0 0 1-.49-1.55 1.35 1.35 0 0 1 1.279-.96h35.493L48.49 1.166a1.35 1.35 0 0 1 1.28-.96 1.35 1.35 0 0 1 1.279.96l10.968 34.857h35.491a1.35 1.35 0 0 1 1.279.961 1.41 1.41 0 0 1-.488 1.55L69.586 60.08 80.553 94.94a1.413 1.413 0 0 1-.488 1.551 1.312 1.312 0 0 1-.79.266zM49.77 71.842c.276 0 .554.089.79.266l26.157 19.624-9.991-31.753a1.413 1.413 0 0 1 .487-1.551L93.37 38.8H61.039a1.35 1.35 0 0 1-1.278-.96L49.77 6.09l-9.992 31.753a1.35 1.35 0 0 1-1.279.959H6.17l26.156 19.627c.47.352.668.98.488 1.551l-9.99 31.753L48.98 72.108c.235-.177.513-.266.79-.266z"/><path fill="#fff" fill-opacity=".75" d="M-3 100V-3h105v103zm82.275-3.244c.277 0 .555-.088.79-.266.471-.352.668-.98.488-1.551L69.586 60.08l28.713-21.545a1.41 1.41 0 0 0 .488-1.55 1.35 1.35 0 0 0-1.279-.96H62.017L51.049 1.166a1.35 1.35 0 0 0-1.279-.96c-.583 0-1.1.387-1.28.96L37.524 36.024H2.031a1.35 1.35 0 0 0-1.279.961c-.18.57.017 1.197.49 1.55L29.955 60.08 18.986 94.94a1.416 1.416 0 0 0 .49 1.551 1.306 1.306 0 0 0 1.58 0L49.77 74.947 78.484 96.49c.235.178.513.266.79.266zM49.77 71.842c-.277 0-.555.089-.79.266L22.824 91.732l9.99-31.753a1.413 1.413 0 0 0-.488-1.551L6.17 38.8H38.5a1.35 1.35 0 0 0 1.279-.96L49.77 6.09l9.99 31.753c.18.571.697.959 1.279.959h32.33L67.214 58.428c-.47.352-.667.98-.487 1.551l9.991 31.753L50.56 72.108a1.31 1.31 0 0 0-.789-.266z" filter="url(#i03ib)" mask="url(&quot;#i03ic&quot;)"/></g></g></svg>