<svg xmlns="http://www.w3.org/2000/svg" width="53" height="86" viewBox="0 0 53 86"><defs><linearGradient id="925ga" x1="26.95" x2="26.77" y1="86.07" y2=".15" gradientUnits="userSpaceOnUse"><stop offset="0" stop-color="#c10029"/><stop offset="1" stop-color="#69002f"/></linearGradient><filter id="925gb" width="200%" height="200%" x="-50%" y="-50%"><feGaussianBlur in="SourceGraphic" result="FeGaussianBlur1094Out" stdDeviation="1.5 1.5"/></filter><mask id="925gc"><path fill="#fff" d="M2.85 41.647c-2.814-7.053.5-36.882.887-40.26.08-.703.627-1.232 1.274-1.232h14.954c.646 0 1.194.529 1.274 1.232.387 3.378 3.702 33.207.885 40.26-2.262 5.67-6.32 7.346-8.352 7.837V83.25h9.154c.71 0 1.284.63 1.284 1.408 0 .779-.574 1.41-1.284 1.41H2.05c-.71 0-1.285-.631-1.285-1.41 0-.777.575-1.408 1.285-1.408h9.155V49.472c-2.098-.506-6.109-2.2-8.355-7.825zM6.147 2.97c-.362 3.31-.821 8.09-1.192 13.162h15.066c-.37-5.073-.83-9.851-1.192-13.162zm-.945 37.546c2.26 5.659 6.666 6.288 7.288 6.35.6-.06 5.02-.68 7.283-6.35 1.23-3.081 1.03-12.45.442-21.568H4.76c-.588 9.118-.788 18.487.441 21.568zm26.387 1.13c-2.815-7.053.498-36.882.885-40.26.08-.703.628-1.232 1.274-1.232h14.956c.647 0 1.193.529 1.274 1.232.387 3.378 3.7 33.207.886 40.26-2.264 5.67-6.321 7.346-8.354 7.837V83.25h9.155c.71 0 1.283.63 1.283 1.408 0 .779-.573 1.41-1.283 1.41H30.789c-.71 0-1.286-.631-1.286-1.41 0-.777.576-1.408 1.286-1.408h9.154V49.472c-2.098-.506-6.108-2.2-8.354-7.825zM34.884 2.97c-.361 3.31-.82 8.09-1.191 13.162h15.066c-.37-5.073-.83-9.851-1.191-13.162zm-.942 37.546c2.26 5.659 6.664 6.288 7.286 6.35.601-.06 5.02-.68 7.283-6.35 1.23-3.082 1.03-12.45.442-21.568H33.499c-.587 9.118-.787 18.487.443 21.568z"/></mask></defs><g><g><path d="M2.85 41.647c-2.814-7.053.5-36.882.887-40.26.08-.703.627-1.232 1.274-1.232h14.954c.646 0 1.194.529 1.274 1.232.387 3.378 3.702 33.207.885 40.26-2.262 5.67-6.32 7.346-8.352 7.837V83.25h9.154c.71 0 1.284.63 1.284 1.408 0 .779-.574 1.41-1.284 1.41H2.05c-.71 0-1.285-.631-1.285-1.41 0-.777.575-1.408 1.285-1.408h9.155V49.472c-2.098-.506-6.109-2.2-8.355-7.825zM6.147 2.97c-.362 3.31-.821 8.09-1.192 13.162h15.066c-.37-5.073-.83-9.851-1.192-13.162zm-.945 37.546c2.26 5.659 6.666 6.288 7.288 6.35.6-.06 5.02-.68 7.283-6.35 1.23-3.081 1.03-12.45.442-21.568H4.76c-.588 9.118-.788 18.487.441 21.568zm26.387 1.13c-2.815-7.053.498-36.882.885-40.26.08-.703.628-1.232 1.274-1.232h14.956c.647 0 1.193.529 1.274 1.232.387 3.378 3.7 33.207.886 40.26-2.264 5.67-6.321 7.346-8.354 7.837V83.25h9.155c.71 0 1.283.63 1.283 1.408 0 .779-.573 1.41-1.283 1.41H30.789c-.71 0-1.286-.631-1.286-1.41 0-.777.576-1.408 1.286-1.408h9.154V49.472c-2.098-.506-6.108-2.2-8.354-7.825zM34.884 2.97c-.361 3.31-.82 8.09-1.191 13.162h15.066c-.37-5.073-.83-9.851-1.191-13.162zm-.942 37.546c2.26 5.659 6.664 6.288 7.286 6.35.601-.06 5.02-.68 7.283-6.35 1.23-3.082 1.03-12.45.442-21.568H33.499c-.587 9.118-.787 18.487.443 21.568z"/><path fill="url(#925ga)" d="M2.85 41.647c-2.814-7.053.5-36.882.887-40.26.08-.703.627-1.232 1.274-1.232h14.954c.646 0 1.194.529 1.274 1.232.387 3.378 3.702 33.207.885 40.26-2.262 5.67-6.32 7.346-8.352 7.837V83.25h9.154c.71 0 1.284.63 1.284 1.408 0 .779-.574 1.41-1.284 1.41H2.05c-.71 0-1.285-.631-1.285-1.41 0-.777.575-1.408 1.285-1.408h9.155V49.472c-2.098-.506-6.109-2.2-8.355-7.825zM6.147 2.97c-.362 3.31-.821 8.09-1.192 13.162h15.066c-.37-5.073-.83-9.851-1.192-13.162zm-.945 37.546c2.26 5.659 6.666 6.288 7.288 6.35.6-.06 5.02-.68 7.283-6.35 1.23-3.081 1.03-12.45.442-21.568H4.76c-.588 9.118-.788 18.487.441 21.568zm26.387 1.13c-2.815-7.053.498-36.882.885-40.26.08-.703.628-1.232 1.274-1.232h14.956c.647 0 1.193.529 1.274 1.232.387 3.378 3.7 33.207.886 40.26-2.264 5.67-6.321 7.346-8.354 7.837V83.25h9.155c.71 0 1.283.63 1.283 1.408 0 .779-.573 1.41-1.283 1.41H30.789c-.71 0-1.286-.631-1.286-1.41 0-.777.576-1.408 1.286-1.408h9.154V49.472c-2.098-.506-6.108-2.2-8.354-7.825zM34.884 2.97c-.361 3.31-.82 8.09-1.191 13.162h15.066c-.37-5.073-.83-9.851-1.191-13.162zm-.942 37.546c2.26 5.659 6.664 6.288 7.286 6.35.601-.06 5.02-.68 7.283-6.35 1.23-3.082 1.03-12.45.442-21.568H33.499c-.587 9.118-.787 18.487.443 21.568z"/><path fill="#fff" fill-opacity=".75" d="M-3 90V-3h59v93zm5.85-48.353c2.246 5.625 6.257 7.319 8.355 7.825V83.25H2.05c-.71 0-1.285.63-1.285 1.408 0 .779.575 1.41 1.285 1.41h20.876c.71 0 1.284-.631 1.284-1.41 0-.777-.574-1.408-1.284-1.408h-9.154V49.484c2.032-.491 6.09-2.167 8.352-7.837 2.817-7.053-.498-36.882-.885-40.26-.08-.703-.628-1.232-1.274-1.232H5.011c-.647 0-1.193.529-1.274 1.232C3.35 4.765.036 34.594 2.85 41.647zM18.83 2.97c.36 3.31.82 8.09 1.19 13.162H4.956c.37-5.073.83-9.851 1.192-13.162zM5.201 40.517c-1.229-3.081-1.029-12.45-.44-21.568h15.453c.588 9.118.788 18.487-.442 21.568-2.263 5.67-6.684 6.29-7.283 6.35-.622-.062-5.027-.691-7.288-6.35zm34.741 8.955V83.25h-9.154c-.71 0-1.286.63-1.286 1.408 0 .779.576 1.41 1.286 1.41h20.876c.71 0 1.283-.631 1.283-1.41 0-.777-.573-1.408-1.283-1.408H42.51V49.484c2.033-.491 6.09-2.167 8.354-7.837 2.814-7.053-.5-36.882-.886-40.26-.08-.703-.627-1.232-1.274-1.232H33.748c-.646 0-1.194.529-1.274 1.232-.387 3.378-3.7 33.207-.885 40.26 2.246 5.625 6.256 7.319 8.354 7.825zM47.568 2.97c.361 3.31.82 8.09 1.191 13.162H33.693c.37-5.073.83-9.851 1.19-13.162zM33.499 18.949h15.454c.588 9.118.788 18.486-.442 21.568-2.262 5.67-6.682 6.29-7.283 6.35-.622-.062-5.027-.691-7.286-6.35-1.23-3.081-1.03-12.45-.443-21.568z" filter="url(#925gb)" mask="url(&quot;#925gc&quot;)"/></g></g></svg>