<svg xmlns="http://www.w3.org/2000/svg" width="67" height="83" viewBox="0 0 67 83"><defs><linearGradient id="sgcba" x1="32.99" x2="33.99" y1="82.99" y2="-.02" gradientUnits="userSpaceOnUse"><stop offset="0" stop-color="#c10029"/><stop offset="1" stop-color="#69002f"/></linearGradient><filter id="sgcbb" width="200%" height="200%" x="-50%" y="-50%"><feGaussianBlur in="SourceGraphic" result="FeGaussianBlur1154Out" stdDeviation="1.5 1.5"/></filter><mask id="sgcbc"><path fill="#fff" d="M15.2 21.762a1.333 1.333 0 0 1-.248-1.39c.19-.473.632-.78 1.122-.78h13.588c-.617-7.303-6.474-13.05-13.587-13.05-7.528 0-13.652 6.427-13.652 14.326 0 7.906 6.124 14.338 13.652 14.338 3.154 0 6.162-1.131 8.59-3.209zm50.572-2.17c.49 0 .931.307 1.122.78a1.33 1.33 0 0 1-.249 1.39l-24.504 26.5v32.166h9.503c.674 0 1.22.573 1.22 1.28 0 .707-.546 1.278-1.22 1.278H30.202c-.674 0-1.218-.571-1.218-1.279 0-.706.544-1.279 1.218-1.279h9.502V48.262L26.368 33.84c-2.89 2.54-6.5 3.925-10.293 3.925-8.87 0-16.087-7.578-16.087-16.896 0-9.31 7.217-16.884 16.087-16.884 8.456 0 15.409 6.891 16.032 15.608h20.236l2.222-3.717a6.962 6.962 0 0 1-1.936-3.532 7.152 7.152 0 0 1 .835-5.213c.93-1.557 2.389-2.642 4.106-3.055a6.243 6.243 0 0 1 3.87.297l2.266-3.79c.358-.598 1.109-.779 1.679-.404.57.376.742 1.167.384 1.764l-2.266 3.79a6.955 6.955 0 0 1 1.938 3.534 7.158 7.158 0 0 1-.833 5.212c-.933 1.558-2.391 2.643-4.107 3.056a6.39 6.39 0 0 1-1.489.177c-.818 0-1.624-.16-2.384-.475l-1.408 2.356zM18.955 22.15l8.274 8.947a1.254 1.254 0 0 1 .138.149l.136.148h17.785l5.526-9.244zm35.389 9.244l8.548-9.244H53.69l-5.526 9.244zm-13.42 14.513l11.053-11.954h-5.342l-6.56 10.975a1.331 1.331 0 0 1-.023.037zM29.87 33.953l8.435 9.123 5.453-9.123zM59.053 6.457a4.115 4.115 0 0 0-3.526 2.034 4.509 4.509 0 0 0-.524 3.283c.248 1.137.897 2.101 1.83 2.716.931.614 2.04.808 3.124.55a4.12 4.12 0 0 0 2.586-1.922c.587-.98.772-2.145.524-3.281-.24-1.105-.86-2.047-1.748-2.663a1.205 1.205 0 0 1-.164-.108 3.954 3.954 0 0 0-2.102-.61z"/></mask></defs><g><g><path d="M15.2 21.762a1.333 1.333 0 0 1-.248-1.39c.19-.473.632-.78 1.122-.78h13.588c-.617-7.303-6.474-13.05-13.587-13.05-7.528 0-13.652 6.427-13.652 14.326 0 7.906 6.124 14.338 13.652 14.338 3.154 0 6.162-1.131 8.59-3.209zm50.572-2.17c.49 0 .931.307 1.122.78a1.33 1.33 0 0 1-.249 1.39l-24.504 26.5v32.166h9.503c.674 0 1.22.573 1.22 1.28 0 .707-.546 1.278-1.22 1.278H30.202c-.674 0-1.218-.571-1.218-1.279 0-.706.544-1.279 1.218-1.279h9.502V48.262L26.368 33.84c-2.89 2.54-6.5 3.925-10.293 3.925-8.87 0-16.087-7.578-16.087-16.896 0-9.31 7.217-16.884 16.087-16.884 8.456 0 15.409 6.891 16.032 15.608h20.236l2.222-3.717a6.962 6.962 0 0 1-1.936-3.532 7.152 7.152 0 0 1 .835-5.213c.93-1.557 2.389-2.642 4.106-3.055a6.243 6.243 0 0 1 3.87.297l2.266-3.79c.358-.598 1.109-.779 1.679-.404.57.376.742 1.167.384 1.764l-2.266 3.79a6.955 6.955 0 0 1 1.938 3.534 7.158 7.158 0 0 1-.833 5.212c-.933 1.558-2.391 2.643-4.107 3.056a6.39 6.39 0 0 1-1.489.177c-.818 0-1.624-.16-2.384-.475l-1.408 2.356zM18.955 22.15l8.274 8.947a1.254 1.254 0 0 1 .138.149l.136.148h17.785l5.526-9.244zm35.389 9.244l8.548-9.244H53.69l-5.526 9.244zm-13.42 14.513l11.053-11.954h-5.342l-6.56 10.975a1.331 1.331 0 0 1-.023.037zM29.87 33.953l8.435 9.123 5.453-9.123zM59.053 6.457a4.115 4.115 0 0 0-3.526 2.034 4.509 4.509 0 0 0-.524 3.283c.248 1.137.897 2.101 1.83 2.716.931.614 2.04.808 3.124.55a4.12 4.12 0 0 0 2.586-1.922c.587-.98.772-2.145.524-3.281-.24-1.105-.86-2.047-1.748-2.663a1.205 1.205 0 0 1-.164-.108 3.954 3.954 0 0 0-2.102-.61z"/><path fill="url(#sgcba)" d="M15.2 21.762a1.333 1.333 0 0 1-.248-1.39c.19-.473.632-.78 1.122-.78h13.588c-.617-7.303-6.474-13.05-13.587-13.05-7.528 0-13.652 6.427-13.652 14.326 0 7.906 6.124 14.338 13.652 14.338 3.154 0 6.162-1.131 8.59-3.209zm50.572-2.17c.49 0 .931.307 1.122.78a1.33 1.33 0 0 1-.249 1.39l-24.504 26.5v32.166h9.503c.674 0 1.22.573 1.22 1.28 0 .707-.546 1.278-1.22 1.278H30.202c-.674 0-1.218-.571-1.218-1.279 0-.706.544-1.279 1.218-1.279h9.502V48.262L26.368 33.84c-2.89 2.54-6.5 3.925-10.293 3.925-8.87 0-16.087-7.578-16.087-16.896 0-9.31 7.217-16.884 16.087-16.884 8.456 0 15.409 6.891 16.032 15.608h20.236l2.222-3.717a6.962 6.962 0 0 1-1.936-3.532 7.152 7.152 0 0 1 .835-5.213c.93-1.557 2.389-2.642 4.106-3.055a6.243 6.243 0 0 1 3.87.297l2.266-3.79c.358-.598 1.109-.779 1.679-.404.57.376.742 1.167.384 1.764l-2.266 3.79a6.955 6.955 0 0 1 1.938 3.534 7.158 7.158 0 0 1-.833 5.212c-.933 1.558-2.391 2.643-4.107 3.056a6.39 6.39 0 0 1-1.489.177c-.818 0-1.624-.16-2.384-.475l-1.408 2.356zM18.955 22.15l8.274 8.947a1.254 1.254 0 0 1 .138.149l.136.148h17.785l5.526-9.244zm35.389 9.244l8.548-9.244H53.69l-5.526 9.244zm-13.42 14.513l11.053-11.954h-5.342l-6.56 10.975a1.331 1.331 0 0 1-.023.037zM29.87 33.953l8.435 9.123 5.453-9.123zM59.053 6.457a4.115 4.115 0 0 0-3.526 2.034 4.509 4.509 0 0 0-.524 3.283c.248 1.137.897 2.101 1.83 2.716.931.614 2.04.808 3.124.55a4.12 4.12 0 0 0 2.586-1.922c.587-.98.772-2.145.524-3.281-.24-1.105-.86-2.047-1.748-2.663a1.205 1.205 0 0 1-.164-.108 3.954 3.954 0 0 0-2.102-.61z"/><path fill="#fff" fill-opacity=".75" d="M-3 86V-3h73v89zm27.665-54.003c-2.428 2.078-5.436 3.21-8.59 3.21-7.528 0-13.652-6.433-13.652-14.34 0-7.898 6.124-14.326 13.652-14.326 7.113 0 12.97 5.748 13.587 13.051H16.074c-.49 0-.932.307-1.122.78a1.333 1.333 0 0 0 .248 1.39zM55.22 19.592l1.408-2.356c.76.315 1.566.475 2.384.475.495 0 .994-.059 1.489-.177 1.716-.413 3.174-1.498 4.107-3.056a7.158 7.158 0 0 0 .833-5.212 6.955 6.955 0 0 0-1.938-3.534l2.266-3.79c.358-.597.186-1.388-.384-1.764-.57-.375-1.321-.194-1.68.403L61.44 4.372a6.243 6.243 0 0 0-3.869-.297c-1.717.413-3.175 1.498-4.106 3.056a7.152 7.152 0 0 0-.835 5.212 6.962 6.962 0 0 0 1.936 3.532l-2.222 3.717H32.107c-.623-8.717-7.576-15.608-16.032-15.608-8.87 0-16.087 7.573-16.087 16.884 0 9.318 7.217 16.896 16.087 16.896 3.792 0 7.402-1.385 10.293-3.925l13.336 14.423v32.166h-9.502c-.674 0-1.218.573-1.218 1.28 0 .707.544 1.278 1.218 1.278h21.442c.674 0 1.22-.571 1.22-1.279 0-.706-.546-1.279-1.22-1.279h-9.503V48.262l24.504-26.5a1.33 1.33 0 0 0 .249-1.39 1.219 1.219 0 0 0-1.122-.78zm-4.406 2.558l-5.526 9.244H27.503l-.136-.148a1.282 1.282 0 0 0-.138-.15l-8.274-8.946zm-2.65 9.244l5.527-9.244h9.2l-8.547 9.244zm-8.112 13.57l.023-.036 6.56-10.975h5.342L40.924 45.907zm3.706-11.01l-5.453 9.122-8.435-9.123zM59.053 6.456c.736 0 1.458.207 2.102.609a1.231 1.231 0 0 0 .164.108c.888.616 1.508 1.558 1.748 2.663a4.493 4.493 0 0 1-.524 3.281 4.12 4.12 0 0 1-2.586 1.922 3.954 3.954 0 0 1-3.124-.55c-.933-.615-1.582-1.579-1.83-2.716a4.509 4.509 0 0 1 .524-3.283 4.115 4.115 0 0 1 3.526-2.034z" filter="url(#sgcbb)" mask="url(&quot;#sgcbc&quot;)"/></g></g></svg>