<svg xmlns="http://www.w3.org/2000/svg" width="33" height="26"><path d="M28.83 20.128H11.44a.512.512 0 01-.49-.367L6.99 7.154v-.007c0-.006-.01-.013-.01-.019L5.35 1.057H.51a.531.531 0 010-1.06h5.23a.511.511 0 01.49.388L7.87 6.46H32.5a.511.511 0 01.41.213.524.524 0 01.08.469l-3.67 12.609a.525.525 0 01-.49.377zm-17.02-1.061h16.64l3.36-11.548H8.18zm1.05 6.928a2.329 2.329 0 112.26-2.328A2.293 2.293 0 0112.86 26zm0-3.6a1.27 1.27 0 101.23 1.269 1.25 1.25 0 00-1.23-1.264zm14.23 3.6a2.33 2.33 0 112.25-2.328A2.295 2.295 0 0127.09 26zm0-3.6a1.27 1.27 0 101.22 1.269 1.25 1.25 0 00-1.22-1.264zm-12.69-2.27a.52.52 0 01-.5-.4L10.8 7.116a.535.535 0 01.37-.644.51.51 0 01.62.383l3.11 12.609a.535.535 0 01-.37.644.569.569 0 01-.13.02zm11.31 0a.457.457 0 01-.13-.017.527.527 0 01-.37-.644l3.1-12.609a.516.516 0 01.63-.383.535.535 0 01.37.644L26.2 19.725a.509.509 0 01-.49.403zm-8.66 0a.528.528 0 01-.51-.459L14.91 7.057a.515.515 0 111.02-.141l1.63 12.608a.526.526 0 01-.44.6.821.821 0 01-.07.004zm6 0h-.07a.534.534 0 01-.44-.6l1.64-12.608a.516.516 0 01.58-.455.533.533 0 01.44.6l-1.64 12.609a.513.513 0 01-.51.457zm-2.74 0a.522.522 0 01-.51-.531V6.989a.51.51 0 111.02 0V19.6a.522.522 0 01-.51.528zm10.82-9.095H8.58a.53.53 0 010-1.06h22.55a.531.531 0 010 1.063zm-1.21 4.517H9.99a.53.53 0 010-1.06h19.93a.531.531 0 010 1.063z" fill="#69002f" fill-rule="evenodd"/></svg>