<svg xmlns="http://www.w3.org/2000/svg" width="177" height="132"><path fill="#20252e" d="M52.847 68.608c-5.89-.644-11.944-.584-17.794.422-5.86 1.008-12.539 2.868-16.503 7.628-1.569 1.885-3.125 4.598-2.182 7.122.953 2.56 3.9 3.61 6.435 3.685 2.442.062 5.271-.577 6.881-2.573a6.66 6.66 0 00.717-1.129c-.742.09-1.484.08-2.194-.191-1.543-.588-3.145-1.946-3.274-3.721-.153-1.989 1.667-3.306 3.553-2.575 1.945.76 3.086 2.687 2.912 4.755-.03.375-.149.71-.244 1.048 1.433-.346 2.755-1.17 3.933-2.121 1.323-1.082 2.762-2.475 4.502-2.808 2.154-.413 4.034.851 5.702 2.073.192.14.01.468-.18.324-2.018-1.473-4.332-2.87-6.769-1.495-1.661.925-2.938 2.352-4.51 3.4-.837.566-1.836 1.029-2.864 1.25-1.387 3.24-5.762 4.534-9.054 4.1-1.963-.257-4.219-1.007-5.331-2.774-.998-1.571-1-3.502-.325-5.212 2.039-5.15 7.621-8.09 12.631-9.61 9.383-2.842 19.944-3.256 29.5-.824a4.96 4.96 0 01.052-1.142c-3.651-.955-7.386-1.648-11.144-1.787-4.862-.165-10.052.112-14.705 1.623-4.626 1.498-8.909 4.283-13.771 4.967-2.292.32-4.605.332-6.916.186-2.021-.132-4.093-.279-6.019-.933-1.938-.651-3.963-1.77-4.854-3.713-.895-1.94-.894-4.475.277-6.317 1.656-2.585 4.945-3.64 8.045-3.512.242-1.483 1.097-2.964 2.088-4.068 1.025-1.144 2.297-2.205 3.763-2.727.542-.194 1.077-.219 1.595-.169.651-1.563 3.56-1.819 4.953-2.01 1.614-.222 3.296-.36 4.845-.898.638-.23 1.362-.527 1.784-1.09.629-.829.684-2.13.563-3.184a4.72 4.72 0 01-.153-.3c-.055-.116-.017-.268.117-.295a7.96 7.96 0 001.072-.363c-.575-.257-1.04-.838-1.495-1.294-.135-.133-.052-.423.16-.405.175.015.335.007.488-.02-.644-.288-1.146-1.031-1.613-1.51-.153-.153-.001-.37.196-.345l.611-.118c-.53-.41-1.044-.766-1.657-.916-.319.076-.65.07-1.007-.067-.236-.091-.213-.411.047-.44.344-.035.658-.015.952.047.773-.233 1.342-1.095 2.214-1.139a4.85 4.85 0 012.16.376c.005-.079.065-.152.154-.15 1.11-.01 2.096.054 2.939.666-.056-.194-.118-.387-.17-.584-.042-.173.11-.299.267-.273.744.111 1.39.738 1.993 1.145.33.216.709.514 1.104.593.817.148.667-.958.296-1.336-.713-.74-2.905-1.638-1.727-2.883.183-.191.462.018.419.22.394.222.814.27 1.262.27-.666-.721-.988-1.507-.902-2.542.025-.244.299-.305.44-.124.163.08.323.161.482.242-.177-.526-.174-1.063-.18-1.66 0-.254.333-.34.454-.13.05.079.098.152.148.22-.038-.378-.002-.775.02-1.128.089-1.398-.384-2.184-1.451-2.916a.207.207 0 01-.146-.098 8.169 8.169 0 00-.127-.08c-.152-.098-.1-.317.074-.331.05-.003.1-.003.15 0a.23.23 0 01.126-.03c.872.046 1.727.037 2.558.348.597.222.982.85 1.358 1.403.006-.091.014-.186.02-.288.01-.184.202-.263.342-.147.518.45.815 1.07 1.245 1.584-.052-.46-.04-.99.43-.875.744.181 1.227.835 1.53 1.56.003-.049.006-.098.011-.148.016-.175.238-.33.39-.163a3.856 3.856 0 011.028 2.61c.32-.255.576-.545.699-.996.065-.236.433-.258.49 0 .23.947.265 1.967-.077 2.904-.338.921-1.021 1.525-.843 2.515 1.385 1.038 2.336-1.84 3.024-2.703.927-1.141 2.143-2.066 3.683-1.783.17.028.217.254.108.365-.549.564-.776 1.054-.836 1.762 1.062-.786 2.299-1.325 3.259-2.253.104-.094.252-.019.265.118.109.883-.153 1.54-.751 1.985.988-.246 1.864-.923 2.92-.847.13.016.218.136.154.263-.177.34-.398.615-.645.874.849-.464 1.954-1.147 2.475-.653.473.443-.53 1.217-1.062 1.577 1.324.412 4.062.025 4.626-1.354.041-.172.05-.354.023-.55-.046-.305.375-.365.426-.052a1.9 1.9 0 01.017.345c.106.615-.257 1.28-.59 1.772-.579.86-1.47 1.465-2.387 1.955.64-.028 1.282-.105 1.929-.116.163-.006.244.206.141.325-.934 1.008-2.153 1.413-3.318 2.012.988-.086 1.983.008 2.969-.179.158-.033.267.145.154.268-1.087 1.292-2.522 1.743-4.069 2.277-.724.25-2.825 1.247-3.204 2.193.23.431.499.772 1.076.807.53.032 1.05-.026 1.578-.074.795-.063 1.753-.162 2.285.558.053.08.037.22-.035.288a3.456 3.456 0 01-.039.033c1.16.228 1.923 1.035 2.878 1.975.164.159.057.49-.183.47a3.723 3.723 0 00-.365-.004c.683.551 1.28 1.356 1.739 1.823.215.213.008.527-.267.483-.36-.063-.723-.049-1.084-.04 1.563 1.092 2.876 2.907 2.8 4.741-.005.057-.088.059-.085.006-.112-1.993-2.043-4.007-3.856-4.838a1.91 1.91 0 01-.433-.18c-.303-.17-.053-.573.255-.45.08.032.162.066.243.103.49.162 1.037.09 1.574.069-.506-.597-1.158-1.377-1.816-1.648-.3.02-.599.02-.899-.042-.29-.063-.254-.456-.004-.54a1.481 1.481 0 011.028.03c.171-.014.344-.033.516-.047-.894-.894-1.668-1.584-3.13-1.471-.313.029-.315-.455-.004-.485l.089-.007c1.236-.114.03-.395-.344-.374-.327.016-.65.058-.974.105-.531.076-1.069.159-1.613.123a1.721 1.721 0 01-.906-.3c-.433-.113-.791-.378-.808-.924-.027-.905.617-1.608 1.285-2.143.843-.667 1.989-.886 3.012-1.106 1.176-.265 2.25-.588 3.177-1.33-1.054.044-2.103-.066-3.148.158-.142.027-.219-.146-.104-.22 1.148-.712 2.407-1.112 3.394-2.023-.763.065-1.52.16-2.295.107-.183-.012-.309-.288-.104-.39 1.133-.534 2.344-1.21 3.035-2.212-.697.543-1.66.89-2.376 1.131-2.282.747-4.638 1.262-6.891 2.105-1.35.505-2.705 1.1-3.844 1.984-1.21.934-2.132 2.137-3.081 3.31-.94 1.179-1.945 2.364-2.652 3.687-.442.823-.807 1.677-1.23 2.505-.074.353-.146.71-.212 1.07l.059-.038c1.837-3.751 6.008-5.112 10.045-4.674 2.109.222 4.172.737 5.94 1.952 2.025 1.392 3.568 3.249 5.36 4.896.016.008-.003.027-.014.016-1.675-1.51-3.302-3.225-5.173-4.494-1.675-1.141-3.519-1.783-5.53-2.028-3.941-.483-8.096.505-10.095 4.046 1.396-.62 3.173-.51 4.537-.028 1.584.556 3.007 1.755 3.845 3.2.509.88.977 1.976 1.218 3.09a.343.343 0 01.45-.113c.579.334 1.165.577 1.497 1.104.798-1.002-.531-2.328-1.132-3.186-.185-.261.238-.504.422-.25l.097.135c1.215.963 2.972.556 3.655 2.127.439-.49-.29-1.082-.504-1.48-.107-.186.056-.39.26-.352 1.02.19 2.102.567 2.612 1.477.26-.524.178-.949-.334-1.505a.228.228 0 01.156-.383c1-.085 1.499.563 2.18 1.18.289-.242.326-.484.128-.738-.038-.051-.068-.104-.103-.158-.104-.165-.234-.325-.327-.498-.167-.28-.307-.55-.365-.872-.04-.202.133-.33.312-.248.719.306 1.626.178 2.29.596.728.46 1.23 1.103 1.78 1.744.014.013-.007.036-.023.022-.712-.645-1.443-1.5-2.459-1.644-.458-.068-.894-.092-1.329-.193.409.82 1.309 1.778.232 2.39-.064.033-.148.029-.195-.023-.443-.482-.958-1.025-1.62-1.123.539.7.428 1.344-.19 2.177-.12.16-.378.056-.425-.106-.25-.898-1.062-1.276-1.89-1.502.402.64.762 1.196-.174 1.723-.106.058-.254.008-.285-.115-.343-1.389-1.734-1.399-2.88-1.807.76 1.072 1.398 2.263.227 3.36-.188.175-.438.09-.525-.134-.129-.334-.422-.554-.74-.737.196.844.366 1.817-.101 2.505-.627.926-1.592 1.547-2.646 1.894a.042.042 0 01-.032-.002 2.557 2.557 0 01-.167.161c-.01.01-.025-.004-.016-.014.056-.063.108-.128.157-.193 0-.013.007-.024.02-.03.063-.087.118-.176.167-.267l-.044.021c-.012.008-.023-.013-.012-.017l.07-.031c.713-1.376-.039-3.179-1.1-4.271-.182.682-.798 1.21-1.449 1.473-.198.08-.317-.167-.25-.318.146-.332.106-.719-.007-1.082-.37.518-1.31.575-2.025.575-.219.003-.32-.314-.115-.419.621-.324.727-.885.606-1.46-.458.571-1.16.647-1.947.581-.207-.02-.207-.299-.007-.318l.425-.435c-.388.061-.792-.055-1.205-.278a.2.2 0 01-.047-.32c.556-.61 1.698-1.687 1.4-2.625-.207-.677-.841-1.242-1.575-1.233-.353.009-1.048.136-1.276.483-.244 1.94-.158 3.904.962 5.614 1.537 2.35 4.15 3.898 6.806 4.68 2.746.805 5.68.847 8.48 1.444 1.301.279 2.625.58 3.754 1.322.12.075.225.162.33.25.952-.44 1.909-1.531 2.713-1.85 1.584-.641 3.31-.418 4.973-.227-.497-.608-1.064-1.362-1.719-1.706a2.5 2.5 0 01-.712-.216c-.216-.105-.128-.497.127-.475.247.024.48.094.698.199 1.136.153 2.253-.716 3.362-.919 1.286-.23 2.536-.1 3.797.112a8.249 8.249 0 00-.654-.675c-.134-.132-.085-.412.118-.449 1.17-.185 2.234-.491 3.42-.259.543.1 2.714.273 2.054-.858-.371-.638-.958-1.116-1.52-1.579a19.878 19.878 0 01-2.083-1.954c-1.992-2.14-3.563-4.495-4.905-7.095-.948-1.84-1.748-4.019-1.25-6.109.038-.16.159-.221.279-.213a4.207 4.207 0 01-.012-.056c-.039-.25.348-.356.393-.106.082.52.266 1.034.438 1.531l.039.112c-.127-.577-.18-1.179-.223-1.486-.236-1.59.213-3.036.404-4.607.034-.292.458-.22.502.037 1.308.844 1.076 3.399 1.245 4.771.043-1.805-.123-3.548-.353-5.336a13.951 13.951 0 01-.081-2.694c.034-.626.44-1.148.57-1.763a.208.208 0 01.026-.156c.004-.036.008-.072.01-.109.018-.372.603-.372.57-.004a2.283 2.283 0 01-.063.362c.394.875.83 1.72 1.136 2.615a15.152 15.152 0 01.078-2.282c.14-1.278.784-2.428.9-3.704.019-.198.313-.346.416-.118.223.495.459.969.766 1.402.005-1.569.123-3.298 1.012-4.604.732-1.078 2.676-2.242 2.63-3.678a17.821 17.821 0 01-.035-.28c-.03-.286.438-.35.493-.074a2.291 2.291 0 01.013.067v.01c.015.09.024.178.027.264.108.99.304 1.985.63 2.933.248-1.844.636-3.695 1.671-5.28.686-1.036 1.528-2.43 1.83-3.639.168-.688.149-1.533.648-2.08l-.358-.334c-.158-.141.068-.36.22-.226.712.68 1.487 1.271 2.121 2.035.383.465.662 1.059.949 1.592.378.692.814 1.433.992 2.22.233-.978-.187-2.008-.047-3.052.025-.184.284-.234.403-.115 1.398 1.407 2.777 3.794 2.864 5.98.082-.278.122-.574.102-.906-.034-.492-.053-.96.03-1.444.044-.249.347-.223.473-.065 1.18 1.511 2.282 3.242 2.641 5.145.058.307.136.684.198 1.087.1-.654.078-1.34.159-1.99.024-.19.292-.294.442-.192 3.476 2.365 1.198 7.068.485 10.268-.501 2.243-1.258 4.91-.932 7.212.265 1.949 2.598 3.953 4.388 2.37.006-.008.017-.007.02-.002.252-.35.382-.749.508-1.236a8.192 8.192 0 00-.156-4.646c-.465-1.418-1.005-2.879-.991-4.398.005-1 .269-1.909.628-2.814a1.68 1.68 0 01.257-.614c.205-.305.625-.057.49.267-.084.207-.16.411-.228.614-.07.845.697 1.783 1.237 2.564.171-1.44.073-2.928.433-4.335.384-1.508 1.201-2.814 2.29-3.923a7 7 0 01.597-1.394c1.036-1.814 2.813-2.803 4.173-4.33.19-.214.485.05.382.28-.398.895-.293 1.721.03 2.556.683-3.597 2.891-6.325 5.675-8.689.158-.123.401-.052.411.168.035 1.466-1.079 2.667-1.147 4.068 1.317-3.468 3.182-6.788 7.052-7.747.141-.029.328.07.313.234-.037.353-.138.68-.272.993.681-.867 1.551-1.575 2.588-1.993 1.24-.493 2.583-.449 3.847-.833 1.134-.34 1.905-1.293 3.023-1.673.15-.052.328.116.271.267-.565 1.565-1.77 2.383-2.88 3.453 2.264-1.28 3.89-3.533 5.435-5.56.155-.209.45-.024.464.184.097 1.136-.249 2.275-.844 3.255 1.35-1.126 2.854-2.034 4.324-3.027 1.384-.937 3.778-2.485 3.235-4.47a.26.26 0 01.04-.24c-.019-.2.234-.396.41-.207.654.74.888 1.718 1.467 2.5.625.833 1.356 1.558 1.859 2.48.71 1.265 1.1 2.674 1.39 4.09.261 1.287.666 3.163.46 4.767.284-.212.561-.417.79-.631.16-.152.437-.057.443.17-.002 1.89.14 3.897-.394 5.727-.311 1.06-1.844 1.86-2.111 2.91.273-.245.6-.361.972-.494.886-.324 1.616-1.096 1.671-2.079.025-.444.691-.461.7-.004.012.868-.086 1.702-.218 2.56-.141.864-.141 1.809-.397 2.652a4.569 4.569 0 01-1.26 2.033c.472-.188.929-.412 1.27-.754.47-.465.872-.98 1.309-1.469.132-.142.33-.052.392.097.636 1.582.083 3.635-.34 5.202-.24.906-.403 1.84-.857 2.683-.38.702-.864 1.276-1.406 1.844.925-.518 1.73-1.42 2.13-2.39.09-.222.47-.172.515.063.493 2.433-.051 5.114-1.398 7.236.937-.26 2.009-.356 2.75-1.019.068-.06.185-.042.216.055 1.283 4.602-.917 8.753-4.465 11.58-.869.692-1.82 1.336-2.842 1.791-.976.437-2.05.712-2.98 1.24-.258.146-2.24 1.523-2.378 2.397a.43.43 0 01.216.164c1.048 1.506 3.575-.492 4.484-1.325.867-.804 1.524-2.025 2.594-2.572 1.058-.548 2.368-.245 3.357-.907.23-.146.45.175.285.368-.404.456-.698.976-.97 1.512 1.308-.995 2.677-1.98 4.319-2.28.87-.163 1.813-.296 2.695-.174.448.065.923.18 1.393.227.381-.218.81-.29 1.29-.12.185.062.18.282.006.35-.388.155-.795.168-1.202.126-.735.438-1.3 1.503-1.706 2.271 1.421-.682 2.792-1.423 4.365-1.724 1.35-.263 2.456.077 3.744.267a.876.876 0 01.305.041c.286.09.181.483-.105.437a5.784 5.784 0 01-.116-.019c-.633-.022-1.435 1.17-2.02 2.04.808-.242 1.683-.326 2.502-.312.698.02 1.38.13 2.056.286.531.123 1.078.538 1.637.353.27-.083.463.273.273.467-.486.501-.94.987-1.476 1.357 1.293-.023 2.588.053 3.846.36.922.22 2.055.872 3.082.863.237-.123.456-.268.625-.455.244-.282.64.12.41.401-.864 1.053-2.571.968-3.49 1.974-.676.735-1.083 1.668-1.788 2.38-.497.5-.996.996-1.493 1.494.942-.024 1.844-.127 2.735.298.23.118.16.441-.057.504-2.182.68-3.204 3.374-5.147 4.336.498.012.996-.004 1.498-.085.188-.031.37.11.321.315-.234 1.043-.916 1.888-1.67 2.627-.823.803-1.665 1.655-2.554 2.38-.918.743-1.969 1.403-3.101 1.685.858.227 1.701.545 2.582.697.081.022.096.125.048.187-2.13 2.52-5.274 4.128-8.548 4.53-1.525.185-3.162-.258-4.653.08a3.44 3.44 0 00-1.138.497c-.172.263-.425.582-.324.897.124.385.38.712.684.983.564.514 1.684 1.3 2.496.903v.003l.073-.03c.309-.13.523.391.23.536-.054.027-.11.05-.166.071-.874.38-1.537 1.04-2.43 1.267 1.87 1.74 4.47 2.805 7.03 2.42l.054-.053c.08-.077.18-.057.241.002l.041-.008c.159-.033.23.197.07.25l-.151.044c-.082.083-.165.166-.25.248l.176-.045c.018-.004.025.025.01.03l-.238.065c-3.034 2.895-7.742 4.58-11.93 4.095.59.655 1.204 1.348 2.039 1.618.68.223 1.322.415 1.822.957.089.101.115.27.01.368-1.23 1.087-3.156.786-4.636.618-1.889-.212-3.844-.224-5.707-.605.18 1.13.448 2.631 1.81 2.727.22.017.217.31.004.33-1.13.13-2.225.278-3.32-.13-.48-.183-.89-.584-1.36-.816-.713-.356-1.438-.487-2.228-.56-1.57-.16-3.466-.288-4.39-1.627-.064.728.11 1.439.273 2.176.047.21-.168.395-.368.29-2.45-1.312-5.768-2.323-6.396-5.332-.368.25-.761.434-1.154.664-.583.35-.815.853-1.26 1.292-.652.628-1.549.648-2.388.412-1.471-.425-2.097-2.148-1.923-3.575-.612.359-1.308.517-1.944.865l.114.046c.006-.002.003.022-.006.011a4.392 4.392 0 01-.124-.048 3.63 3.63 0 00-.135.078c-.234.145-.434-.115-.357-.319-2.712-1.612.29-5.527 1.798-7.25.536-.607 1.091-1.181 1.647-1.765 1.164-1.224 3.187-2.483 2.613-4.461-.454-1.6-1.787-2.679-3.387-3.075-1.553-.384-2.998-.008-4.262.875a5.46 5.46 0 00-.162.187c-.052.063-.116.078-.175.063l-.061.05a.138.138 0 01-.147.023c-.423.516-1.172.783-1.813.825a3.13 3.13 0 01-.614-.032c.439.92.605 1.975.386 2.895-.051.219-.35.166-.364-.042-.202-2.45-1.404-4.526-4.106-4.494-1.192.018-2.599.325-3.253 1.45-.517.9-.583 1.907-.554 2.923.056 2.321.517 4.656.298 6.977-.187 2.015-.997 3.432-2.525 4.693a1.17 1.17 0 01-.093.217c-.078.144-.29.027-.222-.128.124-.301.035-.746-.009-1.054-.058-.373-.11-.745-.184-1.112-.01-.054-.062-.208-.108-.382-.7 1.766-2.27 3.177-3.784 4.229-1.144.797-2.978 2.116-4.487 1.787-.18-.035-.197-.248-.107-.38.32-.428.598-.873.864-1.328-1.922 1.317-4.954 1.805-6.858.857-.085-.035-.129-.17-.07-.25.311-.445.625-.89.955-1.322-2.359.953-5.107.302-7.51-.339-.16-.047-.191-.269-.051-.352 1.03-.616 1.84-1.473 2.656-2.338-1.099.096-2.251-.42-3.365-.36-1.303.074-2.392-.385-3.343-1.267-.105-.102-.07-.26.042-.34.184-.122.362-.263.541-.402-.991-.107-1.977-.738-2.748-1.315a28.12 28.12 0 01-1.415-1.13c-.817 1.387-1.466 2.87-2.003 4.4-1.798 5.13-3.067 10.55-2.82 16.026.12 2.71.588 5.363 1.484 7.93 1.045 2.99 3.019 5.384 5.038 7.768 1.926 2.281 3.894 4.771 6.462 6.378a17.817 17.817 0 006.493 2.425c2.478.416 5.144.448 7.563-.33 2.234-.714 3.98-2.068 5.393-3.929 2.319-3.063 4.025-7.67 2.377-11.407-2.183 1.615-4.748 2.661-7.634 2.77-1.976.079-4.532-.109-5.903-1.77-1.107-1.341-1.372-2.847-.378-4.323 2.353-3.502 7.668-2.915 10.752-.88 1.523 1.003 2.58 2.319 3.293 3.776 3.02-2.4 5.113-6.012 6.13-9.697.539-1.953.824-4.127.15-6.083-.328-.96-.918-1.823-1.631-2.578-1.402.782-3.079 1.272-4.588.888-1.41-.362-3.564-2.415-1.32-3.368 1.756-.743 3.734.295 5.112 1.38.257.197.486.43.716.656.25-.14.513-.25.743-.416.82-.581 2.042-1.637 1.917-2.774-.189-1.675-3.054-1.738-2.992-3.374.047-1.47 1.545-2.475 2.451-3.444.015-.017.03.001.02.021-.623.824-1.459 1.57-1.933 2.5-.763 1.51.757 1.99 1.78 2.71 1.697 1.198.925 3.096-.456 4.238-.36.3-.77.585-1.207.845.902.989 1.57 2.18 1.83 3.514.734 3.697-.779 7.574-2.61 10.734-1.038 1.794-2.43 3.255-3.988 4.463.843 1.85 1.078 3.956.523 6.178-.931 3.725-3.425 7.781-7.067 9.37-4.108 1.787-9.033 1.38-13.104-.319-2.393-1.008-4.38-2.513-6.154-4.408-2.032-2.163-4.08-4.464-5.787-6.897-3.142-4.48-4.153-10.093-3.861-15.497.295-5.415 1.635-11.108 3.969-16.018.279-.59.58-1.172.909-1.742-1.356-1.18-2.622-2.454-3.936-3.697-.126-.117-.112-.378.059-.458a3.95 3.95 0 01.917-.31c-2.14-1.44-3.653-3.659-4.78-5.97-.104-.22.064-.55.344-.457.4.144.767.377 1.133.614-1.302-1.202-2.989-2.101-4.186-3.387-.551-.592-.994-1.241-1.136-2.04-1.838-.47-3.7-.855-5.58-1.061zm59.299 8.36l.084-.077a.21.21 0 01.05-.134 5.87 5.87 0 011.155-1.054c.236-.362.443-.74.639-1.126a.091.091 0 01.045-.09c.485-.965.903-1.967 1.524-2.853.988-1.404 2.388-2.292 3.877-3.109 1.602-.875 3.302-1.784 5.048-2.328 1.755-.553 3.559-.885 5.383-1.08 1.967-.223 3.933-.281 5.892-.533 1.986-.252 3.947-.662 5.933-.922 2.564-.345 5.148-.161 7.725-.18 2.105-.108 4.14-.682 6.14.32 3.115 1.545 6.449 2.768 9.98 2.37.031-.008.038.046.004.057-3.172.59-6.02-.143-8.926-1.378-.793-.329-1.546-.933-2.369-1.15a8.618 8.618 0 00-1.933-.232c-3.29.48-6.624.098-9.922.477-1.844.213-3.668.618-5.513.876-.007 0-.014.002-.02.003 3.3.48 6.193 2.635 9.13 4.206 2.38 1.275 4.867 2.522 7.478 3.244 1.41.38 2.749.353 4.197.339 1.153-.016 2.397.11 3.498-.284.092-.036.142.107.067.158-.883.535-1.95.288-2.92.365-1.237.1-2.68.262-3.894-.006-2.608-.58-5.01-1.673-7.44-2.728-3.837-1.663-7.422-4.473-11.63-5.117-1.336.135-2.677.223-4.024.351-2.027.189-4.083.429-6.048 1.01-1.842.544-3.627 1.403-5.313 2.33l-.15.083c.398-.128.804-.22 1.207-.264 1.516-.174 2.846.396 4.299.727 3.27.743 6.679.329 9.96 1.044.047.013.037.091-.01.085-3.137-.344-6.305-.035-9.437-.37-1.433-.157-2.807-.964-4.249-.937-1.057.02-2.157.2-3.177.55-1.113.723-2.105 1.562-2.876 2.726-.44.667-.842 1.356-1.26 2.035.818-.363 1.84-.389 2.7-.427 1.32-.06 2.682-.108 3.998 0 2.384.176 4.659.903 6.77 1.987.87-.076 1.824.386 2.71.43.838.043 1.68.021 2.499-.153 1.146-.248 2.2-.665 3.258-1.163 1.315-.618 2.49-1.502 3.865-1.992 1.392-.494 2.806-.668 4.258-.367.021.003.016.034-.003.024-3.446-.413-5.916 1.897-8.846 3.21-1.083.488-2.22.862-3.417.967-.723.06-1.753.112-2.686-.026 1.894 1.172 3.691 2.51 5.43 3.914a.14.14 0 01.13-.036c1.624.37 3.204.83 4.882.446 1.561-.362 2.822-1.196 4.208-1.938 2.563-1.38 5.918-1.667 8.675-.682.019.006.011.032-.01.03-1.82-.58-3.66-.482-5.518-.162-1.886.323-3.228 1.394-4.855 2.285-1.983 1.089-4.566 1.663-6.69.729.26.215.52.431.778.648 2.67 2.243 5.329 5.26 8.719 6.377.015.009.01.04-.005.032-2.868-.864-5.219-3.117-7.438-5.025-2.468-2.107-4.992-4.206-7.73-5.95-.47-.3-.95-.59-1.44-.869a2.518 2.518 0 01-.854-.466c-1.986-1.036-4.11-1.81-6.353-1.986-1.239-.094-2.503-.093-3.745-.053-1.118.036-2.377.025-3.418.504a.104.104 0 01-.056.01c-.207.33-.42.656-.645.974 2.376-1.586 5.665-1.306 8.4-.902 4.42.657 8.12 3.156 11.516 5.927 1.84 1.506 3.548 3.173 5.405 4.658 1.787 1.434 3.908 2.465 6.085 3.14 3.96 1.242 8.198 1.513 12.254.645.105-.087.21-.175.311-.264-2.759.482-5.492-.804-7.421-2.813-.173-.175-.058-.491.195-.49.705-.008 1.28-.368 1.856-.74-.833-.193-1.668-.752-2.176-1.26a2.786 2.786 0 01-.561-.861.81.81 0 01-.208-.478c-.007-.101 0-.202.018-.301-.01-.34.102-.633.407-.785.185-.21.412-.385.643-.502 1.61-.831 3.484-.32 5.219-.408 2.42-.125 4.897-.745 6.906-2.161.605-.422 1.189-.886 1.702-1.43.503-.526-.371-.478-.794-.598-.618-.182-1.229-.38-1.854-.492-.478.057-.969.04-1.468-.07h-.001a4.175 4.175 0 01-.03-.006c-.167-.032-.124-.26.031-.28a5.141 5.141 0 011.295.068c1.576-.16 3.055-1.17 4.145-2.285 1.152-1.183 2.847-2.35 3.372-4-1.003.086-1.991-.043-3-.13l-.026-.003c-.27-.022-.286-.454-.003-.435l.058.004h.004l.307.02c2.512.03 3.72-3.294 5.811-4.492-.77-.21-1.579-.109-2.386-.16-.17-.02-.277-.21-.15-.346.67-.702 1.425-1.376 2.023-2.135.522-.659.883-1.59 1.507-2.17.403-.367.856-.64 1.336-.878-.67.173-1.336.373-2.01.514-1.456.304-2.899.71-4.322 1.136-2.638.8-5.263 1.657-7.998 2.034-5.619.775-11.329.746-16.97 1.28-3.063.29-6.12.634-9.161 1.123-2.756.443-5.528.742-8.25 1.36-2.903.667-6.035 1.49-8.36 3.435-2.26 1.889-3.738 4.493-5.038 7.09h-.001l-.014.28c-.007.106-.177.112-.176.008.016-2.11.222-4.195.496-6.285.269-2.068.44-4.068 1.16-6.05.93-2.577 1.771-5.295 3.033-7.73 1.455-2.802 3.205-5.432 4.761-8.175 1.561-2.76 3.228-5.449 5.134-7.995 2.022-2.697 4.368-5.158 6.35-7.884 3.673-5.038 6.795-10.507 9.656-16.038.777-1.494 1.582-3.122 2.137-4.804-.34.93-.731 1.843-1.164 2.738-1.265 2.613-2.735 5.117-4.249 7.596-1.538 2.514-3 5.008-4.939 7.241-2.155 2.492-4.425 4.868-6.076 7.744-.816 1.419-1.587 2.875-2.508 4.238-.798 1.17-1.73 2.2-2.68 3.267-4.32 4.833-7.28 10.7-9.558 16.748-1.012 2.693-1.677 5.349-1.83 8.225-.138 2.64-.39 5.459.01 8.09.163-.076.314-.171.444-.29-.033-.044-.037-.107.02-.16zm-.776-5.74c.089-2.601.25-5.13 1.014-7.633.664-2.174 1.53-4.28 2.454-6.355a.072.072 0 01-.022-.026c-.197-.506-.076-.984.015-1.508.155-.905.066-1.858-.177-2.74-.424-1.552-1.06-3.039-1.528-4.582-.989-3.312-1.975-6.632-2.954-9.959-.84-2.862-.751-5.994-.627-8.937.08-1.998.54-4.16 1.808-5.756.063-.083.201-.003.168.092-.376 1.071-1.065 1.992-1.371 3.108-.321 1.143-.342 2.295-.401 3.48-.15 3.151.09 6.439 1.207 9.412a231.793 231.793 0 013.318 9.437c.448 1.378.993 2.796 1.106 4.26.085 1.154-.12 2.21-.365 3.322.196-.437.394-.872.593-1.306 1.301-2.84 2.72-5.652 4.558-8.183.727-.999 1.531-1.928 2.34-2.852a24.673 24.673 0 001.558-2.369c.775-1.352.715-3.053.347-4.54-.42-1.71-1.05-3.372-1.555-5.061-.452-1.52-.673-3.144-.768-4.726-.2-3.409-.045-6.771.673-10.117.31-1.448.72-2.888 1.277-4.263.527-1.287 1.135-2.751 2.216-3.684.066-.062.2.016.137.099-2.03 2.728-3.058 5.905-3.62 9.237-.609 3.632-.785 7.39.029 11 .732 3.277 2.836 6.457 2.473 9.908a5.858 5.858 0 01-.582 1.935c.491-.628.956-1.28 1.374-1.97 1.596-2.64 2.985-5.305 4.996-7.676.898-1.062 1.818-2.098 2.712-3.153.971-1.389 1.812-2.9 2.184-4.461.566-2.35-.028-4.946.035-7.347.06-2.203.24-4.448.81-6.586.387-1.452.948-3.179 1.968-4.398-1.331.782-2.664 1.582-3.718 2.654a6.85 6.85 0 01-.468.518c-.115.118-.295-.06-.182-.18.851-.996 1.454-2.307 1.518-3.631-1.697 2.059-3.476 4.226-5.999 5.253-.127.056-.203-.127-.127-.223 1.041-1.178 2.32-2.053 3.003-3.47-.77.426-1.38 1.122-2.224 1.388-1.052.328-2.139.416-3.214.641-2.497.529-4.24 2.656-4.89 5.031-.049.167-.27.128-.281-.032-.145-1.488.948-2.468 1.234-3.82-3.675 1.089-5.464 4.535-6.792 7.908-.043.11-.24.085-.263-.027-.25-1.536.682-2.8.871-4.236-2.662 2.307-4.882 5.04-5.287 8.675-.022.176-.27.301-.375.107-.455-.891-.73-1.748-.62-2.651-1.17 1.07-2.618 1.848-3.437 3.263a8.55 8.55 0 00-.676 1.454.194.194 0 01.01.202c-.062.118-.122.235-.178.35-.237.91-.277 1.86-.005 2.787.041.168-.184.256-.274.115-.504-.77-.558-1.484-.373-2.217-.741 1.035-1.306 2.207-1.47 3.471-.183 1.437-.138 2.91-.407 4.346-.038.217-.368.266-.462.072-.354-.687-1.068-1.494-1.454-2.33-.264 1.343-.165 2.662.334 4.096.585 1.676 1.166 3.265.975 5.085-.145 1.423-.542 2.706-1.914 3.372-.444.215-.972.384-1.47.382-.617.046-1.283-.143-1.928-.538-1.924-1.187-2.025-3.299-1.813-5.355.284-2.716.975-5.347 1.787-7.952.678-2.124 1.633-4.587-.08-6.333-.09.728-.117 1.461-.317 2.174a2.24 2.24 0 01-.26.569c-.035.63-.208 1.207-.658 1.568-.16.136-.413.07-.418-.168-.034-.656.319-1.143.629-1.706l.004-.008c.02-.962-.261-2.072-.41-2.698-.305-1.354-1.213-2.71-2.092-3.846.012.538.1 1.077-.016 1.614-.134.624-.45 1.079-.784 1.612-.154.244-.58.107-.495-.192.288-.935.2-1.99-.11-3.024.037.59.019 1.198.032 1.785.02.783.046 1.624-.184 2.392-.462 1.603-1.772 2.93-2.772 4.229a21.993 21.993 0 00-2.216 3.501c-.504.982-1.059 1.997-1.353 3.076.042.451.1.902.185 1.353 1.142 6.074 4.283 11.38 7.954 16.286-.653-1.725-.313-3.923-.175-5.631.302-3.631.009-7.143-1.533-10.5-.008-.02.017-.03.02-.014 1.812 3.036 2.517 6.189 2.12 9.7-.151 1.32-.413 2.657-.418 3.992-.007 1.349.35 2.39.875 3.594a.109.109 0 01.009.039c1.376 1.778 2.807 3.507 4.22 5.204 1.91 2.286 3.86 4.565 5.654 6.953-1.234-2.27-2.044-4.709-1.979-7.393.044-1.627.193-3.242.211-4.863.016-1.394-.024-2.815-.391-4.166-.336-1.228-.923-2.159-1.625-3.196-.063-.102.075-.255.177-.182 1.763 1.272 2.138 4.01 2.282 6.009.14 1.912.032 3.823.02 5.732-.02 3.618 1.198 6.972 2.814 10.154l.24.354c1.802 2.681 3.344 5.558 3.736 8.806.197-.046.392-.107.574-.191a38.679 38.679 0 01-.3-6.196zM91.172 16.775c-.008 1.221.49 2.323-.38 3.437-.11.145-.403.036-.376-.152.134-1.172-.534-2.363-1.107-3.345-.598-1.037-1.345-1.776-2.17-2.544-.107.13-.188.285-.252.453.604 3.01.436 6.117.135 9.156-.274 2.778-.564 5.507-.592 8.224.115.872.15 1.749.21 2.626.46-1.966 1.64-3.86 2.735-5.412.94-1.328 2.265-2.542 2.961-4.005.856-1.784.06-3.697.617-5.494l.002-.004a10.656 10.656 0 00-1.783-2.94zm4.098 38.007c3.048 3.825 6.359 7.422 9.328 11.306 1.469 1.907 2.87 3.895 4.043 6 .98 1.773 1.586 3.642 2.04 5.602a5.13 5.13 0 00.387-.07 15.38 15.38 0 00-1.178-3.722c-3.312-7.254-9.302-12.941-14.155-19.155-2.674-3.434-5.214-7.045-7.008-11.026a37.131 37.131 0 01-.816-1.957c1.619 4.774 4.207 9.08 7.359 13.022zm-8.855-38.087a20.592 20.592 0 01-1.66 3.14c-1.176 1.828-1.528 3.77-1.737 5.902-.012.173-.285.308-.382.103a12.68 12.68 0 01-.856-2.674c-.372.68-1.022 1.252-1.574 1.789-1.665 1.64-1.843 3.7-1.824 5.935 0 .185-.24.309-.373.158-.376-.404-.665-.86-.92-1.342-.24 1.118-.713 2.168-.79 3.325-.082 1.22-.058 2.443.017 3.66.019.265-.375.261-.4.003-.049-.42-.088-.848-.114-1.28-.391-.838-.986-1.567-1.396-2.387-.182.43-.386.854-.423 1.328-.048.777-.091 1.588.017 2.367.253 1.831.08 3.619-.018 5.45l.004.029c0 .02-.023.031-.028.009-.194-.819-.242-1.658-.427-2.475a4.783 4.783 0 00-.813-1.855c-.092 1.175-.63 2.313-.562 3.538.06.875-.048 2.673.715 3.283.02.017-.002.058-.028.048a.588.588 0 01-.095-.04c.064.047.132.08.206.094.01.007.008.03-.008.03-.468-.026-.821-.762-1.006-1.097a9.066 9.066 0 01-.588-1.275c-.573 1.44-.068 3.02.484 4.407.613 1.524 1.512 2.948 2.503 4.256 1.612 2.15 3.516 3.876 5.599 5.546.83.658 2.634 2.237 1.484 3.399-.593.587-1.455.717-2.237.465-.656-.22-1.273-.442-1.979-.372-.474.05-.938.135-1.405.21.271.29.527.59.75.924.13.2-.083.42-.283.378-1.082-.203-2.162-.378-3.23-.33 1.978.099 3.873.75 5.646 1.616 2.248 1.088 4.562 2.092 6.69 3.385 2.862 1.747 5.677 4.286 9.026 4.834 1.83-.15 3.666-.185 5.467-.03a19 19 0 012.602.26c3.63.631 6.84 2.424 8.09 5.942-.71-2.34-2.128-4.614-3.42-6.642a67.588 67.588 0 00-3.03-4.352c-.934-.768-1.856-1.345-3.117-1.62-1.152-.258-2.32-.454-3.48-.657-2.268-.404-4.546-.883-6.683-1.753-2.076-.846-4-1.897-5.697-3.374-1.484-1.29-3.088-2.634-4.055-4.376-.056-.097.084-.176.152-.086 2.668 3.819 6.911 6.74 11.424 7.83 2.238.545 4.539.739 6.798 1.183 1.074.207 2.173.523 3.092 1.128.23.153.44.327.64.515-1.718-2.214-3.524-4.364-5.306-6.521-1.26-1.528-2.516-3.056-3.708-4.629-1.978-1.075-3.983-2.175-6.064-3.033-1.32-.538-2.726-.912-3.988-1.601-1.344-.731-2.806-1.43-3.925-2.505-1.227-1.166-2.369-2.566-3.378-3.92-.057-.078.068-.17.133-.107 1.255 1.232 2.2 2.787 3.528 3.942 1.195 1.038 2.93 1.816 4.391 2.361 1.336.488 2.705.855 4.03 1.382 1.745.689 3.285 1.562 4.699 2.714-1.543-2.094-2.958-4.276-4.102-6.643-1.497-3.097-2.588-6.33-3.123-9.668-.844-2.308-2.861-4.174-4.117-6.232-.465-.76-1.037-1.578-1.17-2.471-.158-.996-.036-2.02.016-3.01.007-.095.152-.1.144-.001-.004 1.072-.164 2.348.246 3.37.405 1.005 1.108 1.963 1.755 2.824 1.074 1.412 2.285 2.83 2.975 4.457a28.628 28.628 0 01-.185-4.98c.27-5.198 1.353-10.31.667-15.492-.078.461-.13.938-.286 1.311zM70.922 61.792c-.556.232-1.1.46-1.653.549.638.553 1.168 1.326 1.691 1.866.137.139.058.457-.17.429-2.428-.258-4.759-.643-6.79.994-.561.453-1.152.925-1.775 1.105.702.43 1.402.855 2.246.948.204.013.342.242.177.416-.601.639-2.38.85-3.82.574.384.32.787.609 1.207.87 3.765 2.191 8.288 2.585 12.546 3.012 2.246.228 4.502.395 6.767.377a10.283 10.283 0 01-3.295-1.859c-2.399-2.031-4.158-4.943-7.109-6.243-.073-.038-.019-.166.056-.132 2.795.967 4.622 3.314 6.839 5.127 1.18.975 2.626 2.103 4.115 2.536.698.202 1.405.304 2.117.377 1.397-.179 2.785-.452 4.173-.701a72.68 72.68 0 014.494-.69 12.304 12.304 0 01-1.313-.328c-1.964-.612-3.473-1.683-5.025-2.996-1.994-1.71-4.174-3.181-6.538-4.327-2.327-1.13-4.637-2.244-7.29-2.275-.022-.001-.035-.018-.04-.036-.54.062-1.077.19-1.61.407zM75.17 73.13c2.467.211 4.944.234 7.413.094a4.55 4.55 0 01-.253-.03c-3.1.152-6.2-.108-9.304-.49-1.055-.13-2.12-.256-3.179-.414a39.9 39.9 0 005.323.84zm14.933-.814c1.307-.239 2.604-.49 3.9-.698-2.818.282-5.603.798-8.139 1.21a28.92 28.92 0 01-.293.046c.144.014.29.029.434.045l.376-.051c.023-.004.04 0 .054.008a64.087 64.087 0 003.668-.56zm-31.108-4.584c-.087.644-.175 1.285-.015 1.926.277 1.154 1.232 1.99 2.104 2.736 1.435 1.222 3.273 2.045 4.37 3.623.185.26-.11.582-.385.519-.704-.153-1.27-.627-1.871-1.03.545 1.177 1.188 2.324 2.064 3.28.888.984 1.833 1.59 2.95 2.117.312.069.611.201.887.412.302.239-.076.627-.372.497a9.404 9.404 0 01-.725-.338c-.393-.07-.818-.005-1.206.116 1.416 1.47 2.763 3.035 4.368 4.3.99.792 2.522 2.044 3.907 1.813.234-.141.484-.25.766-.29.212-.031.365.251.15.376-.24.145-.485.238-.735.287-.297.18-.568.418-.843.632.494.425 1.065.796 1.72.919.582.112 1.146.04 1.74.084 1.014.078 2.341.576 3.29.243.194-.062.325.198.196.332-.896.93-1.743 1.892-2.811 2.619 2.63.69 5.457 1.136 7.863-.443.242-.164.512.19.308.396-.611.621-1.16 1.299-1.699 1.992 2.111.994 5.845-.203 7.233-1.925.169-.201.49.059.366.28-.455.789-.879 1.587-1.403 2.33 1.365.05 3.054-1.183 4.03-1.887 1.452-1.059 3.051-2.414 3.706-4.147-.007-.17.035-.295.187-.277.417.048.477 1.251.512 1.56.06.438.143 1.07.001 1.551 2.68-2.274 2.438-5.69 2.056-8.91-.248-2.108-1.05-4.63.187-6.562 1.13-1.765 4.177-1.702 5.876-.965.764.342 1.403.996 1.839 1.778.291.068.582.086.881.041.05-.005.1-.012.15-.019-1.663-4.01-5.977-5.575-10.034-5.929a.106.106 0 01-.083.049c-3.144.22-5.343 3.014-6.563 5.667-1.18 2.562-1.912 5.354-3.355 7.789-1.28 2.15-3.091 3.876-4.993 5.469-.193.161-.392.326-.596.489.707-.594 1.35-1.246 1.898-1.737 2.346-2.103 3.73-4.527 4.727-7.493 1.233-3.655 3-9.51 7.332-10.312-4.03-.044-7.857.944-11.841 1.46-.493.064-.988.122-1.483.175-1.405.515-2.75.99-3.926 2.01-1.238 1.086-2.108 2.454-3.196 3.662-.941 1.048-2.05 2.203-3.27 2.922-1.22.723-2.616 1.016-3.837 1.714-.014.007-.028-.006-.012-.017 1.375-.818 2.967-1.296 4.17-2.388 1.292-1.188 2.445-2.353 3.519-3.748.962-1.245 1.932-2.764 3.355-3.55.286-.156.575-.287.868-.398a52.97 52.97 0 01-6.037.088c-1.11.269-2.252.475-3.311.906-1.043.423-1.98 1.05-3.014 1.493-1.524.648-3.363 1.248-5.03.991-.07-.005-.059-.118.005-.112 3.57.358 6.218-2.6 9.437-3.403a42.37 42.37 0 01-2.613-.308 42.825 42.825 0 01-7.026-1.653c-2.04-.674-4.01-1.544-5.574-3.036-.512-.175-.93-.429-1.16-.766zm60.33 8.447c2.379 1.612 2.94 4.861.377 6.63-1.916 1.316-3.53 2.737-4.85 4.676-.98 1.426-2.21 3.838-.516 5.006a.28.28 0 01.081-.089c.782-.578 1.802-.587 2.548-1.22.15-.132.478-.023.39.216-.617 1.667.471 3.957 2.474 3.725 1.014-.12 1.076-.955 1.767-1.471.616-.45 1.336-.716 1.903-1.23.183-.172.433-.053.459.186.335 2.926 3.367 3.962 5.699 5.13-.175-.858-.288-1.704-.01-2.572.07-.238.393-.24.475-.004.772 2.202 3.614 1.713 5.423 2.171.434.116.864.25 1.252.474.494.285 1.016.756 1.556.908.708.2 1.406.194 2.113.135-.957-.558-1.22-1.917-1.43-3.008-.025-.154.085-.285.245-.252 1.834.373 3.767.364 5.638.549 1.296.135 3.157.5 4.31-.304-.66-.51-1.538-.512-2.21-1.02-.73-.552-1.302-1.255-1.949-1.902-.183-.19-.004-.485.244-.436 3.99.724 8.607-.718 11.785-3.296a23.587 23.587 0 01-10.675-.073c-4.124-.988-7.424-3.097-10.699-5.719-1.232-.986-2.455-2.003-3.705-2.982.303.48.565.975.791 1.43.659 1.34 1.036 2.677 1.294 4.144.542 3.093 1.633 5.688 4.151 7.68.032.017-.008.064-.03.042-2.228-1.59-3.591-3.74-4.281-6.372-.435-1.67-.663-3.368-1.432-4.931-.595-1.214-1.463-2.19-2.202-3.286-2.043-1.48-4.198-2.784-6.616-3.626a15.694 15.694 0 00-4.396-.825c1.624.51 3.072 1.409 3.852 2.999.76 1.523.819 3.024.86 4.684.093 3.188.799 8.436 4.483 9.419.015.008.014.028-.001.024-3.143-.74-4.224-4.697-4.614-7.469-.239-1.68-.02-3.519-.59-5.126-.393-1.107-1.1-2.402-2.135-3.044-.903-.561-1.944-.813-2.772-1.49a.11.11 0 01-.003-.003c-1.448.041-2.87.327-4.064.966 1.624-.6 3.454-.497 5.01.556zm56.067-18.45c-.675-.02-1.383-.244-1.987-.398-1.95-.495-3.878-.573-5.88-.42-.298.011-.351-.438-.075-.512.824-.205 1.398-.71 1.948-1.28-.604-.09-1.2-.438-1.813-.547-1.402-.247-3.08-.206-4.376.443-.276.134-.554-.19-.337-.433.482-.517 1.29-1.986 2.17-2.608-.474-.117-.945-.237-1.44-.268-.703-.049-1.37.048-2.06.218-1.487.38-2.794 1.098-4.178 1.716-.145.06-.319-.065-.226-.22.404-.701.96-1.928 1.735-2.614a14.65 14.65 0 01-.074-.014c-1.077-.203-2.074-.267-3.162-.034-2.118.454-3.656 1.804-5.352 3.048-.214.15-.457-.13-.344-.338.326-.62.625-1.25 1.008-1.832-.343.09-.7.133-1.064.179-1.187.13-1.985.63-2.727 1.57-.688.86-1.395 1.656-2.254 2.353-1.305 1.053-3.307 2.125-4.513.35-.115-.165-.088-.324.007-.438-.005-.092.001-.19.02-.293.212-1.205 1.501-2.262 2.519-2.818 1.375-.749 2.91-1.136 4.252-1.958 2.969-1.832 5.791-4.635 6.316-8.232.153-1.05.221-2.146-.035-3.184-.1-.405.012-.44-.283-.273-.196.116-.386.21-.602.284-.693.23-1.518.336-2.208.611a8.964 8.964 0 01-1.417 1.605c-.11.11-.298.016-.264-.143.197-.91.716-1.345 1.362-1.608 1.274-1.887 1.845-4.291 1.526-6.537-.588.794-1.548 1.419-2.413 1.704-.076.025-.127-.098-.053-.136.05-.024.1-.05.15-.076 1.266-1.443 1.588-3.06 2.01-4.889.311-1.36.688-2.966.34-4.365-.436.487-.865 1.022-1.422 1.353-.508.298-1.165.375-1.687.64-.11.078-.225.153-.343.222l-.001-.005c-.135.065-.275-.081-.167-.216.394-.484.92-.862 1.246-1.4.385-.653.513-1.286.56-2.03.054-.808.15-1.61.228-2.414-.047.05-.097.097-.148.143-.666.585-1.693.524-2.282 1.134-.178.196-.44-.08-.286-.28a1.57 1.57 0 01.174-.189c.226-.972 1.254-1.757 1.644-2.65.7-1.607.475-3.678.386-5.454-.29.235-.616.474-.912.734-.195.643-.531 1.207-1.07 1.618-.181.135-.483-.048-.462-.265.055-.728.545-1.261 1.118-1.728.51-1.784-.136-4.367-.478-5.757-.333-1.377-.742-2.722-1.57-3.891-.386-.56-.887-1.063-1.299-1.614.292.795.535 1.604.665 2.431.28 1.774.088 3.488-.424 5.203-.822 2.743-2.162 5.228-3.504 7.746-.75 1.403-1.405 2.87-2.221 4.244-.788 1.311-1.653 2.582-2.378 3.94a24.93 24.93 0 01-.386.7c1.225-1.392 2.469-2.624 4.152-3.585 2.184-1.246 4.44-2.471 5.958-4.524.034-.05.1-.011.075.033-1.241 1.995-3.07 3.565-5.051 4.79-1.016.627-2.11 1.154-3.065 1.856-.86.638-1.655 1.355-2.444 2.072-2.477 4.126-5.82 7.648-8.808 11.416a11.1 11.1 0 011.048-.82c2.022-1.384 4.137-2.043 6.516-2.6 2.328-.546 4.611-1.381 6.665-2.613 2.113-1.263 4.208-2.953 4.785-5.465.007-.051.093-.026.082.027-.907 4.207-5.711 6.741-9.403 8.077-2.557.93-5.232 1.247-7.648 2.608-1.533.86-2.786 1.936-3.888 3.224-.07.097-.138.194-.206.292-1.898 2.705-3.436 5.572-5.099 8.418-1.127 1.933-2.378 3.824-3.391 5.829.21-.337.451-.648.734-.917 1.05-.996 2.36-1.548 3.686-2.08 1.436-.579 2.909-1.082 4.353-1.636 1.466-.566 2.844-1.392 4.176-2.214 2.758-1.692 5.726-3.236 8.274-5.252 2.454-1.95 4.676-4.24 6.24-6.978.096-.153.344-.02.254.142-1.505 2.658-3.61 4.94-6.009 6.823-2.397 1.884-5.144 3.183-7.62 4.942-2.476 1.769-4.93 3.223-7.776 4.295-1.51.57-3.27 1.092-4.594 2.024-1.377.973-2.199 2.345-2.973 3.813-.89 2.44-2.11 4.96-2.466 7.527-.416 2.998-.853 6.04-1.014 9.055 1.194-2.658 2.476-5.372 4.773-7.278 2.139-1.765 4.79-2.656 7.453-3.308.268-.066.537-.13.807-.19.449-.313.82-.739 1.177-1.156.443-.53.992-.94 1.47-1.435 1.132-1.177 2.182-2.366 3.59-3.236 2.606-1.589 5.587-2.185 8.452-3.123.124-.038.172.15.055.196-3.212 1.14-6.775 1.789-9.292 4.276-1.393 1.373-2.845 3.307-4.676 4.308 2.208-.465 4.446-.79 6.685-1.099 3.053-.416 6.092-.875 9.16-1.168 1.04-.102 2.08-.2 3.12-.289a7.886 7.886 0 003.082-1.906c1.041-1.05 1.893-2.25 2.912-3.312 2.374-2.475 6.011-3.574 9.382-3.17.104.01.073.172-.018.174-4.031-.044-7.318 1.485-9.876 4.59-1.383 1.673-2.885 2.91-4.702 3.558 1.71-.14 3.42-.26 5.13-.346 2.915-.148 5.832-.234 8.723-.63 3.088-.42 6.013-1.359 9.01-2.19 1.412-.398 2.835-.681 4.265-1.014.803-.188 1.588-.438 2.396-.586l.172-.073zM137.11 24.68c2.909-4.648 6.31-9.206 7.95-14.502.204-.864.326-1.736.328-2.606.016-2.163-.78-4.173-1.606-6.131-.126 1.395-1.373 2.511-2.485 3.307-.57.41-1.182.787-1.806 1.158-.667.89-1.314 1.734-1.733 2.792a17.32 17.32 0 00-1.018 3.7 32.953 32.953 0 00-.42 7.11c.113 2.11.43 4.297-.418 6.3-.297.699-.655 1.37-1.057 2.019a32.775 32.775 0 002.265-3.147zM60.917 65.686c-1.633-.669-3.454-.945-5.187-1.219-2.836-.443-5.63-.603-8.243-1.909-2.15-1.072-4.34-2.69-5.244-5.016-.577-1.494-.676-3.142-.488-4.755a.463.463 0 01-.062.007c-.43 2.088-.278 4.24.93 6.136 1.518 2.388 4.058 4.338 6.81 5.065 3.797 1.003 9.781.213 11.87 4.272.91.102 1.905.02 2.524-.224-.916-.266-1.678-.836-2.525-1.288a1.92 1.92 0 01-.607-.29 6.094 6.094 0 00-.023-.01l.003-.004a2.562 2.562 0 01-.052-.04c-.24-.178.058-.488.291-.388.197.082.388.176.575.278.17.035.343.031.516-.002-.345-.235-.7-.45-1.088-.613zm-6.725-.64c-2.53-.326-5.05-.467-7.322-1.77-2.182-1.244-4.283-3.129-5.173-5.538-.618-1.68-.643-3.376-.296-5.048a.399.399 0 01-.102-.17c-.37-1.169-2.01-.056-2.523.458-.962.986-.23 1.852-.33 2.998-.085 1.045-1.42 2.347-2.442 1.572a2.187 2.187 0 01-.218.165c-.026.02-.055-.017-.03-.042.377-.416.51-.87.506-1.367-.897.787-1.98.609-3.196.67-.247.01-.266-.333-.054-.415.242-.1.422-.241.54-.427-1.13.57-2.393.748-3.625.303a.246.246 0 01-.16-.207 5.185 5.185 0 01-2.338.013c-.131-.03-.185-.216-.085-.308l.005-.005c-.6.025-1.262-.19-1.772-.485-.137-.005-.254-.05-.327-.162a3.304 3.304 0 01-.42-.108c-.178-.058-.114-.33.066-.28.076.021.151.039.227.054.052-.065.154-.097.235-.026.028.024.057.047.088.07.406.034.807-.016 1.2-.126.198-.14.357-.271.427-.337.498-.482.785-1.054 1.111-1.632-.354.066-.707.05-1.091.007-.168-.027-.195-.252-.102-.358.815-.884 1.54-1.887 2.612-2.437a1.424 1.424 0 00-.756-.083c-.214.021-.328-.268-.183-.403.477-.452 1.014-.903 1.624-1.144a1.644 1.644 0 00-.548.06c-.158.037-.332-.148-.233-.3.684-1.058 1.393-1.972 2.742-1.948.48.008 3.163 1.269 3.034.174-.193-1.643-2.746-.277-3.732-.304-1.083-.035-1.846-.43-2.399-1.22.187 1.723-.269 3.276-1.984 4.042-1.778.8-3.848.917-5.748 1.223-1.225.198-3.039.325-3.987 1.234-.121.115-.148.264-.219.392.746.156 1.46.519 2.09 1.072.595.513 1.814 2.003.372 2.359-1.247.294-2.816-1.348-3-2.46-.04-.231-.008-.426.021-.623-.557-.013-1.105.063-1.655.317-1.604.736-3.015 1.99-3.999 3.452-.549.818-1.032 1.827-1.196 2.852.888.079 1.759.229 2.554.494 1.313.43 3.081 1.456 2.218 3.081-.688 1.31-3.212.867-4.09.047-1-.93-1.306-2.067-1.223-3.223-.748-.054-1.484-.062-2.132.022-2.736.37-5.588 1.858-6.273 4.76-.705 2.986.47 5.847 3.21 7.29 2.398 1.26 5.117 1.567 7.788 1.726 2.83.166 5.736.153 8.502-.518 3.006-.732 5.775-2.188 8.605-3.38 5.26-2.21 10.864-3.069 16.556-3.026 4.38.03 8.751.57 12.929 1.846.068-.417.146-.835.17-1.267.008-.215.252-.27.37-.16.105-.018.235.073.19.196-.3.878.675 1.377 1.86 1.551-1.452-2.225-4.345-2.854-6.89-3.192zM30.896 80.683c-.354-1.339-1.358-2.72-2.809-2.995-1.015-.188-2.316.066-2.545 1.267a2.796 2.796 0 00.31 1.9c.586 1.04 1.575 1.959 2.751 2.27.706.189 1.387.179 2.043.085.321-.82.476-1.7.25-2.527zm7.101-42.943c.386.427.522 1.237.058 1.675-1 .95-2.477-.846-3.554-1.374.082.293.161.586.199.894.017.195-.247.29-.37.16-.765-.839-1.677-1.065-2.73-1.102.198.188.396.375.594.566.16.152-.074.394-.243.247-.744-.633-1.784-1.025-2.77-.948-.602.041-1.006.415-1.493.715l-.1.061c1.097.304 2.192.817 3.25 1.211.992.374 1.987.749 2.94 1.21A18.309 18.309 0 0138.4 44.29c1.65 1.582 3.523 3.698 3.774 6.058a.153.153 0 01.074-.007c.036-.127.073-.253.111-.378a.15.15 0 01.152-.114c.123-.487.196-.992.257-1.495.132-1.073.312-2.148.352-3.229.076-2.09-.04-4.206-.16-6.29-.12-2.08-.357-4.236-1.306-6.122-.84-1.679-2.11-2.986-3.404-4.293.074.147.138.291.189.427.364.946-.433 2.57.37 3.323.195.187-.057.524-.29.39a3.101 3.101 0 01-.606-.459c.026.444.107.865.368 1.28.086.135 0 .314-.145.36-.422.123-.758.007-1.037-.23.01.78.332 1.39.906 2.01.076.088.032.252-.1.25-.632-.016-1.192-.066-1.7-.397-.742.794 1.322 1.845 1.791 2.365zm2.288-7.767c.746.858 1.4 1.768 1.862 2.811.827 1.925 1.123 3.971 1.238 6.042.12 2.283.415 4.757.096 7.02-.178 1.3-.349 2.777-.837 4.075a.142.142 0 01.018.042c.24-.702.45-1.414.79-2.075.54-1.046 1.301-1.979 2.02-2.908 1.611-2.059 3.166-4.11 5.543-5.31 2.259-1.138 4.709-1.748 7.113-2.48.825-.25 2.462-.585 3.632-1.225-1.238.48-2.855.498-3.708.117-.112-.044-.095-.198-.007-.252.332-.217.658-.45.925-.745.203-.226.129-.662-.227-.519-.194.082-.389.164-.577.259-.595.288-1.187.668-1.835.82-.15.044-.268-.144-.157-.258.388-.382.765-.727 1.054-1.18-1.193.055-2.202.987-3.448.906-.186-.013-.226-.255-.043-.313.88-.316 1.32-.889 1.322-1.75-1.014.858-2.258 1.387-3.296 2.217-.09.077-.241.04-.247-.098-.015-.824.127-1.422.558-2.036-2.068.026-2.966 2.491-3.994 3.947-.747 1.056-1.804 1.52-2.601.274-.111-.178.122-.337.267-.214l.004.004c-.152-.52-.12-.989.09-1.561.38-1.03.663-1.878.57-2.887-.251.34-.596.605-.99.848-.207.135-.42-.073-.387-.287.127-.814-.02-1.59-.436-2.254.003.346.01.69-.066 1.038-.047.212-.406.239-.442.004-.136-.885-.37-1.815-1.12-2.398-.695-.535-.327.199-.309.722.012.187-.215.254-.34.147-.563-.472-.857-1.148-1.33-1.684.001.142.01.284.034.439.028.205-.203.394-.37.218-.638-.671-1.063-1.688-2.085-1.83a13.52 13.52 0 00-.572-.067c.847.697 1.57 1.56 2.288 2.38zm-11.319 9.94c.101.084.076.288-.041.34-.284.125-.543.21-.819.236.473.598 1.146 1.465 1.78 1.12.21-.118.425.155.26.323a1.62 1.62 0 01-.97.485c.47.528 1.014 1.094 1.743.882.27-.078.383.34.114.414l-.029.009c-.588.18-1.144.451-1.738.617.605 1.032 1.598 1.604 2.85 1.243.578-.164 1.156-.352 1.753-.42 1.099-.137 2.02.236 1.952 1.48-.05 1.02-1.322.853-1.977.649-.425-.13-.905-.428-1.346-.488-1.15-.173-1.799.453-2.385 1.272.391-.008.747.093 1.167.228.217.075.202.415-.044.412-.712-.003-1.294.372-1.8.832.313.045.6.163.887.373.182.134.193.424-.056.503-1.136.333-1.897 1.267-2.679 2.113a2.26 2.26 0 00.946-.133c.154-.055.308.138.217.27-.44.672-.785 1.376-1.334 1.904 1.071-.502 2.057-1.354 2.873-2.03 1.225-1.025 2.43-2.045 3.927-2.633 2.617-1.04 6.809-1.655 7.473 1.651.113-.373.243-.744.386-1.113a.182.182 0 01.06-.083c-.382-2.465-2.849-4.853-4.499-6.305a17.721 17.721 0 00-4.98-3.134c-1.416-.595-3.057-.988-4.498-1.635.269.19.534.401.807.618zM9.983 60.654c.375.923 1.112 1.637 2.129 1.78.52.078 1.434.158 1.809-.322.415-.552.088-1.213-.385-1.575-.98-.75-2.372-1.132-3.754-1.293-.027.478.015.949.201 1.41zm7.124-7.517a3.285 3.285 0 001.278 1.449c.36.217 1.857.873 1.725-.153-.128-1.084-1.601-1.88-2.538-2.162-.197-.06-.38-.035-.568-.059-.058.295-.027.611.103.925zm21.024 3.234c.117-.673-.205-1.312-.329-1.965-.153-.76.18-1.423.721-1.947.814-.786 2.264-1.581 3.109-.794l.01-.013c-.988-3.743-7.01-1.902-9.247-.215-1.681 1.27-3.925 3.714-6.268 3.89a3.166 3.166 0 01-.064.022c.54.242 1.194.377 1.703.212.15-.118.307-.223.49-.31.144-.066.296.106.179.227a1.344 1.344 0 01-.438.308 3.06 3.06 0 00-.137.13c1.174.094 2.389-.174 3.337-.872.204-.146.396.124.32.309-.187.417-.442.678-.776.85 1.067.182 2.125-.102 3.074-.682.15-.098.348.056.3.217-.084.318-.198.575-.37.783.93-.033 1.801-.057 2.539-.804.124-.127.33-.038.34.132.029.688-.114 1.245-.591 1.674.774.47 1.953-.306 2.098-1.152zm3.52-4.689l-.003-.009c0 .002-.002.003-.003.004l.005.005zm3.698 1.092c.64 1.4-.317 2.562-1.27 3.522.404.208.808.287 1.28-.09.132-.097.305-.018.28.152-.055.36-.195.642-.414.844.447-.079.83-.292 1.047-.796.075-.177.303-.094.355.045.287.7.314 1.406-.093 1.93.574-.04 1.194-.197 1.045-.878-.055-.245.297-.415.424-.173.268.503.477 1.105.435 1.682.417-.317.768-.783.773-1.293 0-.204.248-.31.39-.172 1.261 1.162 2.203 3.314 1.29 4.844 2.854-1.495 1.442-5.838.026-7.915-.898-1.32-2.264-2.397-3.807-2.835-.826-.233-1.708-.36-2.565-.257a5.171 5.171 0 00-.786.162c.68.131 1.29.576 1.59 1.228zm5.314 9.939c.867-.41 2.07-1.195 2.256-2.187.132-.7-.048-1.339-.245-1.988.133 1.557-.292 3.034-1.795 3.872a2.543 2.543 0 01-.216.303zm18.122 21.673a38.321 38.321 0 00-3.996 8.502c-.904 2.781-1.166 5.65-1.827 8.486-.668 2.863-2.063 5.126-3.698 7.53-1.423 2.094-3.023 4.229-5.346 5.37-2.009.984-4.329 1.43-6.553 1.121-2.177-.306-4.323-1.247-5.582-3.133-1.185-1.779-1.591-3.953-1.337-6.065.398-3.321 2.114-6.673 5.166-8.185.012-.31.033-.627.157-.948.263-.684.767-1.458 1.392-2.092-.04-.023-.086-.03-.125-.052-.744-.529-.644-1.555-.434-2.32.34-1.201.964-2.333 1.214-3.562.508-2.547-2.463-2.352-4.267-2.205-.095.005-.09-.137-.007-.148.698-.075 1.397-.123 2.095-.074 1.062.066 2.46.241 2.51 1.584.042 1.158-.531 2.274-.936 3.324-.35.938-1.068 2.666.114 3.314.503-.47 1.061-.854 1.656-.964.54-.101 1.201-.063 1.612.354.205.213-.038.5-.228.61-.827.477-1.858.668-2.755.343-.763.744-1.366 1.685-1.523 2.643.237-.097.468-.217.724-.293 1.62-.483 3.425-.4 4.844.618 1.182.836 1.861 2.219.524 3.277-2.28 1.798-6.319-.275-6.58-3.008-1.59.863-3.007 2.193-3.766 3.84-1.066 2.29-1.652 5.135-.896 7.605.85 2.78 3.056 4.655 5.927 5.099 2.654.418 5.621-.102 7.863-1.633 2.495-1.694 4.065-4.374 5.707-6.829 1.575-2.354 2.25-4.91 2.722-7.67.481-2.757 1.063-5.44 2.066-8.06.866-2.255 1.875-4.593 3.23-6.626.118.073.222.168.333.247zM49.969 94.788c.778-.422-.25-.736-.712-.62a3.24 3.24 0 00-1.334.707c-.032.026-.06.06-.094.09.711.207 1.477.19 2.14-.177zm-2.874 5.623c.95.797 2.253 1.29 3.512 1.152 1.068-.115 2.641-1.042 1.723-2.308-1.391-1.938-4.243-2.057-6.241-1.12-.016.01-.034.024-.05.03-.038.789.25 1.571 1.056 2.246zm52.77 13.534c-2.441-3.847-9.42-6.617-12.87-2.456-1.906 2.287-.024 4.955 2.54 5.57 2.482.598 5.408.322 7.762-.667 1.054-.446 2.016-1.04 2.914-1.72-.115-.246-.2-.493-.347-.727zm1.966-19.921c-.737-.232-1.713-.442-2.424-.007-.888.537-.897 1.338-.082 1.977.933.728 2.17.855 3.304.624.768-.158 1.498-.453 2.195-.816a7.73 7.73 0 00-2.993-1.778zm47.426-53.37a8.43 8.43 0 00.376-.438 1.821 1.821 0 00-.376.438zm-37.412 35.443c.01.01-.004.024-.013.013-.009-.01.004-.023.013-.013zM81.413 92.78a3.32 3.32 0 01-.268-.023c-.01-.001-.008-.02.009-.02.086.019.173.033.259.043zm3.6-1.548c-1.09.916-2.33 1.696-3.6 1.548 1.351.063 2.55-.711 3.6-1.548z" opacity=".22"/></svg>