<svg xmlns="http://www.w3.org/2000/svg" width="15.09" height="14.1"><path data-name="Фигура 32" d="M7.58 5.54a3.164 3.164 0 00-3.1 3.07 3.129 3.129 0 003.1 3.03 3.018 3.018 0 002.98-3.03 3.053 3.053 0 00-2.98-3.07zm7.51 3.64v-4.8a1.474 1.474 0 00-1.43-1.54h-2.93V1.38h-.09A1.472 1.472 0 009.22.01H6.78a1.517 1.517 0 00-1.46 1.37v1.46H3.44v-.06a.9.9 0 00-.55-1h-.88a.9.9 0 00-.55 1v.06A1.533 1.533 0 000 4.38v8.2a1.508 1.508 0 001.46 1.52h12.2a1.451 1.451 0 001.43-1.52v-.94h-2.47v-.78h2.47v-.9h-2.31v-.78h2.31zM6.78.79h2.44a1.075 1.075 0 01.96.59H5.82a1.053 1.053 0 01.96-.59zM5.7 1.97h4.64v.33H5.7v-.33zm0 .87zm1.88 10.09a4.315 4.315 0 010-8.63 4.317 4.317 0 010 8.63zm4.57-7.24V4.3h1.88v1.39h-1.88z" fill="#fff" fill-rule="evenodd"/></svg>