<svg xmlns="http://www.w3.org/2000/svg" width="28" height="28"><path d="M18.51 18.973a9.489 9.489 0 116.71-2.779 9.432 9.432 0 01-6.71 2.779zm0-17.925a8.438 8.438 0 105.97 14.4 8.438 8.438 0 00-5.97-14.4zM9.36 19.163a.507.507 0 01-.37-.154.514.514 0 010-.741l2.81-2.815a.523.523 0 01.74 0 .515.515 0 010 .741l-2.81 2.815a.523.523 0 01-.37.154zM3.32 28a1.437 1.437 0 01-1.04-.43L.43 25.72a1.476 1.476 0 010-2.083l6.29-6.293a1.471 1.471 0 012.08 0l1.85 1.851a1.464 1.464 0 010 2.083l-6.29 6.293A1.471 1.471 0 013.32 28zm4.44-10.039a.415.415 0 00-.3.124l-6.29 6.293a.411.411 0 000 .6l1.85 1.851a.425.425 0 00.6 0l6.29-6.293a.417.417 0 000-.6l-1.85-1.85a.415.415 0 00-.3-.126z" fill="#fff" fill-rule="evenodd"/></svg>