<svg xmlns="http://www.w3.org/2000/svg" width="33" height="26" viewBox="0 0 33 26">
  <defs>
    <style>
      .cls-1 {
        fill: #69002f;
        fill-rule: evenodd;
      }
    </style>
  </defs>
  <path id="корзина" class="cls-1" d="M1786.83,94.128h-17.39a0.512,0.512,0,0,1-.49-0.367l-3.96-12.607V81.147c0-.006-0.01-0.013-0.01-0.019l-1.63-6.071h-4.84a0.531,0.531,0,0,1,0-1.06h5.23a0.511,0.511,0,0,1,.49.388l1.64,6.075h24.63a0.511,0.511,0,0,1,.41.213,0.524,0.524,0,0,1,.08.469l-3.67,12.609A0.525,0.525,0,0,1,1786.83,94.128Zm-17.02-1.061h16.64l3.36-11.548h-23.63Zm1.05,6.928a2.329,2.329,0,1,1,2.26-2.328A2.293,2.293,0,0,1,1770.86,100Zm0-3.6a1.27,1.27,0,1,0,1.23,1.269A1.25,1.25,0,0,0,1770.86,96.4Zm14.23,3.6a2.33,2.33,0,1,1,2.25-2.328A2.295,2.295,0,0,1,1785.09,100Zm0-3.6a1.27,1.27,0,1,0,1.22,1.269A1.25,1.25,0,0,0,1785.09,96.4Zm-12.69-2.27a0.52,0.52,0,0,1-.5-0.4l-3.1-12.609a0.535,0.535,0,0,1,.37-0.644,0.51,0.51,0,0,1,.62.383l3.11,12.609a0.535,0.535,0,0,1-.37.644A0.569,0.569,0,0,1,1772.4,94.128Zm11.31,0a0.457,0.457,0,0,1-.13-0.017,0.527,0.527,0,0,1-.37-0.644l3.1-12.609a0.516,0.516,0,0,1,.63-0.383,0.535,0.535,0,0,1,.37.644l-3.11,12.609A0.509,0.509,0,0,1,1783.71,94.128Zm-8.66,0a0.528,0.528,0,0,1-.51-0.459l-1.63-12.609a0.515,0.515,0,1,1,1.02-.141l1.63,12.608a0.526,0.526,0,0,1-.44.6C1775.1,94.126,1775.07,94.128,1775.05,94.128Zm6,0c-0.02,0-.04,0-0.07,0a0.534,0.534,0,0,1-.44-0.6l1.64-12.608a0.516,0.516,0,0,1,.58-0.455,0.533,0.533,0,0,1,.44.6l-1.64,12.609A0.513,0.513,0,0,1,1781.05,94.128Zm-2.74,0a0.522,0.522,0,0,1-.51-0.531V80.989a0.51,0.51,0,1,1,1.02,0V93.6A0.522,0.522,0,0,1,1778.31,94.128Zm10.82-9.095h-22.55a0.53,0.53,0,0,1,0-1.06h22.55A0.53,0.53,0,0,1,1789.13,85.033Zm-1.21,4.517h-19.93a0.53,0.53,0,0,1,0-1.06h19.93A0.53,0.53,0,0,1,1787.92,89.55Z" transform="translate(-1758 -74)"/>
</svg>
