<!-- Generated by IcoMoon.io -->
<svg version="1.1" xmlns="http://www.w3.org/2000/svg" width="24" height="32" viewBox="0 0 24 32">
<title>figure-1</title>
<path d="M7.873 22.521c-0.291-0.047-0.499-0.087-0.706-0.132l0.091 0.017c-10.339-2.186-8.078-14.707-2.767-21.543 0.39-0.499 0.547-0.821 1.517-0.821l11.616 0.001c1.064 0 1.12 0.323 1.578 0.902 3.798 4.799 7.247 15.018 1.066 19.687-2.282 1.724-4.161 1.835-7.414 2.248-0.17 1.322-0.127 2.179-0.078 3.52l5.546 1.967c0.646 0.225 1.466 0.282 1.615 1.024 0.269 1.326-1.742 1.561-3.189 1.792-1.69 0.27-3.107 0.417-4.86 0.423-1.671 0.004-3.125-0.128-4.644-0.384-1.078-0.181-3.701-0.273-3.562-1.7 0.090-0.92 1.923-1.263 3.325-1.753 1.291-0.452 2.429-0.87 3.839-1.359l0.014-3.475c-0.107-0.028-0.339-0.061-0.513-0.114l-2.463-0.331zM11.942 21.119c0.619-0.109 1.519-0.049 2.184-0.134 7.869-1.016 9.351-6.705 6.534-13.789-0.409-1.030-0.883-2.093-1.45-3.043-0.888-1.485-1.106-2.335-2.303-2.335l-10.923 0.003c-2.989 3.645-6.525 12.363-2.401 16.689 1.498 1.572 3.121 1.785 4.16 2.131l2.509 0.48c0.618 0.053 1.274 0.070 1.69-0.003zM20.053 9.45c1.248 5.426 0.339 9.871-6.122 10.168-2.813-0.248-6.457 0.619-9.884-2.605-1.169-1.781-1.37-5.173-0.477-7.501z"></path>
</svg>
