<svg xmlns="http://www.w3.org/2000/svg" width="17" height="23" viewBox="0 0 17 23"><defs><radialGradient id="muwua" cx="8.46" cy="22.63" r="22.7" gradientUnits="userSpaceOnUse"><stop offset="0" stop-color="#c10029"/><stop offset="1" stop-color="#69002f"/></radialGradient><filter id="muwub" width="200%" height="200%" x="-50%" y="-50%"><feGaussianBlur in="SourceGraphic" result="FeGaussianBlur1163Out" stdDeviation="1.5 1.5"/></filter><mask id="muwuc"><path fill="#fff" d="M8.014 18.347c.023-1.03-.041-2 .076-2.972.232-1.918 1.043-6.834 1.042-8.084l-7.868-.007c-.069 1.232.452 4.164.63 5.502.43 3.223.33 2.44.42 5.59 1.739.463 4.008.732 5.7-.029zm1.265-.646c-.003 4.741.461 4.886-1.474 4.873-1.834-.01-4.176.127-5.977.019-.776-.047-.798-.442-.802-1.21-.007-1.364-.004-2.734-.004-4.102 0-2.236-.496-5.214-.783-7.537C.124 8.816-.318 6.909.02 6.145c.862-.307 8.05-.17 9.55-.142 1.338.025.931.978.562 3.56-.212 1.476-.38 2.913-.562 4.364-.203 1.152-.29 1.205-.292 3.774zm-6.077-2.18c-.177-1.472-.641-4.175-.662-5.374l5.272.016c-.022 1.074-.325 2.552-.447 3.654-.07.633-.188 1.18-.247 1.792-.064.66.012 1.323-.05 1.987-.646.397-3.142.39-3.808 0-.049-.693.024-1.386-.058-2.075zM5.692 5.05C5.583 3.153 7.187 1.147 8.954.377c4.22-1.841 9.135 2.39 6.975 7.312-.883 2.012-2.628 3.184-4.96 3.218l.093-1.232c1.552-.31 3.02-.663 3.758-2.408.133-.317.158-.27.233-.512.053-.172.08-.448.102-.632.643-5.423-6.977-7.149-8.246-1.1z"/></mask></defs><g><g><path fill="#152b37" d="M8.014 18.347c.023-1.03-.041-2 .076-2.972.232-1.918 1.043-6.834 1.042-8.084l-7.868-.007c-.069 1.232.452 4.164.63 5.502.43 3.223.33 2.44.42 5.59 1.739.463 4.008.732 5.7-.029zm1.265-.646c-.003 4.741.461 4.886-1.474 4.873-1.834-.01-4.176.127-5.977.019-.776-.047-.798-.442-.802-1.21-.007-1.364-.004-2.734-.004-4.102 0-2.236-.496-5.214-.783-7.537C.124 8.816-.318 6.909.02 6.145c.862-.307 8.05-.17 9.55-.142 1.338.025.931.978.562 3.56-.212 1.476-.38 2.913-.562 4.364-.203 1.152-.29 1.205-.292 3.774zm-6.077-2.18c-.177-1.472-.641-4.175-.662-5.374l5.272.016c-.022 1.074-.325 2.552-.447 3.654-.07.633-.188 1.18-.247 1.792-.064.66.012 1.323-.05 1.987-.646.397-3.142.39-3.808 0-.049-.693.024-1.386-.058-2.075zM5.692 5.05C5.583 3.153 7.187 1.147 8.954.377c4.22-1.841 9.135 2.39 6.975 7.312-.883 2.012-2.628 3.184-4.96 3.218l.093-1.232c1.552-.31 3.02-.663 3.758-2.408.133-.317.158-.27.233-.512.053-.172.08-.448.102-.632.643-5.423-6.977-7.149-8.246-1.1z"/><path fill="url(#muwua)" d="M8.014 18.347c.023-1.03-.041-2 .076-2.972.232-1.918 1.043-6.834 1.042-8.084l-7.868-.007c-.069 1.232.452 4.164.63 5.502.43 3.223.33 2.44.42 5.59 1.739.463 4.008.732 5.7-.029zm1.265-.646c-.003 4.741.461 4.886-1.474 4.873-1.834-.01-4.176.127-5.977.019-.776-.047-.798-.442-.802-1.21-.007-1.364-.004-2.734-.004-4.102 0-2.236-.496-5.214-.783-7.537C.124 8.816-.318 6.909.02 6.145c.862-.307 8.05-.17 9.55-.142 1.338.025.931.978.562 3.56-.212 1.476-.38 2.913-.562 4.364-.203 1.152-.29 1.205-.292 3.774zm-6.077-2.18c-.177-1.472-.641-4.175-.662-5.374l5.272.016c-.022 1.074-.325 2.552-.447 3.654-.07.633-.188 1.18-.247 1.792-.064.66.012 1.323-.05 1.987-.646.397-3.142.39-3.808 0-.049-.693.024-1.386-.058-2.075zM5.692 5.05C5.583 3.153 7.187 1.147 8.954.377c4.22-1.841 9.135 2.39 6.975 7.312-.883 2.012-2.628 3.184-4.96 3.218l.093-1.232c1.552-.31 3.02-.663 3.758-2.408.133-.317.158-.27.233-.512.053-.172.08-.448.102-.632.643-5.423-6.977-7.149-8.246-1.1z"/><path fill="#fff" fill-opacity=".75" d="M-4 26V-4h24v30zm12.014-7.653c-1.692.761-3.961.492-5.7.03-.09-3.152.01-2.368-.42-5.591-.178-1.338-.699-4.27-.63-5.502l7.868.007c.001 1.25-.81 6.166-1.042 8.084-.117.972-.053 1.942-.076 2.972zm1.265-.646c.002-2.569.089-2.622.292-3.774.183-1.45.35-2.888.562-4.364.37-2.582.776-3.535-.562-3.56-1.5-.028-8.688-.165-9.55.142-.34.764.103 2.67.218 3.599.287 2.323.783 5.3.783 7.537 0 1.368-.003 2.738.004 4.102.004.768.026 1.163.802 1.21 1.801.108 4.143-.03 5.977-.019 1.935.013 1.47-.132 1.474-4.873zm-6.077-2.18c.082.69.01 1.382.058 2.075.666.39 3.162.397 3.808 0 .062-.664-.014-1.327.05-1.987.06-.611.177-1.159.247-1.792.122-1.102.425-2.58.447-3.654l-5.272-.016c.02 1.199.485 3.902.662 5.374zM6.909 5.023c1.269-6.049 8.89-4.323 8.246 1.1-.022.184-.05.46-.102.632-.075.241-.1.195-.233.512-.737 1.745-2.206 2.097-3.758 2.408l-.094 1.232c2.333-.034 4.078-1.206 4.961-3.218 2.16-4.922-2.755-9.153-6.975-7.312-1.767.77-3.37 2.776-3.262 4.672z" filter="url(#muwub)" mask="url(&quot;#muwuc&quot;)"/></g></g></svg>