<svg xmlns="http://www.w3.org/2000/svg" width="11" height="33" viewBox="0 0 11 33"><g><g><path d="M2.235 8.185c0 2.727.086 8.397 3.041 8.45 4.433.079 3.16-12.605 2.288-15.31H3.081c-.506 1.676-.846 4.918-.846 6.86zm3.709 21.362c.88.52 3.706 1.175 4.717 1.809l.011.773c-1.739 1.11-6.422.97-8.7.6-.398-.065-1.633-.31-1.84-.534-1.253-1.346 2.922-1.615 4.573-2.658.012-5.59-.055-8.501.018-11.615-1.791-.602-2.465-1.6-3.032-3.329C.647 11.41.91 6.068 1.5 2.751c.107-.61.347-2.317.688-2.565C2.54-.07 4.666.06 5.275.06c3.34 0 3.297-.708 3.841 2.525.6 3.563 1.243 11.148-1.208 14.086-.674.808-.935.819-1.953 1.262zm-.666-13.87c-2.283-.063-2.178-7.083-2.025-9.35.459-.168 3.66-.166 4.147-.011.104 2.112.341 9.429-2.122 9.36z"/></g></g></svg>