<svg xmlns="http://www.w3.org/2000/svg" width="23" height="28" viewBox="0 0 23 28"><g><g><path fill="#152b37" d="M4.94 24.583l-.029-13.258c3.82-1.33.878-.169 5.614.164 3.439.242 4.86-.916 6.106-1.206-.125 2.504.222 13.05-.058 14.342-2.874.426-8.931.777-11.633-.042zm13.906-11.73l-.02 6.304c.824.015 1.58-.19 2.011-.69.413-.48.25-1.671.25-2.45 0-1.374.52-3.248-2.241-3.163zm-3.183 14.145c-3.942.362-7.231.465-11.174-.192-.565-.094-1.524-.14-1.717-.648-.135-.357-.05-13.692-.062-14.795l1.254.045.012 13.954c2.22.895 11.283.847 13.615-.013 0-4.617-.144-11.396.08-14.957l1.119-.013.043 1.252c3.707.103 3.496 1.849 3.496 4.385 0 2.24.303 4.236-3.472 4.43-.15 1.296-.04 3.448-.03 4.827.01 1.285-.059 1.44-3.164 1.725zm4.165-19.92c.4-1.078-.417-1.712-1.387-2.01-.692-.211-.421-.354-.758-1-.66-1.268-2.278-1.796-3.613-1.35-1.172.391-1.225 1.306-2.212.052-1.063-1.35-3.272-1.842-5.086-.803-2.37 1.357-1.37 2.403-2.714 2.572-.534.067-.986.126-1.397.37-2.189 1.3-.986 6.052 3.472 3.558 1.481-.829 3.346 2.125 8.578.161 1.876-.704 1.088-.87 2.645-.54 1.005.213 2.072.067 2.472-1.01zm-3.662-5.65c.971.244 1.895.864 2.425 1.709.512.816.089.55.99.976 1.588.749 2.044 2.423.95 4.172-.357.57-.616.544-1.128.823-.571.31-.772.395-1.67.335-.85-.057-.867-.393-1.7.006-2.648 1.27-5.877 1.469-8.54.408-1.44-.573-.446.063-2.797.504-5.005.94-5.94-6.091-1.502-6.99.981-.198.588-.244 1.136-.95C5.698.654 7.932-.238 10.17.29c1.34.315 1.836.91 2.618 1.548.965-.253 1.69-.836 3.378-.411z"/></g></g></svg>