<svg xmlns="http://www.w3.org/2000/svg" width="16" height="30" viewBox="0 0 16 30"><g><g><path fill="#152b37" d="M2.018 14.718c-.215.605-.1 8.984-.08 10.315l5.778-.03-.042-10.277zm1.35-12.17l2.97-.01.044 5.506c1.657.76 2.589 2.016 2.584 4.288l-.013 13.982c0 3.37.383 2.808-4.197 2.808-4.479 0-4.102.543-4.102-2.808 0-2.324-.03-4.67.008-6.99.038-2.323.002-4.67.004-6.995.001-2.366.987-3.39 2.636-4.318.014-1.039-.125-4.76.065-5.462zm11.282 16.21c-1.004.94-1.333.611-2.408 1.026-.057.938-.14 6.506.056 6.954.46.63 3.798.698 3.39 1.703-.33.815-4.865.693-5.843.59l.071-1.823c1.838-.396 1.333-.458 1.333-3.966l.005-2.653c.01-.987.193-.72-1.34-1.119l-.001-1.005c1.455.366 3.635.959 4.678-1.245.819-1.73.296-5.496-.13-5.737-.794-.36-3.512.172-4.574-.155l-.139-.848c6.13.096 5.637-.927 6.153 2.854.143 1.047.147 2.232-.073 3.23-.21.95-.61 1.663-1.178 2.194zm-1.298-5.981c.554-.004.66-.072.746.499.958 6.337-3.628 4.842-4.097 4.178-.234-.33-.143-3.98-.09-4.617.42-.104 2.69-.055 3.441-.06zm-9.99-11.21C3.299.229 3.592-.074 4.86-.072c1.316 0 1.546.277 1.483 1.634z"/></g></g></svg>