<svg xmlns="http://www.w3.org/2000/svg" width="58" height="58" viewBox="0 0 58 58"><defs><linearGradient id="bmvta" x1="28.52" x2="29.34" y1="40.57" y2="17.38" gradientUnits="userSpaceOnUse"><stop offset="0" stop-color="#c10029"/><stop offset="1" stop-color="#69002f"/></linearGradient><filter id="bmvtb" width="200%" height="200%" x="-50%" y="-50%"><feGaussianBlur in="SourceGraphic" result="FeGaussianBlur1043Out" stdDeviation="1.5 1.5"/></filter><mask id="bmvtc"><path fill="#fff" d="M40.525 17.382l-1.512 9.994v.002l-1.406 9.287v3.9h-17.38v-4.078h.004l-2.894-19.105zm-1.279 1.101h-20.63l1.347 8.893c.002 0 6.03-2.68 8.969 0 2.201 2.008 6.762 1.007 8.91.378z"/></mask></defs><g><g><path fill="#fff" d="M40.525 17.382l-1.512 9.994v.002l-1.406 9.287v3.9h-17.38v-4.078h.004l-2.894-19.105zm-1.279 1.101h-20.63l1.347 8.893c.002 0 6.03-2.68 8.969 0 2.201 2.008 6.762 1.007 8.91.378z"/><path fill="url(#bmvta)" d="M40.525 17.382l-1.512 9.994v.002l-1.406 9.287v3.9h-17.38v-4.078h.004l-2.894-19.105zm-1.279 1.101h-20.63l1.347 8.893c.002 0 6.03-2.68 8.969 0 2.201 2.008 6.762 1.007 8.91.378z"/><path fill="#fff" fill-opacity=".75" d="M14 44V14h30v30zm3.337-26.618l2.894 19.105h-.003v4.078h17.38v-3.9l1.405-9.287v-.002l1.512-9.994zM37.84 27.754c-2.147.629-6.708 1.63-8.91-.378-2.939-2.68-8.966 0-8.968 0l-1.347-8.893h20.63z" filter="url(#bmvtb)" mask="url(&quot;#bmvtc&quot;)"/></g><g><path fill="#69002f" d="M1.539 38.352c.327 1.001.757 1.34 1 2.311.374 1.49 1.385 3.093 2.072 4.361C9.9 54.78 21.846 57.74 31.905 58c1.096.029 1.67-.504 2.602-.706 1.051-.228 1.762-.177 2.886-.474 1.81-.478 2.966-.994 4.698-1.956.745-.414 1.621-.73 1.745-1.481-2.965-1.427-4.898 5.282-8.435.484-.42-.57-1.215.67-2.148.689-2.465.048-2.675.042-3.75 1.272-.633.725-2.101 1.241-2.844.136-3.863-3.412-6.639-2.824-8.992-4.067-1.784-.942-3.112-4.17-5.718-3.887-3.018 1.11-3.18-3.107-3.36-3.942-.082-.384-.154-.082-.047-.544.205-.885-.052.027.27-.43.075-.108.69-.255.155-.963-.594-.787-1.194.413-1.604-1.495-.384-1.782.025-.748-1.99-2.49-.947-.82-.666-.816-1.35-1.724-.66-.88-.726-.254-1.136-1.95-1.407-5.826.352-13.63 3.528-18.655 1.256-1.987 2.189-3.327 3.663-5.18.578-.654.963-.922 1.602-1.45 1.286-1.06 3.884-2.996 5.506-3.59l9.48-2.806 5.557-.26c1.03.024 1.47.302 2.403.524 2.424.576 2.242.73 3.514 2.505.959 1.339 1.694 1.811 3.978 1.734 3.471-.118 3.38.56 4.349 1.36 1.715 1.414 1.14.264 3.07 2.82 1.095 1.45 2.133 2.315 2.764 3.358 6.45 10.652 6.225 21.682-1.118 31.544-1.207 1.623-2.584 2.553-2.543 3.428 1.092-.042 3.264-3.012 3.895-3.76 7.167-8.501 6.46-20.082 2.593-30.045-.89-2.29-3.11-5.158-4.738-6.87-.675-.708-1.2-1.166-2.005-1.925C43.555 2.65 36.51.225 29.605.011 24.6-.143 18.226 1.567 14.152 4.318a51.903 51.903 0 0 0-4.43 3.339L7.749 9.622c-6.713 8.925-9.858 17.573-6.21 28.73z"/></g></g></svg>