<svg xmlns="http://www.w3.org/2000/svg" width="571" height="540" viewBox="0 0 571 540"><g><g opacity=".05"><path fill="#fff" d="M139.372 224.562l.436.325c28.812 21.414 63.209 34.014 98.457 39.785-.408-4.998-1.313-9.892-1.235-14.846-.433.51-.87.967-1.255 1.347-1.787 1.757-5.593 2.918-6.331 5.542-.025.118-.051.236-.08.354a3.4 3.4 0 0 0-.036.309c0 .115-.187.107-.203-.011a3.42 3.42 0 0 1 .196-1.306c.291-5.085-2.573-10.72-2.524-15.92l-.032.034c-1.429 1.527-3.049 2.86-5.095 3.401-.034.023-.08.025-.122-.013-2.94-2.588-.921-6.245.817-9.68-1.662 1.44-3.917 2.238-6.151 2.799.005.034-.058.064-.08.033l-.007-.012-.241.06c-.072.019-.098-.079-.05-.096.074-.02.147-.042.22-.064-1.659-2.434-1.087-6.855.495-10.097-1.749.618-3.842.683-5.35.41-2.88-.523-5.194-1.909-6.635-4.124-.563-.61-1.013-1.28-1.104-2.016a1.11 1.11 0 0 1-.005-.378 10.756 10.756 0 0 1-.082-.278 1.478 1.478 0 0 1-.712-.627c-.103-.157.05-.33.224-.26.392.146.831.263.93.58.88.142 2.1-.355 3.04-.772-1.188-.008-2.073-.342-2.972-1.422-.08-.098-.053-.256.019-.36 1.723-2.327 3.418-4.532 6.378-5.233 4.094-.974 9.558-2.522 10.04-7.614.294-3.122-1.543-5.815-4.42-6.934-3.32-1.31-6.108-.33-9.277.098-29.127 12.637-63.166 3.78-91.064-8.618-11.13-4.966-18.666-13.608-26.8-22.3-1.484-1.564-13.87-14.122-16.913-13.486a442.341 442.341 0 0 0 16.438 20.851c7.828 9.324 16.137 18.22 24.81 26.76.292.167.57.401.818.71.107.132.195.25.268.356 7.186 7.026 14.616 13.81 22.224 20.389.984.784 1.972 1.558 2.966 2.324a200.313 200.313 0 0 1-2.254-1.709c11.053 9.526 22.474 18.624 34.063 27.411 15.887 12.056 32.254 23.804 49.572 33.756 13.172 7.575 27.612 15.607 42.764 18.052 3.025.487 6.172.816 9.237.456 5.574-3.579 6.4-11.216 11.938-15.28 8.422-6.154 20.636-5.652 30.627-7.154 7.333-7.608 18.083-14.474 28.65-14.584.032-.146.066-.292.1-.437-28.886 4.791-58.643 5.888-87.749 2.836-2.493 3.861-4.61 8.765-4.574 13.179a27.168 27.168 0 0 0 1.213 5.009l.002.004.066.025c.055.014.02.077-.015.067l.118.203c.063.118-.09.236-.167.122a9.167 9.167 0 0 1-.329-.48c-4.164-1.844-6.07-7.48-7.246-11.48-.683-2.354-.834-5.23-.54-8.074-1.65-.237-3.297-.487-4.94-.752-.536.34-1.063.398-1.44-.235-1.442-.24-2.882-.49-4.32-.75-19.629-3.563-39.022-9.083-57.218-17.346-13.615-6.184-25.927-13.879-37.558-22.84zm72.016-38.014c-.638-3.358-2.393-6.404-5.624-7.837-3.325-1.468-6.957-2.158-10.542-1.378-3.14.684-5.373 2.833-8.288 3.93-9.56 3.622-19.9-2.594-27.466-8.154a10.873 10.873 0 0 1-1.802-.366c-.382-.102-.207-.627.155-.512.314.106.619.212.921.32.2-.054.47-.12.805-.196.917-.022 1.82-.187 2.707-.436 1.293-.401 2.541-.882 3.815-1.327.802-.275 1.6-.55 2.402-.804-6.014-1.063-11.864-4.637-16.278-8.45-6.479-5.603-10.44-14.383-18.372-18.169-.103-.041-.053-.228.071-.196l.098.03a5.68 5.68 0 0 1-.627-.71c-.108-.144.1-.347.229-.211 2.684 2.84 7.538 1.111 11 1.136.4.004.813.022 1.23.057-2.552-2.699-4.463-6.718-5.725-9.138-1.765-3.34-3.381-6.586-4.667-10.152-1.62-4.497-3.185-8.813-7.43-11.478-.168-.106-.05-.384.129-.29l.162.087c2.925-.074 5.804 1.495 8.308 2.834 1.168.624 2.342 1.212 3.498 1.82-4.122-3.083-7.699-7.233-9.664-11.994-2.3-5.577-2.78-11.844-5.474-17.233a5.041 5.041 0 0 1-1.383-2.413c-.16-.594.58-1.084.975-.527a20.17 20.17 0 0 1 1.511 2.562c1.731 1.602 4.524 2.275 6.636 3.64-2.13-3.802-4.635-7.381-5.78-11.696-1.1-4.197-2.047-8.59-2.16-12.948-.17-6.922 1.123-14.53 7.729-18.105.956-.511 1.647.804.7 1.293-.217.112-.43.23-.635.351-1.884 5.604 1.255 13.726 4.32 18.081 2.99 4.23 5.302 8.856 8.204 13.102-.489-2.739.112-5.818.098-9.056.006-.78 1.153-1.15 1.405-.327 1.027 3.142 3.41 6.324 5.471 8.877 1.366 1.693 3.04 3.463 4.248 5.42a7.42 7.42 0 0 0-.215-.597c-.323-.77-.768-1.314-.855-2.154a.47.47 0 0 1 .676-.466c.46.223.777.586 1.002 1.018 6.469 3.59 7.866 11.972 12.74 17.06-1.659-3.225-1.2-8.462-2.896-11.725-.136-.119-.27-.24-.4-.364a.635.635 0 0 1-.2-.582c-.16-.234.067-.492.303-.48a.528.528 0 0 1 .56.004c4.057 2.25 8.957 5.201 11.272 9.362 1.367 2.453 2.316 5.781 4.053 8.255-.201-.61-.3-1.293-.308-2.035-.042-3.514.842-6.535-.599-9.87-.103-.242.192-.548.433-.397 1.093.668 1.604 1.594 1.787 2.665 1.273 1.554 2.712 3.018 4.495 3.78 1.687.724 3.482 1.25 5.14 2.04 2.652 1.252 4.837 2.8 6.325 5.37 1.355 2.328 1.478 5.311 2.19 7.854.435 1.596.917 3.394 2.02 4.672 1.434 1.645 5.086 2.467 4.839-.61a7.955 7.955 0 0 0-.58-2.88c-1.677-3.877-4.627-7.02-6.143-11.01-1.358-3.634-2.247-7.438-2.368-11.339-.252-7.887 3.424-14.93 3.97-22.686a.786.786 0 0 1 .169-.456c.026-.163.077-.326.155-.49a.311.311 0 0 1 .48-.101c.171.144.33.298.48.459.199.108.363.28.44.508.705.877 1.294 1.861 2.24 2.609.895.728 2.23 1.462 2.898 2.432 1.19 1.708 1.674 3.42 1.865 5.296-.08-3.01-.84-5.892-1.165-8.943-.302-2.938.03-5.494.695-8.35 1.18-5.071 3.206-7.939 7.193-11.232.366-.302.755.171.634.528-.127.38-.3.709-.507 1.004-.299 3.018-.12 6.29-.515 9.396.384-.74.866-1.452 1.397-2.252 1.88-2.833 3.839-5.721 5.138-8.88 1.667-4.06 6.56-11.04 2.629-15.005-.487-.466.158-1.276.667-.814 2.392 2.223 3.98 5.76 4.495 9.343.848-2.257 2.075-4.404 3.291-6.501 1.376-2.362 2.951-4.724 3.284-7.532.202-1.772.076-3.521.08-5.276a3.319 3.319 0 0 1-.026-1.098c.062-.43.723-.637.95-.216.818 1.5 2.242 3.372 2.441 5.12.016.138.03.277.039.415.543-.692 1.284-1.324 2.248-1.932 1.823-1.151 3.081-2.372 4.008-4.343.763-1.648 2.5-5.029 1.758-7.141a13.487 13.487 0 0 0-.725-1.064c-.603-.815.547-1.894 1.286-1.201a4.377 4.377 0 0 1 1.17 1.78c1.036 1.857 1.81 4.038 1.764 6.135 4.033-7.512 2.95-19.162-6.564-21.047-.187.312-.558.506-.985.3-.732-.35-.797-.418-1.282-1.083-.34-.464-.03-1.226.575-1.241 4.019-.111 7.352.925 10.128 2.736 6.131 2.825 11.625 7.143 15.362 12.792 2.57 3.873 4.58 7.558 4.789 12.271.206 4.413-2.655 9.03-.549 13.252.897-2.72 3.007-4.935 4.718-7.165 1.294-1.693 2.73-3.454 3.507-5.467.482-1.213.31-2.602 1.097-3.63.235-.329.688-.246.91.034.262.31.41.666.466 1.05 2.34 2.237.89 10.29.58 12.564-.704 5.505-2.205 9.807-4.268 14.812 1.41-1.89 3.701-2.46 5.223-4.329.905-1.098 1.665-2.285 1.816-3.729.119-.968.106-1.942.265-2.896a5.276 5.276 0 0 1-.12-.556c-.069-.429.393-.834.805-.728 4.889 1.185 1.2 15.936.395 18.932-1.379 5.108-3.432 9.65-5.921 14.316-1.825 3.455-5.493 5.511-7.172 9.058 1.714-2.343 3.881-4.215 6.268-5.882 1.118-.77 2.326-1.46 3.358-2.345.26-.222.472-.475.67-.735.013-.085.027-.17.042-.254.069-.393.335-.6.635-.654.165-.2.343-.385.552-.544.277-.201.575-.038.731.228.302.592.106 1.18-.338 1.727-.875 5.125-.635 10.156-2.802 15.072-.965 2.17-2.118 4.443-4.015 5.954-2.402 1.916-5.22 3.288-7.424 5.46-2.094 2.067-8.663 10.14-9.644 15.627.02.009.037.028.034.055-.788 4.411 3.993 5.309 7.216 4.16 3.261-1.156 5.499-4.868 6.818-7.87 2.803-6.339 5.121-12.848 8.124-19.102 4.778-9.941 11.453-19.862 22.253-23.952a.817.817 0 0 1 .77.075c.444-.057.958.268.864.853a44.902 44.902 0 0 1-.88 4.404c.353-.432.71-.852 1.053-1.262 1.832-2.18 3.36-4.772 5.693-6.461 2.493-1.814 5.237-2.484 8.148-3.395 3.233-1.012 5.693-2.479 8.448-4.219.301-.312.633-.58 1.006-.79.321-.178.693.092.552.454-.678 1.682-1.694 3.208-2.795 4.67a24.335 24.335 0 0 1 2.262-1.774c2.324-1.61 4.692-2.765 7.365-3.646 1.647-.546 3.51-1.003 4.845-2.163.255-.22.494-.44.727-.657a21.354 21.354 0 0 1 2.09-2.242c.732-.685 1.691.627.912 1.306-2.542 2.236-4.514 5.016-6.517 7.765 5.865-6.435 12.988-11.168 21.756-13.206 3.329-.787 6.756-1.12 10.168-1.051 1.35.026 2.824.21 4.26.215a9.113 9.113 0 0 1 2.017-.22c.068.001.131.013.189.033a7.47 7.47 0 0 0 .187-.04c.645-.146 1.031.806.372.987-.36.1-.723.186-1.09.26-3.37 1.232-6.186 2.35-8.491 5.45-1.979 2.667-3.438 5.665-5.31 8.414-2.438 3.596-5.258 6.727-8.295 9.701 2.154-1.1 4.454-1.737 6.856-1.603.547.031.56.764.22 1.048-3.078 2.703-4.403 6.486-6.662 9.802-1.834 2.703-4.075 5.029-5.933 7.666 3.55-2.459 7.778-1.132 11.48-3.225.662-.367 1.303.503.684.977-4.36 3.374-5.263 9.277-8.753 13.37-3.82 4.482-8.171 8.158-12.621 11.948 3.983-2.05 8.289-3.724 11.88-6.416 3.258-2.427 6.279-5.226 9.35-7.892.675-.586 1.916.173 1.666 1.046-2.032 6.575-6.801 11.32-11.568 16.045-5.262 5.24-12.38 8.14-17.52 13.529 2.162-2.017 4.762-3.48 7.456-4.797 2.015-.976 4.144-2.28 6.317-2.873 2.118-.597 4.31-.81 6.224-1.714.66-.897 1.437-1.699 2.411-2.328 2.171-1.402 4.005 1.997 1.662 3.157-3.221 1.592-4.518 6.317-6.455 9.107-1.965 2.832-4.364 4.967-6.86 7.28-4.729 4.35-10.81 7.157-16.886 9.12-6.936 2.256-13.911 3.678-21.161 4.39-4.933.494-20.723 1.8-21.478 8.88.02-.039.042-.078.064-.118.094-.164.301-.08.302.092-.303 4.558 5.956 4.74 9.014 3.663 3.092-1.099 5.39-3.087 8.122-4.81 4.195-2.667 8.486-4.11 13.493-4.064 4.596.038 9.24 1.431 13.765 2.123 1.827.27 6.415.448 6.992 2.804.15.634-.355 1.097-.91.946-.318.247-.7.427-1.054.657-.875.58-1.742 1.165-2.573 1.8-1.491 1.131-3.167 2.328-4.208 3.907 3.762-.552 6.838-2.019 10.728-1.86 2.311.094 4.798.878 6.937 1.708 4.52 1.731 10.782 5.923 15.66 3.767.755-.34 1.414.882.676 1.288-.262.15-.53.276-.804.382-5.087 2.595-11.23 2.882-16.976 3.013 2.79.462 5.604 1.048 8.429 1.047 3.262 0 6.546.366 9.654 1.342 4.25 1.335 8.677 6.437 13.263 6.498.309-.124.6-.28.87-.479.988-.73 2.098.826 1.116 1.552-2.303 1.686-5.377 1.044-8.029.88-3.711-.234-7.449-.346-11.162-.613 8.22 2.686 16.702 4.296 22.99 10.928 2.39 2.514 5.13 5.62 5.815 9.151.777 3.99.134 8.771-.964 12.656-.027.073-.144.123-.197.04-.58-.972-.765-2.073-.762-3.228-1.336-3.62-3.323-7.213-6.467-9.39-4.83-3.353-11.595-4.306-17.344-4.08-2.957.117-7.487.7-11.734.4 3.126 2.506 5.938 6.195 8.098 8.345.475.481.173 1.619-.645 1.356-6.916-2.15-14.377-.212-21.462-1.73-.9-.191-1.88-.397-2.886-.644 1.77 1.443 3.093 3.404 3.87 5.61.108.375-.181.758-.583.695-5.726-1.068-11.582-.637-17.37-1.157-1.37-.129-2.653-.267-3.849-.54 1.677 1.73 3.13 3.701 4.133 5.416.2.347.137.912-.323 1.035-9.503 2.585-18.946 3.383-27.99-1.362-4.09-2.139-6.483-5.674-10.109-8.296-1.477-1.068-2.977-1.495-4.54-1.353-3.01 1.06-8.138 2.573-5.713 6.163 1.325 1.96 3.197 3.463 5.063 4.882 1.68 1.274 3.168 2.434 4.352 4.237 1.87 2.835.682 6.607 1.019 9.932.306.586.48 1.285.475 2.135-.008.662-.905.933-1.167.27a10.674 10.674 0 0 1-.603-2.311c-1.139-1.84-3.755-2.853-5.93-4.026 2.703 4.076 3.696 9.03 3.927 13.985a.08.08 0 0 1 0 .005c.005.038-.037.071-.08.04-1.95-1.285-3.6-2.848-5.066-4.62.382 1.247.63 2.474.676 3.602.07 1.955-.017 3.814-.754 5.658-.806 2.044-2.612 3.893-2.876 6.065-.013.066-.12.043-.106-.022.084-1.753 1.163-2.783 1.782-4.349.894-2.291 1.509-4.793.985-7.266-.875-4.038-3.805-7.191-4.72-11.095-.145-.597.598-1.101 1.02-.532l.102.143c1.768 1.584 2.687 4.012 3.896 6.02 1.4 2.342 2.961 4.445 5.024 6.238-.97-6.055-3.155-11.103-7.4-15.589-.73-.776.282-2.08 1.084-1.3.9.871 1.681 1.81 2.36 2.8 1.92.895 4.28 1.414 5.908 2.55-.217-3.79.382-7.552-3.35-10.316-2.042-1.531-4.245-3.005-5.938-4.96-4.222-4.915.021-8.612 5.035-9.439 1.881-.627 3.87-.698 5.717.406 5.304 3.164 9.35 7.845 15.218 10.268 7.395 3.062 13.919 2.332 21.381.374-2.45-3.547-6.34-5.513-8.744-8.951-.239-.314.123-.662.463-.54 1.628.58 3.27 1.723 4.778 3.114 2.727.698 5.798.512 8.613.659 4.316.223 8.623.139 12.903.85-1.169-2.711-3.135-4.268-5.47-5.967-2.741-.946-5.299-2.373-6.602-4.792-.03-.055.048-.11.084-.062 1.272 1.884 3.456 3.1 5.92 3.903a.338.338 0 0 1 .302-.036c.33.121.653.258.966.408 2.941.776 6.111 1.054 8.522 1.23 5.307.39 10.604-.503 15.813.426-1.55-1.666-3.093-3.349-4.79-4.86-1.59-1.423-3.403-2.407-5.128-3.532-2.597-.823-4.712-2.32-5.729-4.94-.33-.83.944-1.302 1.285-.49.743 1.85 2.357 3.013 4.348 3.74.47.097.939.243 1.403.43 3.747.954 8.308.744 11.015.738 5.414-.04 10.984.331 16.197 1.835 6.627 1.89 9.602 6.658 11.732 12.465.003-.254.015-.511.033-.77-2.298-6.787-8.008-11.455-14.448-14.413-3.534-1.617-7.203-2.674-10.872-3.931-3.742-1.273-7.288-2.96-10.96-4.402-15.422-6.125-31.516-10.162-47.908-12.583-17.052-2.53-35.617-5.507-52.6-1.2-8.944 2.284-17.95 5.176-26.664 8.66-2.935 1.661-5.902 3.214-8.959 4.602a16.219 16.219 0 0 1 5.826.396c4.829 1.224 9.52 3.395 13.647 6.192 8.405 5.665 15.507 13.877 18.972 23.507 3.674 10.294 2.405 20.317-.707 30.588-1.453 4.814-3.166 9.786-4.298 14.816a291.875 291.875 0 0 0 3.174.337c2.041-3.118 4.68-5.362 7.223-8.1 2.256-2.433 4.107-5.292 4.595-8.666.332-2.297.141-4.646.672-6.9a11.78 11.78 0 0 1 .013-1.775c.043-.613 1.037-.694 1.203-.102.774 2.6.655 5.342 1.67 7.928 1.015 2.581 2.44 4.768 4.296 6.812.073.1-.078.225-.162.143-2.484-2.284-4.864-5.477-6.122-8.926-.18 2.722-.834 5.499-2.056 7.698-2.022 3.595-5.177 5.833-7.865 8.84a31.21 31.21 0 0 0-2.452 3.148c28.756 2.807 58.612 2.052 87.491-3.091 3.71-12.672 18.673-24.873 32.015-22.708 5.985.974 11.778 4.62 14.96 9.892 1.494-.566 2.98-1.147 4.46-1.742 17.447-7.027 36.013-15.303 49.174-29.222 5.96-6.302 9.404-13.148 11.493-21.578 1.045-4.177 1.919-8.737 1.574-13.125a30.255 30.255 0 0 1-9.89 1.387c-7.835-.18-16.308-3.656-22.144-8.868-4.463-3.99-10.222-11.039-7.623-17.539 2.734-6.825 11.35-5.772 16.99-3.558 7.573 2.96 12.122 7.935 16.99 14.155 2.696 3.458 5.155 6.805 6.148 11.174.04.178.08.357.115.537a23.816 23.816 0 0 0 5.084-2.786c11.532-8.315 12.653-21.836 7.579-33.294-4.612 3.125-10.797 4.4-16.154 2.694-6.054-1.918-13.937-6.958-14.153-14.166-.157-5.784 3.734-9.268 9.493-8.336 9.04 1.463 17.169 8.38 21.966 16.888 6.526-6.898 5.168-18.215.017-25.968a56.361 56.361 0 0 0-.813-1.185c-1.246 1.002-2.628 1.798-4.135 2.303-4.998 1.682-11.736.8-14.627-4.217-1.988-3.486-3.348-9.453 1.51-11.137 4.008-1.382 9.918 1.291 12.804 4.02a40.886 40.886 0 0 1 4.989 5.753c3.391-3.714 5.948-8.884 5.834-14.006-.112-4.692-2.096-8.265-5.12-11.434-.151 1.822-.854 3.506-2.686 4.151-2.62.937-5.69.449-6.372-2.61-.57-2.62.307-5.262 3.21-5.573 1.74-.183 3.523 1.1 5.114 2.7a12.503 12.503 0 0 0-.1-1.873c-.52-4.183-2.425-8.104-2.495-12.357-.066-4.066.926-7.803 3.205-11.187 2.734-4.04 9.595-9.076 14.703-6.126 3.18 1.851 3.389 4.237 4.582 7.368 2.094 5.52 6.444-1.997 7.186-3.449a107.69 107.69 0 0 0 1.87-3.763c.135-.268.58-.136.497.16-.844 3.226-2.166 8.832-5.897 9.987-5.525 1.692-4.549-4.084-6.745-7.055-4.304-5.78-12.412-1.378-15.582 3.389-4.974 7.457-2.706 14.198-.863 22.169.243 1.013.437 2.288.402 3.54l.182.201c4.51 4.156 7.193 9.45 5.96 15.965-.763 3.96-2.739 8.338-5.734 11.512 2.221 3.501 3.856 7.368 4.623 11.457 1.22 6.458.36 14.062-4.752 18.693 2.56 5.021 3.958 10.504 3.725 15.698-.518 11.714-7.866 20.685-17.966 24.274.514 5.802-1.073 11.927-2.83 17.293-4.895 14.932-15.494 25.715-28.52 34.08-11.045 7.09-22.919 12.413-35.223 16.634 2.64 6.048.264 11.025-3.309 15.894 8.085-2.46 18.32-2.148 24.297 4.546 3.434 3.843 4.958 7.963 5.048 12.024 8.512-9.857 26.558-16.35 36.61-6.489 5.602 5.487 4.488 14.685.943 20.954a38.878 38.878 0 0 1-2.726 4.15c3.123-1.817 6.498-3.286 9.905-4.497 10.329-3.666 22.312-3.943 28.381 6.732.219.382.42.765.603 1.151 6.55-5.613 16.43-9.603 24.937-8.789 7.508.71 16.554 5.182 18.049 13.404 1.514 8.32-4.122 16.695-11.184 20.635-5.484 3.06-11.62 3.251-17.612 2.318 3.321 1.445 6.547 3.12 9.397 5.104 4.133 2.87 8.604 6.979 9.898 12.106 8.93-3.594 18.054-1.048 26.777 2.604 7.283 3.058 16.022 7.014 18.073 15.553 1.903 7.85-1.062 15.767-8.177 19.771-7.613 4.307-17.498 3.433-25.506.441.88 1.972 1.366 4.155 1.33 6.57-.203 13.486-12.492 20.09-24.859 18.276-6.074-.902-12.967-2.676-17.874-6.547-4.502-3.538-7.893-7.968-10.888-12.756-1.345 3.853-3.792 7.315-7.373 9.42-4.59 2.702-9.438 3.338-14.157 2.576 2.664 5.743 1.738 13.196-1.572 18.47-3.232 5.143-9.663 8.02-15.617 7.914-7.117-.121-14.787-3.805-19.92-9.39l.023.092c2.503 10.057-4.371 19.553-14.675 20.355-15.497 1.21-39.898-10.966-35.48-29.243-.053.025-.106.05-.16.073-5.07 2.25-10.423 1.795-15.381-.052 3.724 4.936 4.636 11.1.967 16.79-3.628 5.642-9.84 7.99-16.348 7.937-6.987-.06-13.317-3.377-18.002-8.458-.263-.286-.533-.58-.808-.882.93 5.782-2.745 10.461-8.858 12.103-9.26 2.485-18.527-3.493-24.127-10.494-5.62-7.017-9.37-16.158-10.237-25.138-.568-6.004-.569-14.137 4.467-18.337-3.095-5.394-5.764-11.262-6.26-17.416-.227-2.833-.035-5.6.612-8.22-4.426.302-5.222-5.482-5.45-8.832-.17-2.415-.222-5.084.318-7.461.647-2.933 1.22-6.047 1.953-8.992a43.896 43.896 0 0 1-1.01-3.17c-3.13-11.29-9.416-23.017-18.332-31.019a206.22 206.22 0 0 1-6.322-2.638 128.536 128.536 0 0 1-4.5-1.604c-19.29-7.257-36.959-18.382-53.965-29.871-24.493-16.527-48.099-34.148-69.923-54.042 4.047 5.335 7.88 10.847 11.687 16.357 5.986 8.643 11.784 17.828 14.22 28.186a45.934 45.934 0 0 1 1.158 8.653c.178.962.331 1.957.835 2.805 1.35 2.28 2.104 4.896 3.163 7.328 1.366 3.143 3.427 5.868 4.588 9.109 1.115 3.124 2.826 6.42 4.528 9.38 1.506-1.752 3.008-3.508 4.835-4.92 2.994-2.322 6.649-3.302 10.262-1.675 4.865 2.188 7.201 7.947 12.278 9.568 1.331-.37 2.11 1.83.692 2.336-2.15.765-4.812 1.01-7.207.695 1.175.61 2.349 1.27 3.598 1.83 3.27 1.464 6.993 2.807 10.56 1.562 1.613-.555 2.867-1.1 4.543-.732.482.099.424.747-.045.834-.358.065-.712.134-1.063.203-1.79.676-3.171 3.062-4.843 3.917-.975.503-1.88.872-2.803 1.056 1.793.453 3.356 1.432 5.011 2.764 4.123 3.353 10.277 8.398 15.263 3.434.358-.357.812.125.598.433a.32.32 0 0 1-.052.253c-1.107 1.612-2.784 2.532-4.382 3.577-.892.583-1.763 1.095-2.698 1.448 1.919-.15 3.712.06 5.811.837 2.999 1.113 9.674 3.424 12.553.871a.392.392 0 0 1 .087-.058 7.33 7.33 0 0 0 .342-.608c.276-.549 1.13-.149.847.405-.94 1.914-2.527 3.206-4.232 4.45l-.012.01c2.067-.917 4.45-1.17 6.654-1.67 3.02-.682 7.64-1.094 10.69-2.791l.008-.014c.235-.378.585-.563.945-.602.177-.133.346-.273.505-.42.518-.485 1.213.417.715.903.237.3.3.712.023 1.16a25.106 25.106 0 0 1-2.194 3.022c-4.39 7.899-11.31 14.84-20.284 16.481 1.514.642 2.85 1.008 4.724.332.827-.298 1.466.85.732 1.358-2.616 1.839-5.582 5.5-8.945 5.899-.124.015-.248.028-.372.04 5.452 4.788 9.759 11.438 14.138 17.079 7.618 9.82 15.232 19.657 22.371 29.818 8.412 11.952 14.732 27.153 15.306 41.846.446 11.087-4.97 34.35-19.506 32.014.705 6.987.622 14.18-.781 20.842-1.457 6.942-6.125 14.533-13.824 15.494-4.052.498-7.783-.656-11.01-2.755-.752 3.623-2.29 7.119-5.332 9.038-6.578 4.16-13.943.857-18.98-4.204-3.489 3.111-6.915 6.236-6.39 10.983.438 4.097 2.828 7.533.67 11.543-1.36 2.559-5.228 2.986-7.736 3.45-1.407.261-1.594-1.96-.2-2.21 3.506-.643 7.65-1.676 6.595-6.388-.528-2.375-1.643-4.727-1.54-7.214.156-3.551 1.48-6.478 4.172-8.827 1-.873 2.111-1.743 3.2-2.657-.115-.134-.23-.268-.342-.403-2.54-3.041-4.854-6.597-4.814-10.7.024-2.265 1.533-5.076 4.026-5.32 5.543-.537 10.825 5.807 8.24 11.112-.847 1.73-2.218 3.242-3.743 4.688 6.116 5.832 15.129 9.026 18.712-.663a22.987 22.987 0 0 0 1.076-4.023c-2.594-2.228-4.766-5.045-6.391-7.973-1.966-3.545-5.752-14.43-1.002-17.609 9.621-6.437 10.526 16.928 10.43 21.31a40.24 40.24 0 0 1-.173 2.872c2.686 2.063 5.845 3.213 9.337 2.752 11.01-1.465 13.24-15.864 13.322-24.918.022-2.934-.048-5.937-.281-8.94-.333-.12-.67-.252-1.012-.396-5.832-2.463-10.14-6.83-13.084-12.331-2.39-4.439-5.183-9.664-5.116-14.842.06-4.97 4.987-5.455 8.525-3.333 6.862 4.127 10.484 14.575 11.968 21.89.46 2.287.855 4.64 1.165 7.027 1.788.36 3.608.282 5.357-.488 4.785-2.1 7.805-7.344 9.468-12.105 3.842-11.078 2.442-22.36-.96-33.365-2.183-7.058-4.595-14.278-8.51-20.587-6.718-10.829-14.787-20.902-22.807-30.788-3.69-4.557-7.894-8.899-11.268-13.679-.76-1.062-1.58-2.272-2.427-3.434a.61.61 0 0 1-.132.028c-5.396.537-10.46 1.484-15.883.944-1.466-.141-2.867-.339-4.212-.823a29.143 29.143 0 0 1 2.075 2.637c.278.38.001.868-.428.933-5.659.821-10.803-.402-15.554-3.63-2.592-1.762-4.681-3.758-6.949-5.904-1.15-1.077-2.58-2.537-4.225-2.674-2.006-.149-7.499 1.006-5.078 4.87.097.15.08.3.005.41 2.39 2.456 4.529 3.554 7.937 4.492 1.912.532 3.915 1.083 5.665 2.045 2.515 1.389 6.406 3.389 7.728 6.026.24.499-.276.89-.725.82-2.933.325-5.818 1.114-8.742 1.442 3.283-.256 6.418.223 9.379 1.916 3.227 1.85 4.72 4.207 7.13 6.885.151.168.164.355.096.516-.048.36-.331.697-.786.61-2.416-.459-4.803-.29-7.234-.838h-.001c2.588 1.158 5.154 2.257 7.29 4.433 2.634 2.684 3.966 5.38 4.764 8.9.032.11.058.227.077.35.124.579-.869.807-1 .229-.427-1.848-4.922-2.113-6.513-2.709a15.57 15.57 0 0 0-1.015-.325c2.975 2.602 5.331 5.93 7.139 9.396.145.286.288.57.339.786.144.083.277.175.393.28.22.191-.013.612-.28.445a2.02 2.02 0 0 1-.405-.343 1.926 1.926 0 0 1-.497-.117c-1.132-.38-2.282-.708-3.427-1.045-.39-.118-.794-.25-1.197-.402 2.773 2.898 3.963 6.778 5.481 10.703 2.914 7.479 7.906 13.24 15.776 15.424.063-.193.24-.34.514-.288.316.058.61.122.934.182.496.099.58.816.095.989-.587.209-1.188.404-1.8.584a3.32 3.32 0 0 1-.82.23c-14.396 3.856-34.456-.365-40.282-15.227a7.5 7.5 0 0 1-.162 1.974c-.396 2.029-1.8 3.8-1.891 5.888l.1.137c.026.04-.024.08-.047.055a33.83 33.83 0 0 1-.087-.085c-.021.005-.045-.005-.045-.034v-.01c-2.548-2.502-4.244-4.999-5.295-8.466-.346-1.16-.776-2.479-.878-3.772-1.176 1.453-2.823 2.52-4.576 3.254-.109.117-.23.225-.365.323-.033.02-.085-.027-.047-.06.048-.047.093-.097.134-.15a5.403 5.403 0 0 1-.011.004c-.048.021-.084-.055-.02-.075l.106-.036c1.1-1.735-1.054-6.332-1.329-8.201-.195-1.355-.292-2.671-.149-3.961-.552.313-1.141.586-1.673.893-.834.478-4.67 1.367-4.353 2.694.023.056-.073.07-.06.005.06-1.208 1.712-1.983 2.612-2.498 1.12-.645 2.882-1.485 3.778-2.655.123-.43.28-.858.476-1.284.445-.968 1.902-.07 1.233.795a4.337 4.337 0 0 0-.081.109 2.86 2.86 0 0 1-.451.778c-1.279 2.82.238 6.894.86 9.63.268 1.195.222 2.63-.562 3.578 2.392-1.02 4.576-4.013 4.885-6.498.086-.744 1.318-.539 1.148.205a7.608 7.608 0 0 1-.689 1.844c-.43 2.159.64 4.853 1.35 6.74.905 2.412 2.43 4.547 3.946 6.62-.072-1.674.406-2.979.936-4.569.844-2.494.28-4.456-.144-6.926-.07-.41.556-.453.624-.06.234 1.226.527 2.168.662 3.147 2.937 6.78 9.525 11.95 16.377 14.315 6.256 2.166 13.352 2.213 20.056 1.13-4.852-.97-10.163-4.684-13.163-6.837a116.913 116.913 0 0 1-2.604-1.907c-4.01-2.803-7.769-5.996-11.078-9.513-4.074-3.99-7.83-8.299-11.125-12.872-8.679-12.073-15.258-26.375-19.84-40.488-4.66-14.323-7.894-29.905-5.81-45.029a42.364 42.364 0 0 1-.56-2.644c-.151 1.092-.327 2.169-.472 3.209-.533 3.671-1.177 7.353-2.182 10.927-1.839 6.505-4.67 12.539-7.98 18.404-6.678 11.824-14.728 22.903-24.426 32.428-9.941 9.767-21.443 17.785-33.256 25.073-6.045 3.717-12.573 7.21-19.567 8.679-3.615.76-7.18.999-10.747.962-4.021.649-7.623-.294-11.586-.65 17.931 6.868 37.66 1.076 52.863-9.573 1.36-.95 2.616 1.266 1.085 2.042-.227.115-.454.23-.682.343-1.033 1.754-2.433 3.45-2.934 5.343-.176.655-.322 1.273-.54 1.844 2.31-1.84 6.59-2.567 8.784-3.181 4.7-1.323 8.935-3.022 12.265-6.31.416-.707.943-1.344 1.655-1.868.177-.229.35-.464.52-.705.492-.695 1.37.057 1.15.729-.583 1.772-2.006 3.237-3.762 4.432a29.426 29.426 0 0 0-.55 1.617c-.431 1.358-1.117 2.433-2.004 3.435 5.905-3.065 15.64-4.753 19.804-10.027a7.815 7.815 0 0 1 1.228-2.03 9.162 9.162 0 0 0 .75-3.288c.037-.866 1.422-.639 1.345.25a11.124 11.124 0 0 1-.849 3.439c-.31 1.837-1.676 3.409-2.117 5.253-.402 1.624-.395 3.308-.612 4.96 6.535-2.333 12.092-7.99 15.002-14.264 1.746-3.765 2.404-7.625 2.02-11.745-.184-2.125-.508-4.684.412-6.704 1.128-2.48 3.93-6.37 6.758-3.454 1.435 1.469 2.03 4.398 1.051 6.305-.699 2.688-3.13 5.748-3.333 8.027-.35 3.81 2.088 7.432.378 10.862.762-.748 1.9-.79 2.831-1.356a30.507 30.507 0 0 0 4.166-3.103c.102-.352.218-.698.347-1.034.298-.754 1.4-.463 1.471.266.03.135.048.261.061.396.062.5-.3.791-.694.839-2.587 4.18.278 9.81-.61 14.353-.01.053-.084.034-.069-.024.684-2.96-.81-6.731-1.044-9.727a14.702 14.702 0 0 1 .221-3.735c-.8.567-1.654 1.058-2.526 1.565-.632.366-1.337.725-2.039.889-.748.171-1.744.182-2.228.887a6.223 6.223 0 0 1-.359.574c-.008.025-.062-.002-.055-.035.495-2.69-1.417-5-1.933-7.5-.314-1.52-.387-2.996-.295-4.548.104-1.709.508-3.16 1.264-4.7.565-1.144.922-2.277 1.23-3.43-.057-.813.061-1.644-.025-2.5-.247-2.301-2.25.306-2.556 1.144-.526 1.483-.65 2.947-.609 4.505.104 4.295-.113 8.668-2.055 12.59-3.483 6.992-9.033 13.01-16.824 14.893-.113.03-.187-.102-.112-.171-.537-1.75-.678-3.982-.324-6.081-5.401 4.542-14.853 5.786-20.404 8.856-.289.158-.595-.238-.309-.434.409-.275.849-.537 1.315-.79 1.063-1.359 1.54-3.048 2.057-4.697-2.449 1.479-5.347 2.493-7.511 3.133-2.366.703-4.811 1.285-7.199 1.909-1.243.325-3.764.758-5.256 1.75a4.12 4.12 0 0 1-1.151 1.475c-.03.032-.107-.025-.08-.068l.057-.096c.075-.193.169-.378.278-.556.705-1.641.635-3.588 1.494-5.186.387-.741.757-1.491 1.136-2.238-3.618 1.729-7.336 3.328-10.969 4.97-4.25 1.917-8.655 3.568-13.258 4.392-9.619 1.722-18.38.463-27.376-3.132a33.983 33.983 0 0 0-.521-.04c-.055-.003-.06-.106.001-.108a28.624 28.624 0 0 1 .575-.01.046.046 0 0 1 .038-.03l.294.03c4.304.013 8.545.832 12.78-.43 4.076-1.215 7.905-3.093 11.745-4.928 6.473-3.1 12.695-6.743 17.862-11.72-2.441.535-5.551.402-7.042.38-2.17-.029-6.543-.615-6.706-3.463-.001-.013 0-.025.002-.036a.112.112 0 0 1 .094-.094c4.522-.18 10 1.373 13.763-1.961 1.293-1.148 2.476-2.649 3.947-3.591 1.282-.822 2.64-1.5 3.947-2.272-3.325.13-6.598-.188-9.849-.898-.86.013-1.75-.087-2.682-.322-.199-.05-.149-.327.055-.312l.131.012-.205-.058c-.133-.037-.107-.23.038-.203.502.103 1.005.198 1.51.283 4.239-.226 7.326-3.226 10.934-5.306a66.386 66.386 0 0 1 3.113-1.688 10.12 10.12 0 0 1-2.133-.252c-2.885-.688-5.285-2.494-8.135-3.28-.48-.127-.5-.858.038-.894 4.56-.322 8.017-3.653 12.091-5.406-2.132-.918-4.12-2.509-5.394-4.09-.325-.405-.041-.92.383-1.071a.547.547 0 0 1 .547-.007c3.304-5.416 7.654-9.921 13.688-12.313 5.446-2.158 17.642-.983 18.788-8.937.428-2.883-2.943-3.807-5.257-3.369-1.935.36-3.54 1.377-4.996 2.665-2.34 2.062-4.38 4.614-6.976 6.358-6.308 4.259-12.783.942-19.714.921-.85.074-.972-1.216-.12-1.313.222-.025.444-.046.667-.063 2.204-.468 3.434-3.403 5.448-4.9-4.345 1.05-8.271 4.282-12.822 4.346-4.967.07-9.52-1.016-13.863-3.438-.34-.18-.423-.775.023-.89 2.09-.551 3.679-2.2 5.593-2.97-4.486-.564-9.008 1.566-13.416-.236-4.154-1.72-7.124-4.85-10.126-8.127-.304-.33.099-.782.465-.734.413.057.818.083 1.22.095-4.693-1.562-7.067-6.677-9.403-10.909-3.69-6.683-7.182-13.621-8.463-21.263a53.138 53.138 0 0 1-1.178-5.9c.003-.048.068-.061.08-.015.55 2.088 1.157 4.187 1.844 6.268a41.95 41.95 0 0 1 1.287 3.615c.34.882.696 1.757 1.071 2.623 2.152 3.207 5.107 5.995 8.413 7.723 3.852 2.012 7.211 2.325 11.033 2.396-.892-.427-1.727-1.023-2.527-1.784-1.187-1.136-1.399-2.963-2.004-4.474-1.217-.486-2.201-1.286-2.387-2.694-.054-.402.392-.633.72-.501 1.298.517 2.013 1.305 2.458 2.508 2.375.81 6.025.564 7.474.587 2.372.04 4.902.27 7.251.961-.676-1.075-1.238-2.406-2.247-3.45-.311-.33 0-.918.443-.701 3.661 1.741 11.545-1.789 15.913-.137-.05-1.705.408-3.372.749-5.022.086-.34.607-.236.51.09a4.714 4.714 0 0 1-.004.014c3.289 1.481 7.938-.673 11.46-.388 1.902.146 3.641.262 5.33 1.167 1.086.581 2.01 1.344 2.978 2.051a37.663 37.663 0 0 1-.914-1.67c-.237-.481.296-.936.742-.879 1.57.204 3.311.41 4.668 1.31 1.914 1.254 4.154 5.254 6.769 2.892 4.918-4.446-8.838-6.104-10.757-6.459-8.533-1.607-15.879-3.665-21.303-10.726-.367-.453.215-1.21.734-.883 2.959 1.838 6.166.553 9.301.357-2.585-.793-5.403-1.498-6.848-3.837-1.044-1.675-1.965-6.152-3.77-7.392a5.748 5.748 0 0 1-.493-.247c-.348-.207-.205-.877.233-.737l.102.035.004.002c.136.051.267.116.393.193 1.8.747 4.158.034 6.32-.25-1.157-.37-2.27-.82-2.989-1.596-1.58-1.684-2.556-4.05-4.725-5.036a2.665 2.665 0 0 1-.063-.028c-.58-.265-.165-1.132.433-.907.282.108.56.177.834.219l-1.1-.526c-2.13-1.025-4.422-1.625-6.473-2.792-2.499-1.428-4.126-4.313-3.932-7.153.02-.41.703-.473.81-.074l.023.092c3.365 2.848 6.814 4.147 11.24 3.916 3.437-.18 6.83-.526 10.27-.203 1.768.163 3.354.566 4.972 1.205 2.619 1.018.564-.51-.19-1.048-1.241-.874-2.447-1.67-2.756-3.225-.04-.206.182-.354.36-.324 4.229.563 8.522 2.343 11.532 5.477a145.505 145.505 0 0 0 4.427 4.402c.323.31.583.577.793.848-.412-2.696-1.987-5.415-3.374-7.606-.062-.119.015-.29.161-.26 4.53 1.05 9.616 4.311 11.906 8.464 1.62 2.923 1.66 7.887 3.59 10.94-.179-.488-.23-1.046-.103-1.69.187-.996.51-1.97.865-2.916.424-1.101.246-2.31.712-3.33.107-.233.455-.342.654-.144.11.112.203.233.279.362 4.644 1.749 10.004 2.231 13.91 5.542 2.85 2.433 5.637 5.338 7.381 8.692 1.093 2.071 2.302 5.26.217 7.184-1.823 1.684-8.06 1.778-4.494 5.986 1.545 1.825 4.502 3.254 6.897 2.748.476-.22.951-.458 1.426-.715 2.805-8.569 4-17.714 2.747-26.683-1.617-11.46-7.636-21.577-14.062-30.996-4.325-6.338-8.357-13.344-13.503-19.068-2.2-2.468-4.43-4.932-6.672-7.382-1.255-1.383-3.115-2.235-4.237-3.624-.699-.865-.74-1.769-.401-2.519-24.034-24.341-44.441-51.673-62.68-80.587.608 1.349 1.219 2.695 1.821 4.038 3.53 7.892 9.34 14.464 11.567 22.953 4.423 16.997 1.908 38.163-10.592 51.446a22.623 22.623 0 0 1-2.22 2.056c1.185 5.08.877 11.06-.567 15.552 3.754 1.85 6.094 5.446 4.963 11.136-3.31 16.709-28.155 10.883-34.515 24.45-2.367 5.037-1.313 12.244 5.777 11.397.252-.03.507-.066.763-.107a6.094 6.094 0 0 1 .123-1.727c.56-2.68 3.586-7.15 6.932-6.55 2.904.529.366 5.354-.783 6.38a12.276 12.276 0 0 1-4.699 2.575c.032.075.065.15.101.225 1.647 3.447 5.69 4.292 9.064 2.986 2.588-.998 4.79-2.687 6.618-4.77.725-.822 1.432-1.66 2.07-2.551-.005.004 1.646-2.74.811-1.915-.023.03-.083-.02-.052-.051.62-.645.274-.382 1.138-.776.077-.028.156.063.12.13-2.555 5.285-6.097 11.217-12.625 11.782-3.437.304-7.708-1.36-8.647-4.754-2.106.32-4.283.029-6.258-1.02-3.814-2.028-3.431-7.634-1.887-10.947 5.324-11.434 20.459-10.202 29.478-17.092 3.568-2.734 5.981-6.566 5.32-11.248-.404-2.842-2.013-5.036-4.211-6.426a15.27 15.27 0 0 1-1.084 2.261c-3.254 5.488-8.652 8.55-15.056 8.168-4.492-.254-8.233-4.164-4.205-8.2 4.144-4.164 12.252-5.927 18.316-4.266 1.032-2.765 1.508-5.827 1.431-8.878-.034-1.337-.13-2.845-.367-4.364-4.224 2.724-9.483 3.994-13.925.937-4.77-3.276-4.044-10.27 1.787-12.056 7.213-2.206 11.486 1.765 13.464 7.585 4.23-4.159 7.487-10.29 9.203-14.511 4.19-10.27 5.355-21.514 3.023-32.4-1.434-6.642-3.93-12.197-7.43-17.965-1.59-2.66-3.09-5.392-4.171-8.303-1.105-3.015-2.074-6.083-3.074-9.139a708.28 708.28 0 0 1-5.704-9.349 756.594 756.594 0 0 1-27.865-50.87C7.306 51.293 4.352 45.15 1.535 38.946c-.411-.905-2.253-3.7-1.201-4.714.532-.513 1.349-.71 1.971-.166.88.758 1.34 2.298 1.86 3.32 1.311 2.597 2.61 5.203 3.913 7.797a4142.068 4142.068 0 0 0 12.935 25.62 2196.91 2196.91 0 0 0 3.831 7.467 799.64 799.64 0 0 0 9.463 16.992c10 10.514 23.113 17.712 37.872 19.447 8.733 1.019 18.356-.268 26.466-3.845 4.772-2.108 8.546-5.467 9.318-10.888.542-3.951.284-8.244-1.04-12.034-1.225-3.504-3.072-6.813-5.36-9.83-1.83.434-3.884.494-6.118.145-7.328-1.144-17.572-1.827-22.257-8.585-1.667-2.403-3.387-5.752-1.725-8.58 1.15-1.967 3.744-2.392 5.828-2.114 7.561.982 15.654 7.621 20.88 12.808a53.899 53.899 0 0 1 3.546 3.853c4.634-1.433 7.174-6.303 6.694-11.395-.472-4.816-3.127-9.28-6.363-12.92-.324.126-.664.242-1.022.346-5.16 1.494-14.443-.515-14.863-7.363-.496-8.173 9.772-1.716 12.464.582a56.217 56.217 0 0 1 4.165 3.9c.319-.307.615-.653.884-1.042 2.545-3.681.917-8.725-1.052-12.308-.071-.13-.144-.264-.22-.4-2.67.997-5.218.696-7.333-1.325-.972-.958-3.033-4.17-1.572-5.552 2.603-2.457 6.61-.047 9.624 4.054 2.343-1.919 2.705-5.005 3.626-8.094 1.711-5.73 6.095-8.15 11.623-4.834 3.346 2.033 6.172 5.025 9.66 6.79 5.747 2.894 8.71-1.185 10.935-6.089.454-1.005 1.968-.293 1.53.709-2 4.491-5.178 9.886-10.966 7.955-2.888-.957-5.254-2.865-7.653-4.694-2.433-1.905-5.977-5.108-9.367-4.405-4.15.854-4.187 6.772-5.208 10.027-.518 1.662-1.589 3.287-3.01 4.396 3.264 5.44 4.607 12.718-.194 16.233 4.036 4.582 7.236 10.19 6.631 16.17-.56 5.614-3.28 9.536-7.481 11.204 3.54 4.76 6.069 10.204 6.442 16.264.48 7.762-2.045 14.639-9.539 17.9-8.188 3.575-18.02 5.465-26.924 4.38-9.543-1.17-19.932-4.418-27.967-9.851a55.331 55.331 0 0 1-8.991-7.614c10.336 17.806 21.467 35.232 33.592 51.814 1.061-1.204 2.87-1.508 4.705-.934 4.184 1.312 7.038 4.77 9.982 7.864 6.863 7.273 12.39 15.556 20.054 22.086 7.294 6.26 16.55 9.63 25.423 13.067 8.939 3.45 18.071 6.333 27.508 8.038 17.446 3.167 37.1 1.778 52.919-6.794 1.533-1.8 1.372-5.004.935-7.255zm-62.97 104.302c-.148.471-.301.941-.46 1.41-.135 2.866.356 6.659 1.395 8.832 1.998 4.212 6.965 5.099 10.532 2.304 1.146-.896 2.164-1.926 3.137-3.003-1.846-3.265-3.862-6.426-5.717-9.684-1.767-3.108-2.856-6.368-4.286-9.637-.7-1.596-1.233-3.151-1.72-4.718-.388 4.924-1.417 9.81-2.882 14.496zm53.913 126.218c-3.719-6.38-4.306-15.497-11.313-19.405-.535-.3-.108-1.178.414-.87a13.006 13.006 0 0 1 2.45 1.85c1.188.327 2.484.511 3.333.769.481.142 1.092.266 1.66.455-.456-.803-.783-1.796-1.146-2.413-1.76-3.005-4.112-5.307-6.51-7.703-1.376-.395-2.75-.866-3.611-1.97-.025-.037-.01-.095.043-.098.061 0 .123-.002.187.008.043-.012.06-.008.112-.014.04 0 .048.056.022.07 1.47-.175 4.343.87 5.703 1.18 1.334.297 2.715.884 4.041 1.296.549.17 1.094.37 1.568.642-1.08-4.123-3.634-7.641-7.534-9.755-1.975-1.06-4.098-1.792-6.085-2.794a8.931 8.931 0 0 1-2.012-1.107c-.03-.017-.021-.048 0-.062-.233-.197.092-.567.357-.384a23.223 23.223 0 0 0 2.658 1.496c2.38.45 5.028.183 7.465.235-.175-.23-.352-.499-.56-.828-1.238-1.893-2.855-3.19-4.855-4.251-3.344-1.785-6.27-3.31-10.211-3.118-.045.005-.054-.059-.017-.065a25.5 25.5 0 0 1 .8-.1c-.043-.012-.04-.068.006-.077 1.079-.108 2.19-.525 3.2-.923 1.659-.67 3.204-1.176 4.888-1.48-3.64-2.88-6.678-5.668-11.464-7.008-1.96-.55-3.684-1.072-5.425-2.17-1.274-.792-1.746-1.943-2.471-3.115a.353.353 0 0 1-.476-.1c-1.39-1.802-1.294-3.972.705-5.356 2.527-1.74 5.162-1.857 7.81-.272 3.409 2.067 5.774 5.683 9.184 7.897 4.274 2.78 8.603 4.047 13.6 3.577-2.213-2.933-5.006-5.313-8.538-6.538-.401-.146-.177-.774.223-.692 2.156.422 3.961 1.342 5.54 2.592 1.693.982 3.344 1.609 5.496 1.781 5.197.427 9.964-.288 15.01-.919-1.254-.985-2.441-1.996-3.77-2.69-1.467-.218-2.925-.538-4.37-.85-.679-.145-.575-1.022.038-1.148 2.396-.473 4.184.163 5.835 1.228 1.947.15 3.865-.083 5.368-1.114 1.493-1.024 2.804-2.255 4.175-3.407-1.324-.15-2.575-.696-4.038-1.395a.632.632 0 0 1-.379-.482c-.043-.035-.045-.109-.005-.152.03-.428.45-.84.966-.614l.592.265c5.444-1.346 11.165-4.831 14.641-9.09.804-.983 1.497-2.046 2.142-3.143-4.594 3.837-10.281 6.747-15.498 8.608-10.055 3.596-21.504 5.67-32.165 4.25-12.971-1.73-22.442-8.775-31.267-18.091-4.225-4.455-8.4-9.495-10.569-15.324a39.971 39.971 0 0 1-.47-1.337c.052 6.308-.546 12.606.296 18.938 1.015 7.695 3.051 15.324 5.522 22.676 4.399 13.174 10.248 26.418 18.084 37.93 6.269 9.207 14.324 17.434 23.174 24.17 1.147.876 2.31 1.757 3.496 2.614a78.39 78.39 0 0 0 3.263 1.892c2.3 1.262 4.655 2.47 7.098 3.427.966.376 2.593 1.118 4.165 1.486.865-.176 1.72-.368 2.564-.576-5.278-.582-10.415-3.65-13.135-8.332zM183.877 304.37c-1.128-.277-6.099-2.114-6.66-.186-.01.052-.094.048-.102-.008-.323-1.81 1.7-2.187 3.117-2.096 3.008.197 6.018.817 8.963.34-4.565-2.559-6.9-8.774-12.66-9.195-4.867-.357-8.102 3.876-11.173 7.477a1.285 1.285 0 0 1-.704.816 26.779 26.779 0 0 1-1.706 1.795c-3.303 3.107-8.824 5.218-12.651 1.573-2.508-2.398-3.532-6.362-3.276-10.042a60.011 60.011 0 0 1-1.198 2.885c.08.59.161 1.181.246 1.775.189.076.356.242.396.44.222 1.145.278 2.333.237 3.534.708 3.917 1.717 7.794 3.497 11.296 2.87 5.658 7.26 10.756 11.746 15.192 8.099 8.041 16.874 14.397 28.508 15.645 10.3 1.108 21.422-.515 31.083-4.234 6.896-2.649 14.706-6.988 19.244-13.148-2.565.899-5.567 1.294-7.854 1.81-2.19.498-4.36.959-6.547 1.472-.604.146-2.089.145-2.939.371-1.069.712-2.142 1.21-3.562 1.066-.19-.018-.145-.28.01-.303 1.615-.351 3.168-1.593 4.463-2.588.71-.539 1.391-1.08 1.997-1.692-2.14.662-5.059.17-6.953-.262-1.66-.365-3.165-.899-4.754-1.49-2.937-1.08-5.52-.928-8.581-.837-.051.01-.055-.062-.012-.073.458-.097.9-.182 1.332-.254 1.834-.539 3.37-1.773 4.977-2.794.913-.578 1.784-1.15 2.525-1.891-8.53 4.29-14.013-5.612-21.773-7.37a7.803 7.803 0 0 1-.767-.145c-.115-.017-.23-.033-.347-.046-.062-.003-.065-.098-.005-.103a10.21 10.21 0 0 1 2.366.036c2.37-.371 4.474-1.953 6.185-3.592.303-.294.6-.596.907-.88-3.076.613-5.981 1.076-9.223-.004-2.655-.884-5.261-2.794-7.946-4.196-.137-.03-.272-.06-.406-.094zm-95.454 72.527c.316-.02.474.251.445.49.33.372.399.97-.136 1.294-2.312 1.394-4.912 2.288-6.92 4.129-1.321 1.21-2.537 2.388-4.217 3.07-4.303 1.737-8.037.366-12.453.02.983 4.506 11.497 1.981 15.428 1.03l.333-.367c.64-.708 1.75.217 1.132.953-5.419 6.485-13.2 10.818-20.816 14.209-3.737 1.655-7.526 3.644-11.517 4.658 3.896-.23 7.747-.836 11.354-2.02 7.102-2.327 13.535-5.859 19.753-9.993 11.156-7.413 22.087-14.865 31.424-24.586a148.487 148.487 0 0 0 23.12-31.643c3.398-6.232 6.223-12.515 7.607-19.514a91.868 91.868 0 0 0 1.427-9.838c.278-3.01.127-6.142 1.072-9.022a.448.448 0 0 1 .15-.228c-.013-.423-.02-.848-.024-1.275-2.552 5.558-6.001 10.698-10.592 14.766-6.503 5.784-14.339 9.723-22.637 12.24-19.264 5.813-40.172 6.696-58.309-3.21-9.64-5.278-17.249-12.803-22.076-22.038 1.196 3.078 3.006 5.76 4.49 8.73 2.184 4.365 4.384 11.069 9.448 12.707 1.045.02 2.07-.034 3.136.14.541.095.38.898-.16.838-1.124-.132-2.212-.034-3.32-.055 2.98 3.25 6.61 7.066 11.057 7.765 3.766.583 7.54-.585 11.246.196a5.036 5.036 0 0 1 1.803-.288c.456.01.643.622.18.82-2.167.908-4.256 2.154-6.451 3.047 4.395 1.927 10.329 3.688 14.9 2.374 3.535-1.015 6.929-2.696 10.614-3.083.471-.306.986-.53 1.565-.627.34-.05.362.466.043.535-2.68.593-3.513 3.368-5.112 5.12 3.87.038 7.79.75 11.588.04 4.375-.813 7.078-4.368 10.344-7.056 3.796-3.122 11.934-6.49 15.314-.687 1.4 2.382 1.656 5.638-.112 7.94-2.422 3.14-5.505 3.98-9.35 3.82-5.394-.23-10.117-.713-15.132 1.794-4.618 2.308-8.329 5.84-10.913 10.292.303.185.487.608.215.982.413-.554 2.954 1.808 3.386 2.012 1.378.654 2.77 1.308 4.322 1.16l.17-.019c1.152-.15 1.272 1.59.156 1.79-4.962.91-9.13 4.55-14.038 5.367 1.722.872 3.405 2 5.277 2.256 3.35.444 6.481-.506 9.677-1.36 1.172-.306 1.85 1.36.673 1.822-4.78 1.832-9.012 3.899-13.473 6.406-1.635.917-3.22 1.63-4.875 1.957 3.25.338 6.54.353 9.784.14zm-.062-118.408c7.32 3.884 12.004 9.416 16.644 16.17 5.098 7.423 10.865 14.184 19.27 17.94 5.656 2.53 11.112 3.254 16.473 1.68a6.391 6.391 0 0 1-2.226-.689c-2.58-1.356-6.652-7.133-2.002-8.904 1.352-.528 4-.594 4.239-2.462.165-1.305-.184-2.607-.745-3.784-1.135-2.368-2.695-4.545-4.443-6.487-1.668-1.833-3.462-3.7-5.746-4.757-3.187-1.468-6.574-2.348-9.784-3.735.29 1.027-.13 2.344-.507 3.275-.366.932-1.06 1.83-1.245 2.833-.322 1.729.958 2.686 2.27 3.491.126.067.033.238-.094.195-.803-.331-1.584-.748-2.172-1.299-1.27-1.101-2.036-2.67-2.593-4.438-1.458-4.638-2.294-8.36-6.365-11.58-1.33-1.06-2.736-2.128-4.23-2.939-.486-.262-2.552-.937-2.811-1.303.971 1.39 1.847 2.85 2.671 4.345.673 1.25 2.558 4.092 1.11 5.375-.395.34-.851-.13-.828-.53.005-.09.008-.18.01-.27-2.972-3.012-6.333-6.027-9.838-8.38-1.81-1.216-3.789-2.367-5.931-2.895-2.794-.694 3.11 3.166 1.93 2.41 1.03.67 1.834 1.304 2.32 2.478.14.324-.206.553-.493.46-3.938-1.37-7.348-2.122-11.562-1.973-2.314.068-4.648.605-6.975.477a17.664 17.664 0 0 1-1.587-.161c5.01 1.854 10.37 2.872 15.24 5.457zm-20.92-5.046c1.595 1.127 3.3 1.46 5.02 2.249 2.043.935 4 2.01 6.065 2.86.63.054 1.25.242 1.869.733.508.404.109 1.383-.544 1.184a24.013 24.013 0 0 1-2.317-.831c-.508-.033-1.04-.02-1.563-.027.562.6 1.017 1.302 1.496 2.101 1.287 2.15 3.074 3.187 5.074 4.13 1.698-.109 3.201.229 4.107 2.018.265.503-.455.889-.827.591-2.256-1.786-3.977-1.518-6.648-1.176-.949.12-1.82.183-2.671.054.862 1.272 1.393 3.065 1.875 4.127.973 2.138 2.05 4.09 4.309 5.108 1.291.579 2.617 1.024 3.903 1.574 1.544.016 3.064.391 4.52 1.637.771.665-.258 1.905-1.019 1.222-3.528-3.191-8.014-.434-12.075-1.287 1.988 2.388 4.34 4.365 7.48 5.155 3.43.859 7.017 1.753 10.536 2.19 5.133.634 10.468-.676 14.807 2.855 3.626 2.961 2.125 8.358-1.844 10.003-1.462.604-3.836.157-4.99-.934-.679-.64-1.21-1.156-1.652-1.998-1.124-2.146-2.75-3.303-4.875-3.798a39.12 39.12 0 0 0 1.812 2.729c.465.647-.248 1.316-.901 1.09-2.477-.886-4.61-3.708-7.113-4.148-2.14-.372-4.281-.612-6.449-.401-2.483.237-5.91.566-8.126-.916-.257.925-.955 3.207-.96 4.874 1.065.469 1.898 1.281 2.373 2.604.105.28-.21.622-.507.463-1.827-1.018-3.082-2.313-5.392-2.261-1.7.058-3.353.324-5.027.595-2.28.374-4.53.708-6.664-.017.527 1.013.92 2.132 1.508 3.007 1.05.353 2.057.807 2.99 1.385a.684.684 0 0 1 .159.134l.164-.016c.075-.01.072.096.011.1a6.536 6.536 0 0 1-.102.02c.219.388-.03.93-.583.866-3.488-.438-6.617-2.122-10.211-2.353-1.653-.109-3.305-.184-4.934-.407-.769-.105-1.682-.224-2.563-.446.8 2.764 2.308 4.947 4.797 5.925.687.006 1.391.01 2.118.02a.744.744 0 0 1 .71.546c.06.034.072.117.026.162.01.251-.121.501-.44.623-5.185 1.964-11.757-.424-16.188-3.232-2.304-1.455-4.166-3.264-5.68-5.336 1.325 2.65 2.859 5.183 4.658 7.523 13.222 17.238 36.022 24.217 57.035 21.486 19.529-2.53 40.715-10.012 48.982-29.507a74.298 74.298 0 0 0 1.59-4.071c-5.072 3.023-10.5 3.348-16.575 1.565-7.257-2.115-14.212-7.123-18.959-12.978-6.777-8.38-11.379-17.828-21.186-23.245-5.67-3.13-12.015-4.472-17.703-7.283-1.977-.721-3.742-1.853-5.44-3.382.483 1.755 1.166 3.425 2.734 4.542zM253.866 25.85c-.211.446-1.004.362-1.001-.175-.003-1.618-.08-3.074-.367-4.455-.565 1.684-1.514 3.32-2.284 4.587-1.014 1.671-2.15 2.655-3.859 3.575-1.555.845-2.667 1.663-3.354 2.73-.087 2.113-.663 4.215-.697 6.33-.012.212-.297.241-.322.033-.081-.728-.075-1.512-.05-2.317-.19-1.237-.187-2.302.043-3.249-.066-1.162-.283-2.27-.862-3.217-.054-.09-.11-.178-.166-.267-.01 2.672-.627 5.353-1.93 7.689-1.892 3.422-4.492 6.51-5.954 10.068.141 1.931-.04 3.833-.585 5.504-.252.755-1.494.228-1.153-.54.211-.468.384-.948.522-1.437a14.8 14.8 0 0 1 .407-2.63c.099-2.682-.702-5.426-2.114-7.743.247 2.663-.925 5.615-2.02 7.977-1.428 3.082-2.741 6.31-4.562 9.193-1.522 2.405-3.968 4.596-5.146 7.245-.292 1.58-.775 3.1-1.594 4.502-.028.066-.125.023-.086-.034.438-.856.757-1.746.986-2.66a7.51 7.51 0 0 1 .33-1.714c.44-3.152.09-6.507.112-9.68-.86.75-1.87 1.37-2.582 2.393-1.783 2.568-2.342 5.564-3.042 8.551-1.337 5.81.98 11.672-.057 17.506-.032.198-.338.145-.315-.057.013-.117.026-.233.036-.35-.799-4.027-2.44-6.122-5.577-8.755-.434-.36-1.031-.823-1.574-1.352-.738 4.526-2.324 8.878-3.017 13.422-.83 5.49-.12 11.1 2.266 16.156 2.259 4.782 12.565 15.736 5.612 20.774-2.273 1.627-5.732-.342-7.089-2.25-1.939-2.755-2.093-5.714-2.691-8.923-.53-2.894-1.253-5.854-3.71-7.76-2.011-1.559-4.27-2.438-6.536-3.485-2.657-1.221-4.51-2.893-6.181-4.963.338 3.476-2.271 8.262.061 10.875a6.805 6.805 0 0 0 2.368 1.394c.045.023.006.08-.022.06a8.218 8.218 0 0 1-.726-.298c0 .032-.022.06-.057.049-1.251-.384-2.103-1.078-2.627-2.008-1.693-1.756-2.85-4.098-4.015-6.27-1.48-2.707-3.16-5.014-5.787-6.75-1.411-.934-2.952-1.735-4.38-2.678.307 1.195.367 2.513.431 3.45.256 3.884.16 9.898 5.537 9.722.046-.001.058.073.018.069-2.36-.04-3.751-.99-4.628-2.428-2.856-2.442-4.484-5.47-6.5-8.605-1.209-1.873-2.431-3.593-4.133-5.062-.62-.544-1.228-1.024-1.789-1.545l.02.203c.097.973.13 1.96.22 2.933.063.262.113.528.15.797a.27.27 0 0 1-.037.178c.154 1.054.422 2.081.962 3.049.032.06-.037.118-.083.06-.74-.973-1.173-2.05-1.477-3.186-2.847-5.21-7.95-9.576-10.743-14.93-.25 3.374-.518 6.612 1.326 9.515.216.255.435.506.658.755a.405.405 0 0 1 .114.29c.186.22.385.435.6.65.198.197-.029.469-.273.33-.27-.18-.524-.364-.76-.552a.491.491 0 0 1-.462-.158c-2.962-3.329-5.232-7.034-7.45-10.887-1.998-3.494-4.501-6.695-6.452-10.21-1.394-2.534-1.467-5.275-1.838-8.068-.325-2.382-.474-4.54.329-6.68-4.958 6.945-3.17 15.543-.27 23.099 2.989 7.764 6.76 15.291 11.623 22.067 10.05 13.993 23.271 24.047 36.593 34.653 11.973 9.533 25.074 20.005 32.55 33.665 3.35 6.098 5.287 12.61 4.45 19.65-.434 3.648-1.743 6.388-3.804 8.842-.029.1-.06.2-.091.298 6.304-4.902 11.29-11.45 15.668-18.07 5.377-8.163 10.778-16.293 15.373-24.932 9.49-17.855 16.994-36.919 21.672-56.62 4.803-20.213 6.438-40.905 2.522-61.408-1.913-9.965-5.114-23.946-14.801-28.398 5.814 3.897 5.18 15.345.675 21.018a6.557 6.557 0 0 1-.552 1.85zm-5.805-24.257a.862.862 0 0 1-.01.096c.245-.02.485-.033.72-.039a17.55 17.55 0 0 0-.71-.057zm20.956 24.833c4.408 20.355 3.945 40.944-.495 61.246-4.735 21.644-12.606 42.753-23.175 62.21-4.888 9.01-10.489 17.575-16.243 26.051-4.48 6.62-9.176 12.17-15.55 16.605.033.02.065.04.096.062a24.859 24.859 0 0 1 2.944-.96 183.48 183.48 0 0 1 4.935-2.277c5.622-3.186 10.96-6.984 16.248-10.498 8.724-5.808 17.19-11.975 25.514-18.355 8.249-6.321 16.176-12.773 23.31-20.353 6.714-7.136 12.934-14.68 19.16-22.225 6.357-7.695 12.174-15.621 17.663-23.97 5.407-8.222 10.646-16.844 17.343-24.099 5.561-6.067 11.429-11.45 19.17-14.496 5.032-1.97 10.18-3.524 15.421-4.757-2.174-.008-4.34.006-6.404.363-10.503 1.826-19.258 7.723-26.22 15.577-.434.535-.88 1.058-1.343 1.565-.039.056-.11-.01-.084-.059 2.176-3.02 3.796-6.387 5.843-9.448-3.113 1.546-6.674 2.198-9.772 4.266-3.232 2.158-5.887 4.951-8.51 7.791-1.007 1.24-2.065 2.426-3.288 3.515a62.916 62.916 0 0 1-1.615 1.612c-.086.08-.258-.042-.155-.151 1.318-1.45 2.566-2.998 3.827-4.544 1.038-1.55 1.997-3.144 3.27-4.518.784-.843 1.363-2.013 1.953-3.181-3.074 1.738-7.242 2.358-10.17 3.3-3.82 1.247-5.712 4.01-8.35 6.745-.967.999-2.12 2.043-3.12 3.188-1.296 4.518-3.508 8.823-7.334 11.583-.097.068-.227-.07-.15-.157 4.114-3.841 6.027-10.306 6.99-15.868-16.052 6.173-21.691 24.353-27.435 38.958-1.908 4.853-5.182 11.99-11.306 11.992-3.421.017-6.649-1.948-5.959-5.384-.028-4.383 4.114-10.463 5.787-12.919 1-1.462 2.025-2.952 3.253-4.226 2.427-2.517 5.845-4.034 8.075-6.707 2.58-3.094 3.591-6.761 4.504-10.616.55-2.29.512-4.62.692-6.939-.742.456-1.472.814-1.868 1.027-3.142 1.71-6.112 3.658-8.41 6.42-.011.023-.034.03-.056.025a.05.05 0 0 1-.017-.006c-.023-.01-.041-.034-.035-.062.871-3.04 3.04-5.198 4.956-7.61 3.081-3.895 5.36-9.375 6.5-14.169.909-3.814 1.494-7.488 1.766-11.383.14-1.706.32-3.473.08-5.17-.238.958-.65 1.863-1.228 2.609a10.16 10.16 0 0 1-3.019 2.66c-1.527.894-3.132 1.328-4.141 2.835l-.192.462c-.049.136-.229.039-.187-.096 1.673-5.068 2.854-9.503 3.485-14.82.313-2.707.61-5.474.442-8.198-.05-.776-.222-1.522-.412-2.258-.732 1.437-1.87 2.82-2.531 3.591-2.433 2.845-5.946 5.458-7.434 8.99 0 .02-.01.035-.026.041-.025.015-.066-.001-.08-.026-2.196-2.73-1.938-6.098-1.46-9.393.773-5.444-.66-9.676-3.501-14.306-2.753-4.461-6.253-8.032-10.308-10.911 4.465 5.32 6.882 13.007 8.356 19.826zm-122.816 94.512c.57.487-.187 1.396-.747.887-2.763-2.5-6.064-3.994-9.264-5.8-2.393-1.354-4.822-3.206-7.61-3.562 6.534 3.706 6.956 10.778 10.23 16.934 2.757 5.193 5.058 10.963 9.736 14.39 1.065.338 2.051.855 2.819 1.624l.004.004.119.051c.286.125.225.562-.06.604a.462.462 0 0 1-.563.146l-.568-.217a6.333 6.333 0 0 1-2.124-.798c-1.406-.488-2.817-.843-4.447-.82-1.703.02-3.41.257-5.13.236a10.2 10.2 0 0 1-1.238-.09c5 3.075 7.913 8.777 12.064 12.93 5.451 5.471 13.442 11.11 21.537 11.63a21.925 21.925 0 0 1 2.139-.405c.381-.052.655.112.808.36.146-.015.292-.032.437-.05.62-.072.678.868.085.95-.158.022-.316.042-.475.06a.839.839 0 0 1-.683.47c-4.716.575-9.007 3.16-13.723 2.647 5.946 4.676 15.031 9.13 22.609 8.118 4.548-.602 6.797-3.607 10.669-5.5 3.197-1.564 6.69-1.566 10.093-.612 5.618 1.584 10.026 5.111 10.791 11.215.186 1.473.211 3.078-.04 4.579 3.308-5.696 3.442-13.075 1.271-19.458-2.699-7.977-8.155-15.045-13.97-21.033-11.288-11.664-24.609-20.8-37.036-31.138-11.391-9.46-21.747-21.115-28.225-34.554-4.844-10.038-9.954-23.667-4.164-34.177-5.69 4.232-5.886 12.66-5.148 19.239.474 4.21 1.099 8.725 2.741 12.643 1.493 3.577 3.674 6.808 5.423 10.267.328.463.59.99.766 1.602.158.536-.594.826-.811.306-.18-.421-.371-.836-.57-1.247-1.486-2.342-4.642-2.992-7.12-4.317 1.595 3.922 2.272 8.166 3.65 12.23 2.232 6.563 5.815 12.346 11.32 16.603 1.545.878 3.035 1.848 4.405 3.053zm70.737 70.617c.268-.063.537-.121.807-.174a77.543 77.543 0 0 0 2.667-1.396l-3.474 1.57zm4.843 10.149c.494 3.423-.852 6.93-3.866 8.86-2.07 1.322-4.089 1.855-6.467 2.342-1.422.292-2.862.663-3.984 1.642-1.055.92-5.018 3.975-.192 4.308.195-.087.37-.165.516-.223.39-.15.605.475.23.602-.982.32-2.906 1.245-4.242 1.003a1.297 1.297 0 0 0-.072.332c1.31 3.217 4.061 5.209 7.655 5.53 1.599.146 4.037.198 5.76-.633.544-.891 1.168-1.641 1.84-2.161.726-.732 2.145.547 1.103 1.36-2.51 1.986-6.391 8.83-3.927 11.914 2.679-.801 5.485-1.955 6.99-4.254.54-1.18.946-2.308.984-3.327.038-.92 1.405-1.101 1.48-.131.328 4.626-7.934 10.2-3.93 14.494 2.052-.729 3.695-2.297 4.961-4.042a9.62 9.62 0 0 0 .24-.344c.166-1.623.668-3.194 1.7-4.684.214-.315.674-.435 1.036-.378.137.022.272.04.41.064a.601.601 0 0 1 .47.522c.09 1.541-1.316 2.551-1.591 4.11a22.221 22.221 0 0 0-.252 6.384c.383 3.423 1.353 6.908 1.016 10.36.649-1.126 1.781-2.05 2.738-2.868 1.332-1.143 2.553-2.276 3.606-3.715.663-.9 1.004-1.802 1.307-2.717.067-.498.147-.997.242-1.497a.789.789 0 0 1 .508-.61c.05-.116.103-.232.159-.347.13-.259.567-.353.729-.065.624 1.145.417 2.438-.16 3.673-.83 5.767-.113 11.687-.237 17.51.537.088 1.075.173 1.613.258.662-.764 1.266-1.795 1.356-1.935.42-.726.805-1.504 1.328-2.164 1.42-1.762 4.06-2.052 5.339-3.91.525-.77 1.73.196 1.123.944-.35.435-.763.776-1.211 1.065-1.009 2-1.671 4.406-1.988 6.867 1.99.268 3.981.516 5.974.742 2.36-12.338 8.23-24.492 5.87-37.429-1.873-10.415-7.737-20.034-15.916-26.724-7.864-6.425-18.758-12.254-28.455-7.904 3.975.444 7.59 2.813 8.207 7.176zm23.162 63.98c.274-2.065.781-4.086 1.488-5.848-.66.3-1.323.595-1.923.986-1.138.75-1.829 1.906-2.687 2.922-.248.297-.659.84-1.122 1.316 1.413.22 2.828.427 4.244.624zm1.066.966c-.235 2.405-.142 4.825.28 6.934.715 3.58 2.712 10.489 6.27 12.333-1.384-2.243-1.664-4.876-1.302-7.546-.302-3.686.019-7.33.664-10.955a301.277 301.277 0 0 1-5.912-.766zm9.332 1.156c-.95-.103-1.898-.21-2.845-.322-.688 3.25-1.114 6.52-1.055 9.787.677-3.418 2.298-6.818 3.9-9.465zm18.894 34.492c3.289-.65 5.955-2.557 9.085-3.569 7.446-2.39 15.897-3.238 23.592-1.464-.236-4.827 2.046-9.653 5.391-13.768a51.894 51.894 0 0 1 1.654-1.937c-5.45.72-10.968.94-16.381 1.997-5.338 1.04-11.66 2.399-15.016 7.105-3.23 4.547-5.026 9.169-9.363 11.81.348-.049.693-.106 1.038-.174zm.309 20.831c.036.015.07.039.097.072 3.673 4.72 7.615 6.162 13.503 5.653 2.24-.19 4.802-.277 6.284 1.287a11.53 11.53 0 0 1 .207-1.933.585.585 0 0 1 .015-.319c.08-.244.163-.485.25-.722.133-.422.295-.832.489-1.23.245-.565.51-1.109.792-1.632a.854.854 0 0 1-.063.017c-6.021 1.305-13.11-4.388-18.026-7.197-4.722-2.71-9.429-5.143-13.61-8.505 3.969 4.365 7.412 9.418 10.062 14.51zm27.556-5.482c-3.735-.371-7.449-1.223-11.037-2.143a245.494 245.494 0 0 1-20.093-6.092 312.116 312.116 0 0 1-8.823-3.219l.265.262c5.432 3.826 11.801 6.326 17.624 9.482 2.736 1.48 5.442 3.107 8.33 4.296 2.61 1.067 5.554 1.458 7.953 2.886.173.095.28.226.33.367a19.115 19.115 0 0 1 5.45-5.84zm35.84.767c4 2.185 7.982 5.304 11.239 8.986 5.673-2.965 13.42-4.468 19.56-4.35 3.569.066 7.08.69 10.462 1.78 6.625-6.202 12.487-17.504 3.811-24.671-5.919-4.889-16.495-7.114-23.037-2.091a1.299 1.299 0 0 1-.451.229c-1.779 2.059-3.863 3.887-6.116 5.471-5.576 3.917-12.626 7.903-19.297 9.541-2.115.52-4.188.577-6.233.345a.248.248 0 0 1-.058.014c-4.697.762-9.964-1.317-13.987-4.489-2.223.317-4.676-.735-6.868-1.121-2.993-.514-6.047-.887-9.101-.882-5.246.001-11.422.405-15.823 3.593 8.256 2.466 16.938 4.383 25.124 3.551.48-.047.872.081 1.17.312 9.416-2.94 21.29-.763 29.606 3.782zm-28.44-13.758c-1.025-1.472-1.72-2.98-2.133-4.503-5.92-1.516-12.347-1.342-18.287-.086-4.908 1.037-9.047 3.94-13.894 4.922-3.324.662-6.735.682-10.137.286 1.961.65 3.92 1.289 5.867 1.926 3.47 1.133 7.115 2.363 10.85 3.485 4.066-4.251 10.223-5.39 15.913-5.496 3.238-.062 6.493.08 9.708.564 1.038.16 2.26.3 3.433.582a18.942 18.942 0 0 1-1.32-1.68zm-27.62 37.43c1.155 2.237 4.532 9.491 7.649 10.405 5.045-3.383 10.892-2.327 16.358.56-4.775-4.841-8.915-10.707-10.625-17.047-.446-1.66-.735-3.224-.816-4.688-4.288-2.054-8.733.107-13.345-1.123-1.992-.532-3.465-1.637-4.643-3.06 2.084 4.87 3.006 10.254 5.421 14.953zm5.5 12.173c.212-.21.425-.41.64-.6-1.643-.566-3.007-2.437-3.982-3.834-1.572-2.268-2.904-4.493-4.022-6.827-.558 3.081-1.853 6.344-1.87 9.046-.035 3.371-.737 10.808 3.588 11.882a21.38 21.38 0 0 1 5.646-9.667zm66.488 59.15c-8.43-5.31-15.103-12.55-19.416-20.973a21.842 21.842 0 0 1-1.12 5.417c-2.53 7.237-8.192 12.354-14.74 13.91a.029.029 0 0 1 .007.021c-.002.052-.07.058-.081.015a.054.054 0 0 1 .007-.02c-.458.107-.92.197-1.385.268-.456 1.03.953 4.725 1.21 5.3a34.735 34.735 0 0 0 3.05 5.383c1.688 2.506 3.429 5.013 5.435 7.275 4.064 4.599 9.032 8.265 15.28 9.012 5.451.64 11.967-.338 15.677-4.818 4.967-5.958 3.99-13.139-.787-18.846a.708.708 0 0 1-.13-.231 37.364 37.364 0 0 1-3.007-1.713zm-50.054-4.422c-5.817-3.787-10.503-8.986-14.155-14.864a134.896 134.896 0 0 1-2.243-3.72c-6.866 11.473-3.603 27.57 3.849 38.03 4.628 6.504 11.783 12.734 20.07 13.51 3.38.317 7.653-.103 10.338-2.512 2.718-2.453 2.758-5.89 2.7-9.283-4.368-5.01-9.145-11.59-8.402-17.96-4 .354-8.208-.613-12.157-3.201zm25.286-43.493a33.433 33.433 0 0 1-7.23-1.706c2.696 2.317 5.138 5.238 7.142 8.495a51.237 51.237 0 0 1 .088-6.79zm-18.239-7.917a63.442 63.442 0 0 1-4.803-4.353c-.009.015-.023.022-.046.014-3.83-1.14-9.057-2.702-12.895-.887-3.262 1.553-6.02 3.893-7.74 7.126-3.154 5.947-3.433 12.631-1.352 19.019 3.419 10.464 10.709 23.484 20.787 28.904 5.582 3 12.195 3.932 17.64.017 4.43-3.173 7.656-8.16 8.009-13.707.794-12.305-6.378-21.901-12.67-31.656a37.397 37.397 0 0 1-6.93-4.477zm109.104 51.864c-.477.175-.972.332-1.483.471-1.149.311-2.306.52-3.467.637 1.94 1.156 3.717 2.702 5.26 4.464a17.775 17.775 0 0 1-.31-5.572zm-24.475-4.544a.538.538 0 0 1-.34-.02c-3.026-1.14-8.335-.365-11.442 1.82-1.291 4.219-3.847 7.876-7.772 9.767-1.673 8.678 3.191 16.154 10.446 20.91 6.233 4.11 14.605 7.729 22.234 7.34 10.37-.524 18.364-8.659 15.026-19.421-1.052-3.382-2.818-6.7-5.425-9.136-3.642-3.381-7.909-4.197-12.076-6.387-3.737-.982-7.353-2.714-10.651-4.873zm-2.116-1.473a47.02 47.02 0 0 1-5.843-5.124 49.969 49.969 0 0 1-3.443-3.967c.909 3.861.836 8.204-.3 12.097 2.572-2.073 6.345-3.31 9.586-3.006zm-15.973-33.592a23.918 23.918 0 0 1-3.493-.264c1.555 1.24 2.323 2.547 2.78 3.961.118-1.233.351-2.468.713-3.697zm-24.213-14.599c-.3.426-.62.85-.963 1.27-6.024 7.413-14.533 9.97-22.997 9.006-.081 2.559.02 5.11.296 7.631 3.133 5.388 5.065 11.604 5.01 17.493 3.912 8.08 9.896 15.122 17.683 20.149 5.703 3.678 13.302 7.256 20.169 4.883 4.668-1.62 8.299-5.27 9.307-10.236 1.068-5.3-.874-10.212-.572-15.397-2.346-3.886-4.032-8.16-4.435-12.538-.76-2.919-1.236-5.614-4.248-7.584-1.932-1.237-4.122-1.368-6.041-2.558a.61.61 0 0 1-.258-.306c-5.147-2.622-9.547-6.875-12.951-11.813zM368.88 260a338.618 338.618 0 0 1-22.617 4.702c-.085.29-.163.582-.236.875a22.056 22.056 0 0 1 10.207 3.368c5.684 3.594 9.747 9.522 9.096 16.458.994-.22 1.943-.63 2.872-1.112.743-.38 1.477-.96 2.255-1.366 4.437-6.152 11.076-11.243 17.51-13.46.279-.096.56-.188.843-.277 3.1-4.888 4.537-10.386 1.947-15.425-7.178 2.399-14.497 4.435-21.877 6.237zm101.552-144.98c-2.036-2.624-4.417-5.014-7.324-6.604-2.077-1.117-5.817-3.13-8.221-1.965-2.04.998-.951 4.835-.182 6.327 1.012 1.938 2.633 3.54 4.713 4.267 3.85 1.337 7.904.43 11.014-2.024zm.234 30.388c-2.677-5.447-6.758-10.348-11.77-13.886-2.975-2.087-7.046-3.839-10.744-3.538-5.523.435-7.374 6.105-4.914 10.78 4.725 8.96 17.798 13.15 26.46 7.344.336-.226.658-.46.968-.7zm-12.948 37.736a17.77 17.77 0 0 0-1.664-4.879c-1.083-2.089-2.5-3.931-3.96-5.76-1.895-2.366-3.5-5.025-5.723-7.116-4.061-3.841-9.188-7.068-14.75-8.153-4.59-.907-11.545-.986-12.151 5.223-.951 10.119 10.966 17.982 19.272 20.695 6.104 1.984 12.93 2.146 18.976-.01zm14.396-95.887c-.485-.404-.978-.79-1.473-1.154-1.342-.963-3.93-2.811-5.396-.757-.625.855-.884 1.869-.723 2.901.29 1.685 1.001 3.222 3.075 3.063 1.166-.073 2.7-.176 3.48-1.229.628-.837.93-1.81 1.037-2.824zm-162.86 254.248c.037-.005.028.075-.018.075-.378-.033-.597-.303-.61-.67.004-.039.08-.048.076-.004.004.334.215.575.553.6zm177.92 27.49c10.32 5.26 20.87 4.832 29.61-2.985 3.935-3.523 7.51-8.445 5.676-14.085-1.602-4.915-5.35-8.704-9.578-11.536-4.682-3.141-10.255-5.562-15.668-7.07-6-1.657-11.281-1.122-16.884 1.602a.675.675 0 0 1-.442.06c-2.818 1.734-5.836 3.235-8.945 4.324-3.626 12.988 4.896 23.92 16.232 29.69zm10.475-37.038c2.628.883 5.353 1.872 8.029 3.008 5.492.709 11.443.318 16.273-1.911 7.094-3.274 13.69-11.917 10.294-20.108-2.751-6.65-9.564-10.768-16.595-11.564-8.072-.91-16.853 2.868-22.665 8.455 2.453 7.877-1.652 16.166-7.862 21.448 4.07-.983 8.264-.756 12.526.672zm-132.373-46.065a21.767 21.767 0 0 1-2.179 7.107 16.541 16.541 0 0 1 2.735-.601c.646-2.504 1.755-4.982 3.204-7.343-.341.145-.674.273-.98.385a7.155 7.155 0 0 1-2.778.436l-.002.016zm-7.236 10.099c.445-.45.925-.858 1.436-1.222 1.06-1.662 1.88-3.453 2.344-5.378 1.521-6.297-.145-12.977-5.638-16.822-12.492-8.743-29.61-.978-38.918 8.94-3.937 4.188-8.857 10.465-8.087 16.498.48.427.578 1.134.366 1.672.294.931.742 1.851 1.369 2.751 2.857 4.113 6.962 8.163 11.811 9.914 3.93 1.011 8.015 1.424 11.783.03 5.048-1.867 10.117-4.601 14.55-7.644 3.022-2.08 6.193-4.588 8.667-7.571a1.185 1.185 0 0 1 .317-1.168zm22.223 72.2c9.307-1.909 21.074-10.95 19.073-21.778-1.718-9.257-11.044-15.543-19.282-18.603-4.913-1.827-9.877-2.775-15.125-2.144-4.931.614-9.38 2.555-14.063 3.78 5.756 7.5 8.324 16.861 2.59 25.395 7.581 7.263 14.991 15.772 26.807 13.35zm5.105-68.914c3.455 4.174 4.106 8.468 3.077 12.526 5.104-.072 10.436-1.828 15.03-4.648v-.001c.101-.224.29-.31.478-.298 3.068-1.955 5.784-4.386 7.851-7.101 2.047-2.694 3.448-5.992 3.98-9.378-.162-.314-.17-.71.08-1.142l.079-.134c.468-5.132-1.11-10.316-5.506-13.779-6.238-4.927-14.857-5.42-22.122-2.522-8.218 3.277-16.875 10.89-20.171 19.425 6.515-.112 13.68 2.763 17.224 7.052zm-6.045 25.593a40.76 40.76 0 0 1 4.541 1.792c3.046 1.413 6.187 3.224 8.99 5.432 5.08-6.267 11.555-11.166 18.85-14.042-2.133.013-4.048.041-5.984-1.69-2.237-1.991-3.436-5.259-2.627-8.172-4.636 2.553-9.794 3.981-14.677 3.728-1.273 4.868-4.953 9.39-9.093 12.952zm25.112-17.268c-1.531 3.276.237 8.008 3.447 9.624 1.202.603 2.585.725 3.97.768 4.991-1.947 10.364-2.946 15.934-2.79 3.52.1 7.143.87 10.495 2.245a47.784 47.784 0 0 0 3.557-2.63c2.097-3.334 4.887-6.086 8.08-8.377a36.823 36.823 0 0 0 3.283-5.255c2.837-5.607 5.018-14.355-.415-19.297-9.696-8.79-28.394-1.15-34.444 8.52a1.45 1.45 0 0 1-.584.54c-1.781 6.552-6.935 12.54-13.27 16.429-.001.07-.018.145-.053.223zM389.05 398.17c4.455 4.195 10.513 8.533 16.912 10.324 2.278-.314 4.495.025 6.577.838a17.01 17.01 0 0 0 5.321-1.05c12.291-4.586 13.156-19.078 8.531-29.673-4.35-10.004-12.208-14.958-21.406-19.87a41.617 41.617 0 0 1-4.964-1.677c-3.834 6.946-12.066 11.687-19.62 12.59-.89.109-1.77.167-2.638.178-.472 6.921.983 13.44 4.153 19.205a.421.421 0 0 1 .194.178c.248.43.478.877.69 1.338 1.69 2.739 3.782 5.292 6.25 7.619zm15.522-40.292a.327.327 0 0 1 .265-.04c.675.154 1.343.33 2.005.525 6.826 1.334 13.887 1.575 20.701.104 8.996-1.951 19.589-8.708 21.232-18.573 2.4-14.417-11.288-22.83-24.162-22.459-6.459.188-12.736 1.747-18.22 5.26-4.629 2.974-8.294 6.755-12.16 10.542 4.599 4.017 7.988 9.2 7.983 15.539-.003 2.86-.742 5.528-2.009 7.94 1.438.431 2.895.82 4.365 1.162zm35.461-39.642c.44-1.01.936-1.974 1.485-2.894a91.704 91.704 0 0 1-3.152 2.142c.564.234 1.12.484 1.667.752zM428.49 425.639c4.39 3.744 9.618 7.148 15.564 7.456 5.396.293 11.38-1.356 14.872-5.782 4.262-5.4 5.423-14.276.455-19.58a1.92 1.92 0 0 1-.223-.29c-6.028-1.92-11.656-5.91-16.022-10.485-9.895-10.406-16.707-23.63-11.61-37.66-6.495 1.535-13.66 1.678-20.208.74 8.735 3.99 15.741 11.62 18.699 20.896 3.257 10.13 1.307 23.832-9.409 28.256.214 3.574 1.063 6.931 2.636 9.94.202.343.395.689.58 1.036a21.637 21.637 0 0 0 4.666 5.473zm4.478-46.99c2.547 6.233 6.696 12.012 11.509 16.708 4.016 3.918 9.577 7.974 15.447 9.917.467-.166 1.014-.078 1.45.434 5.138 1.375 10.434 1.014 15.077-2.558 11.947-9.2 5.56-26.867-2.041-36.77-3.509-4.566-7.309-9.586-12.323-12.593-4.241-2.535-8.789-3.961-13.622-4.535-3.75 5.067-9.727 8.262-16.47 9.933-1.205 6.468-1.556 13.268.973 19.465zm45.045-8.73c2.394 3.453 4.794 7.392 6.267 11.56 4.571-4.727 10.387-6.986 16.524-7.457-5.732-.188-11.44-1.9-16.318-4.985-5.336-3.375-10.955-7.746-13.573-13.697-2.306-5.222-2.069-10.726-.165-15.968-1.19.41-2.394.76-3.605 1.037-4.946 1.13-9.967.456-14.83-.704-.449 3.142-1.48 5.883-2.967 8.255 12.155 2.248 21.828 12.073 28.667 21.96zm-10.189-31.447c4.86-1.422 9.46-3.784 13.314-7.089 6.063-5.208 11.718-13.26 9.489-21.235a.945.945 0 0 1-.181-.594 14.802 14.802 0 0 0-1.705-3.495c-7.047-10.765-19.682-8.154-29.287-2.734-7.192 4.052-13.802 8.442-17.323 16.047 6.26 3.756 10.782 9.908 10.407 17.905-.017.372-.04.738-.072 1.1 5.058.91 10.449 1.535 15.358.095zm43.371 74.622c5.937.62 13.712.399 18.579-3.578 4.082-3.315 6.756-8.616 6.142-13.978-1.327-11.471-12.924-16.732-23.002-18.648-9.87-1.882-20.622-.69-27.762 7.07a1.4 1.4 0 0 1-.095.093c.527 2.117.776 4.278.632 6.45a22.56 22.56 0 0 1-.706 4.288c6.613 9.412 14.061 17.082 26.212 18.303zm8.387-44.804c-4.485 3.389-9.8 5.229-15.243 5.654 3.506.105 7.059.736 10.492 1.773 7.476 2.262 16.908 6.358 21.105 13.454 7.957 2.59 18.858 4.394 25.853-1.29 5.55-4.496 8.69-12.622 5.473-19.465-3.432-7.32-10.679-11.163-18.19-13.064-7.885-2.002-15.367-3.448-23.088-.48.259 5.09-2.32 10.335-6.402 13.418zm-223.759-40.21c-.753 3.99.37 8.581 2.234 12.18 3.523 6.8 9.046 13.426 15.368 17.782 11.356 7.862 31.126 11.002 38.097-4.336 6.615-14.568-5.23-28.246-17.852-34.291-7.021-3.372-14.876-4.976-22.6-3.273-.718.158-1.431.333-2.133.531-.175.6-.65 1.089-1.454 1.128a32.33 32.33 0 0 1-1.812.04c-1.964.881-3.756 2.085-5.237 3.808-1.734 2.017-3.014 4.321-4.61 6.43zm92.955-77.192c-4.176-4.73-10.723-7.913-17.144-7.094-10.584 1.367-21.431 9.476-25.014 19.791 14.67-2.734 29.074-6.61 42.937-11.739-.24-.322-.5-.642-.779-.958zm-52.205 115.145c.004.046-.07.054-.075.01-.006-.054.07-.058.075-.01zm10.296-6.198c.013.131-.191.148-.217.02-.008-.142.205-.156.217-.02zm12.51 3.577c.021.141-.17.146-.196.018-.02-.13.191-.148.195-.018zM258.687 176.438c17.407-3.094 35.765-.63 53.107 2.031 16.909 2.6 33.533 6.66 49.086 13.876 7.062 3.271 15.095 4.844 21.56 9.3 3.75 2.584 7.848 6.143 9.463 10.585.196-1.393.399-2.773.275-4.02-.463-4.627-3.666-8.8-7.153-11.734-6.98-5.834-15.117-7.31-23.336-10.53-.697-.275-.197-1.308.501-1.06.216.08.432.157.649.234 3.908-.753 7.789-.184 11.74-.464 1.054-.075 2.284.064 3.516.136-2.962-1.434-5.702-4.023-8.419-5.278-3.707-1.718-7.573-1.9-11.544-2.393-2.802-.354-5.556-1.016-8.325-1.57-.8.018-1.591.033-2.369.054a.104.104 0 0 1-.024-.206c5.034-.748 9.832-1.62 14.632-2.861-2.404-.644-4.782-1.877-6.686-2.804-2.866-1.419-5.858-2.969-9.056-3.558-4.26-.774-7.871.503-11.984 1.136-.042.046-.13.005-.09-.052.857-1.596 2.325-2.891 3.651-4.088.915-.807 1.822-1.59 2.78-2.322.205-.155.405-.33.612-.49-1.91-.994-4.242-1.198-6.322-1.489-2.374-.335-4.627-.93-6.98-1.41-7.841-1.64-13.616-.162-20.056 4.579-4.077 2.993-8.227 5.166-13.355 3.919-2.897-.706-4.553-2.717-3.366-5.378.07-4.448 5.628-7.13 9.766-8.184 8.571-2.158 17.44-2.256 25.996-4.556 8.455-2.277 16.158-5.317 22.588-11.444 3.465-3.292 5.937-6.85 8.026-11.143.531-1.083 1.051-2.194 1.66-3.24-2.495.904-5.3 1.237-7.733 2.287-4.681 2.03-10.334 3.706-13.384 8.087-.042.042-.092.002-.066-.044a16.8 16.8 0 0 1 1.658-1.917c-.016-.011-.024-.034 0-.054 8.328-8.945 21.243-15.15 26.234-26.83-5.969 4.671-13.106 7.926-20.08 10.631-.137.06-.194-.122-.08-.187l.166-.087c4.688-4.586 10.91-9.415 14.044-15.227 1.671-3.13 2.843-6.568 5.057-9.297-3.451.766-7.325.218-9.904 3.098-1.978 2.208-3.389 4.811-5.579 6.833-.396.36-1.027-.33-.64-.693 2.364-2.264 3.61-5.571 6.15-7.636.072-.059.146-.116.22-.17 2.013-3.088 4.429-5.903 6.097-9.194 1.507-2.938 2.788-5.858 4.974-8.289-6.169.656-11.384 6.697-15.226 11.01-.542.616-1.485-.172-.978-.806 2.68-3.334 6.24-7.252 10.362-9.527 4.366-4.63 7.812-9.813 10.983-15.52 1.486-2.698 3.48-5.618 6.063-7.514-6.147 1.618-12.316 3.53-18.113 6.024-8.962 3.858-16.038 11.165-21.845 18.868-5.976 7.964-11.202 16.463-16.766 24.733-5.554 8.245-11.78 15.878-18.085 23.538-6.217 7.527-12.497 15.044-19.484 21.88-6.947 6.808-14.61 12.706-22.328 18.589-8.329 6.334-16.801 12.28-25.697 17.76a226.256 226.256 0 0 1-6.755 4.021c9.781-4.256 19.802-8.096 30.192-9.943zm31.857-14.64c-.003.046-.063.051-.075.004-.005-.045.071-.05.075-.004zM277.75 338.533c.011.043-.064.051-.062.001-.011-.043.063-.051.062-.001zM2.78 34.808c-.006-.023-.008-.025 0 0zm48.392 90.984c-1.113-1.96-2.405-3.853-3.689-5.745 1.127 2.001 2.313 3.99 3.689 5.745zM239.42 265.653c-.294-.047-.587-.096-.88-.144.21.384.528.369.88.144zm12.38 16.527c.113 1.212.408 2.375.922 3.456a30.707 30.707 0 0 1-.923-3.456zM101.364 33.258c-1.008-1.59-2.278-3.132-3.92-3.713-3.95-1.429-1.181 2.63-.449 3.15 1.191.858 2.656 1.21 4.047.69a8.66 8.66 0 0 0 .322-.127zm-.484 16.81a39.495 39.495 0 0 0-1.056-1.043c-1.67-1.596-3.383-3.162-5.293-4.431-.814-.538-1.62-1.105-2.522-1.515-1.879-.839-4.513.114-3.384 2.434 1.935 3.966 7.997 6.442 12.255 4.556zM99.859 76.01c-3.919-4.524-8.824-8.263-14.01-10.834-1.461-.72-10.294-5.352-11.453-2.099-1.587 4.432 5.65 8.655 8.85 9.729 2.55.868 5.17 1.257 7.766 1.86 2.638.593 5.515 1.484 8.225 1.387.21-.008.417-.023.622-.043zm147.103 396.012c-.82-7.127-2.699-14.137-6.62-20.122-.929-1.425-7.873-10.142-9.526-5.858-.848 2.205.286 5.176 1.057 7.248 1.88 5.034 4.333 10.627 8.418 14.272 1.824 1.627 4.156 3.373 6.671 4.46zm-24.56 31.693c.153-2.939-.058-5.92-.374-8.793-.344-2.98-.693-6.324-2.115-9.016-.453-.858-1.185-2.154-2.304-2.224-2.233-.135-2.154 3.203-2.039 4.64.395 4.881 2.891 11.09 6.831 15.393zm-21.452 7.079c1.11-1.101 2.09-2.295 2.759-3.648.97-1.984 1.153-4.08-.448-5.834-1.001-1.097-2.445-2.433-4.032-2.525-3.036-.177-3.295 3.162-2.663 5.063.742 2.241 2.335 4.718 4.384 6.944zM24.66 264.234c1.408-.35 2.78-.923 3.856-1.851 1.015-.862 2.137-2.015 2.218-3.437.168-2.79-1.895-1.474-2.701-.865-1.898 1.43-3.841 3.621-3.372 6.152zm19.957-62.764c-.765-3.034-2.255-5.827-5.133-7.05-2.1-.891-4.665-1.214-6.773-.12-3.22 1.649-4.994 5.999-1.312 8.367 4.83 3.108 9.358 1.88 13.218-1.197zm-1.028 16.154a11.947 11.947 0 0 0-4.63-.55c-3.595.276-7.78 1.197-10.756 3.363-1.405 1.017-4.571 4.36-1.957 6.104 1.468.973 3.444.937 5.125.721 6-.756 10.07-4.626 12.218-9.638zm101.54 174.632c.004.049-.063.055-.06.009-.014-.051.062-.056.06-.01z"/></g></g></svg>