<svg xmlns="http://www.w3.org/2000/svg" width="15.09" height="14.1" viewBox="0 0 15.09 14.1">
  <defs>
    <style>
      .cls-1 {
        fill: #fff;
        fill-rule: evenodd;
      }
    </style>
  </defs>
  <path id="Фигура_32" data-name="Фигура 32" class="cls-1" d="M1007.77,1559.38a3.164,3.164,0,0,0-3.1,3.07,3.129,3.129,0,0,0,3.1,3.03,3.018,3.018,0,0,0,2.98-3.03A3.053,3.053,0,0,0,1007.77,1559.38Zm7.51,3.64v-4.8a1.474,1.474,0,0,0-1.43-1.54h-2.93v-1.46h-0.09a1.472,1.472,0,0,0-1.42-1.37h-2.44a1.517,1.517,0,0,0-1.46,1.37h0v1.46h-1.88v-0.06a0.9,0.9,0,0,0-.55-1h-0.88a0.9,0.9,0,0,0-.55,1v0.06h0a1.533,1.533,0,0,0-1.46,1.54v8.2a1.508,1.508,0,0,0,1.46,1.52h12.2a1.451,1.451,0,0,0,1.43-1.52v-0.94h-2.47v-0.78h2.47v-0.9h-2.31v-0.78h2.31Zm-8.31-8.39h2.44a1.075,1.075,0,0,1,.96.59h-4.36A1.053,1.053,0,0,1,1006.97,1554.63Zm-1.08,1.18h4.64v0.33h-4.64v-0.33Zm0,0.87h0Zm1.88,10.09a4.315,4.315,0,0,1,0-8.63A4.317,4.317,0,0,1,1007.77,1566.77Zm4.57-7.24v-1.39h1.88v1.39h-1.88Z" transform="translate(-1000.19 -1553.84)"/>
</svg>
