<svg xmlns="http://www.w3.org/2000/svg" width="28" height="28" viewBox="0 0 28 28">
  <defs>
    <style>
      .cls-1 {
        fill: #fff;
        fill-rule: evenodd;
      }
    </style>
  </defs>
  <path id="поиск" class="cls-1" d="M1736.51,89.973a9.489,9.489,0,1,1,6.71-2.779h0A9.432,9.432,0,0,1,1736.51,89.973Zm0-17.925a8.438,8.438,0,1,0,5.97,14.4h0A8.438,8.438,0,0,0,1736.51,72.048Zm-9.15,18.115a0.507,0.507,0,0,1-.37-0.154,0.514,0.514,0,0,1,0-.741l2.81-2.815a0.523,0.523,0,0,1,.74,0,0.515,0.515,0,0,1,0,.741l-2.81,2.815A0.523,0.523,0,0,1,1727.36,90.163ZM1721.32,99a1.437,1.437,0,0,1-1.04-.43l-1.85-1.85a1.476,1.476,0,0,1,0-2.083l6.29-6.293a1.471,1.471,0,0,1,2.08,0l1.85,1.851a1.464,1.464,0,0,1,0,2.083l-6.29,6.293A1.471,1.471,0,0,1,1721.32,99Zm4.44-10.039a0.415,0.415,0,0,0-.3.124l-6.29,6.293a0.411,0.411,0,0,0,0,.6l1.85,1.851a0.425,0.425,0,0,0,.6,0l6.29-6.293a0.417,0.417,0,0,0,0-.6l-1.85-1.85A0.415,0.415,0,0,0,1725.76,88.96Z" transform="translate(-1718 -71)"/>
</svg>
