<svg xmlns="http://www.w3.org/2000/svg" width="22.281" height="27.156" viewBox="0 0 22.281 27.156">
  <defs>
    <style>
      .cls-1 {
        fill: #152b37;
        fill-rule: evenodd;
      }
    </style>
  </defs>
  <path id="Фигура_9" data-name="Фигура 9" class="cls-1" d="M240.573,772.625c0.28-1.291-.067-11.838.058-14.342-1.246.29-2.667,1.448-6.106,1.206-4.736-.333-1.793-1.493-5.614-0.164l0.029,13.258C231.642,773.4,237.7,773.051,240.573,772.625Zm2.273-11.772c2.761-.084,2.24,1.79,2.24,3.163,0,0.78.164,1.971-.249,2.45a2.556,2.556,0,0,1-2.012.691l0.021-6.3h0Zm-0.019,12.42a48.111,48.111,0,0,1,.03-4.827c3.775-.194,3.472-2.189,3.472-4.43,0-2.536.211-4.282-3.5-4.386l-0.043-1.251-1.118.013c-0.225,3.561-.081,10.34-0.081,14.957-2.332.86-11.4,0.908-13.615,0.013l-0.012-13.954-1.254-.045c0.012,1.1-.073,14.438.062,14.794,0.193,0.509,1.152.555,1.717,0.649a41.053,41.053,0,0,0,11.174.191C242.768,774.712,242.837,774.558,242.827,773.273Zm1-18.2c-0.4,1.078-1.467,1.223-2.472,1.011-1.557-.329-0.769-0.164-2.645.54-5.232,1.964-7.1-.99-8.578-0.162-4.458,2.5-5.661-2.256-3.472-3.557a3.453,3.453,0,0,1,1.4-.37c1.343-.169.345-1.215,2.714-2.572a4.024,4.024,0,0,1,5.086.8c0.987,1.253,1.04.339,2.212-.053a3.038,3.038,0,0,1,3.613,1.351c0.337,0.646.066,0.789,0.758,1,0.97,0.3,1.788.932,1.387,2.009h0Zm-7.04-5.238a5.567,5.567,0,0,0-2.619-1.549,5.713,5.713,0,0,0-5.839,2.13c-0.548.707-.155,0.753-1.136,0.952-4.438.9-3.5,7.929,1.5,6.989,2.351-.441,1.357-1.077,2.8-0.5a10.9,10.9,0,0,0,8.54-.408c0.833-.4.85-0.063,1.7-0.006a2.319,2.319,0,0,0,1.67-.335,2.05,2.05,0,0,0,1.127-.823c1.095-1.749.639-3.423-.948-4.173-0.9-.425-0.479-0.159-0.991-0.975a4.076,4.076,0,0,0-2.425-1.709C238.478,749,237.753,749.586,236.788,749.839Z" transform="translate(-224.344 -748.125)"/>
</svg>
