<svg xmlns="http://www.w3.org/2000/svg" width="15.375" height="29.218" viewBox="0 0 15.375 29.218">
  <defs>
    <style>
      .cls-1 {
        fill: #152b37;
        fill-rule: evenodd;
      }
    </style>
  </defs>
  <path id="Фигура_11" data-name="Фигура 11" class="cls-1" d="M301.018,761.717l5.656,0.009L306.716,772l-5.778.03c-0.02-1.33-.135-9.709.08-10.315h0Zm1.284-6.706a4.352,4.352,0,0,0-2.636,4.317c0,2.326.034,4.672,0,7s-0.008,4.667-.008,6.991c0,3.351-.377,2.808,4.1,2.808,4.58,0,4.2.561,4.2-2.808l0.013-13.982a4.189,4.189,0,0,0-2.584-4.288l-0.044-5.5-2.971.01C302.177,750.25,302.316,753.972,302.3,755.011Zm12.526,8.552a9.62,9.62,0,0,0,.073-3.229c-0.516-3.781-.023-2.758-6.153-2.854l0.139,0.848c1.062,0.327,3.78-.206,4.575.155,0.425,0.241.948,4.006,0.129,5.737-1.043,2.2-3.223,1.61-4.678,1.245l0,1c1.533,0.4,1.348.132,1.339,1.119l0,2.653c0,3.507.5,3.569-1.333,3.966l-0.071,1.823c0.978,0.1,5.512.225,5.843-.59,0.408-1-2.931-1.074-3.39-1.7a62.875,62.875,0,0,1-.056-6.955c1.075-.414,1.4-0.086,2.408-1.025A4.116,4.116,0,0,0,314.828,763.563Zm-5.916-3.726a24.188,24.188,0,0,0,.089,4.617c0.469,0.664,5.055,2.158,4.1-4.179-0.086-.57-0.192-0.5-0.746-0.5C311.6,759.782,309.33,759.733,308.912,759.837Zm-3.569-11.276c0.063-1.357-.167-1.634-1.483-1.635-1.268,0-1.561.3-1.5,1.642Z" transform="translate(-299.625 -746.938)"/>
</svg>
