<svg xmlns="http://www.w3.org/2000/svg" width="17" height="22.688" viewBox="0 0 17 22.688">
  <defs>
    <style>
      .cls-1 {
        fill: #152b37;
        fill-rule: evenodd;
      }
    </style>
  </defs>
  <path id="Фигура_5" data-name="Фигура 5" class="cls-1" d="M102.2,765.208c-0.5-.642-2.146-0.353-3.624-1.9-2.964-3.109-.422-9.376,1.726-12l7.851,0c0.86,0,1.017.61,1.655,1.678a15.432,15.432,0,0,1,1.042,2.187c2.025,5.092.96,9.181-4.7,9.91-0.478.062-1.125,0.019-1.57,0.1a7.911,7.911,0,0,1-2.032-.1,4,4,0,0,0,.776,1.275,2.173,2.173,0,0,0,.478.128l-0.009,2.5c-1.013.353-1.831,0.653-2.759,0.978-1.008.352-2.326,0.6-2.39,1.26-0.1,1.026,1.785,1.092,2.56,1.222a19.173,19.173,0,0,0,3.338.275,21.138,21.138,0,0,0,3.493-.3c1.04-.167,2.485-0.335,2.292-1.288a1.34,1.34,0,0,0-1.161-.736l-3.986-1.414a13.6,13.6,0,0,1,.056-2.53c2.338-.3,3.689-0.378,5.329-1.616,4.443-3.356,1.964-10.7-.766-14.15a1.085,1.085,0,0,0-1.134-.648h-8.349a1.079,1.079,0,0,0-1.09.59c-3.891,5.007-5.5,14.262,2.43,15.566l0.067-.167C102.011,765.336,102.113,765.565,102.2,765.208Zm-3.633-8.371a6.737,6.737,0,0,0,.343,5.391c2.463,2.317,5.082,1.694,7.1,1.872,4.644-.213,5.3-3.409,4.4-7.308Zm2.65,9.267,0.349-1.268,1.8,0.345,0.07,1.222Z" transform="translate(-96 -750.031)"/>
</svg>
