<svg xmlns="http://www.w3.org/2000/svg" width="18.375" height="19.437" viewBox="0 0 18.375 19.437">
  <defs>
    <style>
      .cls-1 {
        fill: #152b37;
        fill-rule: evenodd;
      }
    </style>
  </defs>
  <path id="Фигура_8" data-name="Фигура 8" class="cls-1" d="M189.1,753.106l15.83,0.008-1.081,12.963c-2.687.972-11.134,1.139-13.694-.041l-1.055-12.93h0Zm17.086-.914c-0.475-.552-1-0.358-1.914-0.374l-6.989-.006c-10.524,0-9.55-.727-9.369,2.076l1.255,15.391c0.2,2.1-.237,1.837,2.975,1.833l9.25,0.014c3.515,0,3.245.287,3.386-1.34C204.878,768.7,206.323,752.884,206.189,752.192Zm-15.15,12.795c2.841,0.694,9.317.893,11.948-.017l0.643-7.631-13.187-.034Z" transform="translate(-187.813 -751.719)"/>
</svg>
