<svg xmlns="http://www.w3.org/2000/svg" width="15.375" height="29.218"><path data-name="Фигура 11" d="M1.393 14.779l5.656.009.042 10.274-5.778.03c-.02-1.33-.135-9.709.08-10.315zm1.284-6.706A4.352 4.352 0 00.041 12.39c0 2.326.034 4.672 0 7s-.008 4.667-.008 6.991c0 3.351-.377 2.808 4.1 2.808 4.58 0 4.2.561 4.2-2.808l.013-13.982a4.189 4.189 0 00-2.584-4.288l-.044-5.5-2.971.01c-.195.691-.056 4.413-.072 5.452zm12.526 8.552a9.62 9.62 0 00.073-3.229c-.516-3.781-.023-2.758-6.153-2.854l.139.848c1.062.327 3.78-.206 4.575.155.425.241.948 4.006.129 5.737-1.043 2.2-3.223 1.61-4.678 1.245v1c1.533.4 1.348.132 1.339 1.119v2.653c0 3.507.5 3.569-1.333 3.966l-.071 1.823c.978.1 5.512.225 5.843-.59.408-1-2.931-1.074-3.39-1.7a62.875 62.875 0 01-.056-6.955c1.075-.414 1.4-.086 2.408-1.025a4.116 4.116 0 001.175-2.193zm-5.916-3.726a24.188 24.188 0 00.089 4.617c.469.664 5.055 2.158 4.1-4.179-.086-.57-.192-.5-.746-.5-.755.007-3.025-.042-3.443.062zM5.718 1.623C5.781.266 5.551-.011 4.235-.012c-1.268 0-1.561.3-1.5 1.642z" fill="#152b37" fill-rule="evenodd"/></svg>