<svg xmlns="http://www.w3.org/2000/svg" width="17.625" height="23.938"><path data-name="Фигура 10" d="M4.875 18.019a8.173 8.173 0 012.171-.959 7.6 7.6 0 011.016 2.223 10.778 10.778 0 01-2.156 1 6.56 6.56 0 01-1.031-2.266zm4.035-1.442a5.419 5.419 0 01-2.249-.97 8.2 8.2 0 011.006-2.208 12.59 12.59 0 012.158.953 8.068 8.068 0 01-.915 2.225zm-4.956-5.088a8.386 8.386 0 00.888 2.243 6.366 6.366 0 002.269-.989 13.753 13.753 0 00-.936-2.246 7.022 7.022 0 00-2.221.992zM3.661 21.7l6.649.009 1.2-12.968-9.1.007zm-.988-.021c-.1-1.008-.148-1.962-.261-2.95-.272-2.365-1-9.58-1.1-11.717h11.323l-1.5 15.616-7.942.043c-.624-.031-.455-.286-.527-.993zm-1.171.692c.059.7-.073 1.4.591 1.536.5.1 9.637.033 9.8 0 .726-.17.634-2.535.715-3.3.2-1.827 1.527-13.935 1.189-14.736-.662-.273-6.625-.127-7.892-.127-6.5 0-6.012-.51-5.805 1.95.412 4.866.991 9.806 1.402 14.675zM17.155 1.288a.644.644 0 00.363-.986c-.308-.455-5.361-.34-6.121-.189a44.092 44.092 0 00-2.095 4.349l1.408-.015a11.935 11.935 0 01.747-1.65 3.614 3.614 0 01.871-1.479z" fill="#152b37" fill-rule="evenodd"/></svg>