<svg xmlns="http://www.w3.org/2000/svg" width="22.281" height="27.156"><path data-name="Фигура 9" d="M16.229 24.5c.28-1.291-.067-11.838.058-14.342-1.246.29-2.667 1.448-6.106 1.206-4.736-.333-1.793-1.493-5.614-.164l.029 13.258c2.702.817 8.76.468 11.633.042zm2.273-11.772c2.761-.084 2.24 1.79 2.24 3.163 0 .78.164 1.971-.249 2.45a2.556 2.556 0 01-2.012.691l.021-6.3zm-.019 12.42a48.111 48.111 0 01.03-4.827c3.775-.194 3.472-2.189 3.472-4.43 0-2.536.211-4.282-3.5-4.386l-.043-1.251-1.118.013c-.225 3.561-.081 10.34-.081 14.957-2.332.86-11.4.908-13.615.013l-.012-13.954-1.254-.045c.012 1.1-.073 14.438.062 14.794.193.509 1.152.555 1.717.649a41.053 41.053 0 0011.174.191c3.109-.285 3.178-.439 3.168-1.724zm1-18.2c-.4 1.078-1.467 1.223-2.472 1.011-1.557-.329-.769-.164-2.645.54-5.232 1.964-7.1-.99-8.578-.162C1.33 10.837.127 6.081 2.316 4.78a3.453 3.453 0 011.4-.37c1.343-.169.345-1.215 2.714-2.572a4.024 4.024 0 015.086.8c.987 1.253 1.04.339 2.212-.053a3.038 3.038 0 013.613 1.351c.337.646.066.789.758 1 .97.3 1.788.932 1.387 2.009zm-7.04-5.238A5.567 5.567 0 009.824.161a5.713 5.713 0 00-5.839 2.13c-.548.707-.155.753-1.136.952-4.438.9-3.5 7.929 1.5 6.989 2.351-.441 1.357-1.077 2.8-.5a10.9 10.9 0 008.54-.408c.833-.4.85-.063 1.7-.006a2.319 2.319 0 001.67-.335 2.05 2.05 0 001.127-.823c1.095-1.749.639-3.423-.948-4.173-.9-.425-.479-.159-.991-.975a4.076 4.076 0 00-2.425-1.709c-1.688-.428-2.413.158-3.378.411z" fill="#152b37" fill-rule="evenodd"/></svg>