<svg xmlns="http://www.w3.org/2000/svg" width="17" height="22.688"><path data-name="Фигура 5" d="M6.2 15.177c-.5-.642-2.146-.353-3.624-1.9-2.964-3.109-.422-9.376 1.726-12h7.851c.86 0 1.017.61 1.655 1.678a15.432 15.432 0 011.042 2.187c2.025 5.092.96 9.181-4.7 9.91-.478.062-1.125.019-1.57.1a7.911 7.911 0 01-2.032-.1 4 4 0 00.776 1.275 2.173 2.173 0 00.478.128l-.009 2.5c-1.013.353-1.831.653-2.759.978-1.008.352-2.326.6-2.39 1.26-.1 1.026 1.785 1.092 2.56 1.222a19.173 19.173 0 003.338.275 21.138 21.138 0 003.493-.3c1.04-.167 2.485-.335 2.292-1.288a1.34 1.34 0 00-1.161-.736L9.18 18.952a13.6 13.6 0 01.056-2.53c2.338-.3 3.689-.378 5.329-1.616 4.443-3.356 1.964-10.7-.766-14.15a1.085 1.085 0 00-1.134-.648H4.316a1.079 1.079 0 00-1.09.59c-3.891 5.007-5.5 14.262 2.43 15.566l.067-.167c.288-.692.39-.463.477-.82zM2.567 6.806a6.737 6.737 0 00.343 5.391c2.463 2.317 5.082 1.694 7.1 1.872 4.644-.213 5.3-3.409 4.4-7.308zm2.65 9.267l.349-1.268 1.8.345.07 1.222z" fill="#152b37" fill-rule="evenodd"/></svg>