<svg xmlns="http://www.w3.org/2000/svg" width="16.563" height="22.687"><path data-name="Фигура 7" d="M8.108 18.409a9.086 9.086 0 01-5.7.03 31.371 31.371 0 00-.419-5.592 43.805 43.805 0 01-.63-5.5l7.868.007c0 1.25-.81 6.166-1.042 8.084-.117.972-.053 1.942-.076 2.972zm1.557-4.42c.182-1.451.35-2.888.562-4.364.369-2.582.776-3.535-.562-3.56-1.5-.028-8.688-.165-9.55.142-.339.763.1 2.671.218 3.6a69.271 69.271 0 01.783 7.537v4.1c0 .768.026 1.163.8 1.21 1.8.107 4.143-.03 5.977-.019 1.935.012 1.471-.132 1.474-4.873a14.307 14.307 0 01.298-3.773zm-6.311 3.673a6.282 6.282 0 003.808 0c.062-.664-.014-1.327.05-1.987.059-.612.177-1.159.247-1.792.122-1.1.425-2.581.447-3.654l-5.272-.016c.021 1.2.485 3.9.662 5.374.082.685.009 1.375.058 2.075zM7.003 5.089c1.269-6.049 8.889-4.323 8.246 1.1a4.173 4.173 0 01-.1.631 4.7 4.7 0 01-.233.512c-.737 1.746-2.206 2.1-3.758 2.409l-.094 1.232a5.218 5.218 0 004.961-3.218A5.405 5.405 0 009.05.443c-1.767.77-3.371 2.775-3.262 4.672z" fill="#152b37" fill-rule="evenodd"/></svg>